<svg class="illustration" width="1155" height="700" viewBox="0 0 1155 700" fill="none" xmlns="http://www.w3.org/2000/svg">
<ellipse cx="578.32" cy="590.57" rx="383.871" ry="35.2963" fill="#C4C4C4"/>
<rect x="712.98" y="167.188" width="49.8331" height="56.8042" fill="white"/>
<path d="M731.46 194.012C731.38 193.512 730.25 193.042 729.94 192.922C728.46 192.352 724.39 191.002 723.43 191.322C722.46 191.652 723.006 192.502 722.786 192.922C722.532 193.401 724.988 193.633 725.384 194.012C725.384 194.012 728.412 194.305 730.8 194.872C731.25 194.972 731.54 194.812 731.62 194.412C731.64 194.292 731.48 194.162 731.46 194.012Z" fill="#13223E"/>
<path fill-rule="evenodd" clip-rule="evenodd" d="M675.87 86.8H630.26V75H812.15V183.8V534.11H782.47L766.99 503.72H770.88V495.72H767.65C769.49 495.59 770.68 495.4 770.88 495.13C771.684 494.051 771.43 488.943 771.316 486.652V486.651L771.31 486.52C771.27 485.76 770.52 485.28 769.79 485.51C769.766 485.517 769.742 485.524 769.717 485.531C769.698 485.537 769.679 485.542 769.659 485.547C769.597 485.563 769.534 485.578 769.47 485.59L768.64 481.12C770.67 480.83 772.19 480.37 772.16 479.76C772.14 479.46 771.98 478.54 771.7 477.11L773.41 476.9C773.69 476.87 773.88 476.62 773.85 476.34C773.82 476.07 773.57 475.87 773.29 475.91L771.49 476.13C768.29 460.52 754.63 401.3 754.63 401.3C754.63 401.3 760.56 359.93 763.87 336.99C767.13 332.71 768.68 326.31 769.36 318.58C769.36 318.556 769.36 318.52 769.361 318.474C769.362 318.424 769.365 318.362 769.37 318.29C769.4 317.3 769.5 314.2 770.19 311.25C770.264 310.924 770.663 310.678 771.058 310.435C771.463 310.186 771.864 309.939 771.91 309.61C772.78 303.68 772.067 296.738 771.302 289.293L771.302 289.292C770.626 282.714 769.91 275.743 770.21 268.73C770.85 253.91 766.12 231.94 755.73 223.15C753.58 220.91 752.08 217.48 751.5 213.44C751.4 212.78 750.85 212.35 750.25 212.34C749.64 209.77 749.34 207.2 749.22 204.64C750.595 204.853 751.155 203.265 751.82 201.377C752.278 200.08 752.784 198.642 753.64 197.55C755.27 195.47 762.58 183.98 757.43 181.15C763.36 173.81 733.75 167.85 731.8 167.94C727.02 168.17 723.61 169.73 723.09 175.24C723.05 175.7 723.03 175.9 722.9 176.01C722.788 176.097 722.602 176.123 722.268 176.17C721.912 176.22 721.389 176.294 720.61 176.49C718.16 177.08 721.29 188.14 721.62 186.88C721.46 187.52 721.33 188.23 721.24 189.09C721.12 190.24 721.06 191.72 721.06 193.38V193.98C721.064 193.985 721.067 193.987 721.067 193.989C721.067 193.99 721.067 193.991 721.067 193.992C721.066 193.994 721.063 193.996 721.06 194C720.99 194.25 720.68 195.3 720.29 196.56C719.84 198 719.3 199.71 718.9 200.78C718.85 200.92 718.83 201.07 718.83 201.21C718.83 201.79 719.23 202.31 719.84 202.43L721.53 202.75C721.61 203.69 721.71 204.62 721.82 205.52C722.07 207.48 722.37 209.28 722.72 210.73C723.08 212.19 723.46 213.28 723.98 213.91C724.19 214.14 724.45 214.2 724.76 214.27C725.07 214.32 725.45 214.35 725.89 214.35C727.26 214.34 729.25 214.11 731.27 213.76C731.34 214.29 731.37 214.81 731.37 215.34C731.37 216.63 731.2 217.94 730.97 219.4C730.19 219.7 730.01 224.67 730.01 224.67C726.11 229.32 720.7 241.33 719.77 249.46C719.61 250.83 719.45 254.64 719.35 259.79L716.54 264.84L700.68 244.95C699.53 243.14 698.24 242.05 696.84 241.56C696.74 240.28 696.5 238.49 695.96 237.21C695.01 234.99 687.9 229.33 686.44 229.15C685.94 229.09 685.47 229.05 685.03 229.05L682.45 225.26V93.38V86.8H675.87ZM820.95 233.011V183.801H978V534.111H820.95V452.661V451.661V398.001V397.001V343.341V342.341V288.671V287.671V234.011V233.011ZM709.12 503.719L693.65 534.109H773.49L758.02 503.719H709.12ZM756.82 477.911L758.02 477.761C754.75 464.141 737.42 402.951 737.42 402.951C737.42 402.951 736.79 396.841 735.89 387.961L734.98 392.231L734.51 413.021C734.488 414.889 734.461 416.756 734.435 418.624V418.627V418.63V418.634V418.637V418.64V418.643V418.647V418.65V418.653V418.657V418.66C734.356 424.25 734.278 429.838 734.3 435.421C734.29 439.161 734.29 442.891 734.34 446.621C734.35 447.741 734.36 448.861 734.38 449.981H743.34V455.731H742.56L756.84 483.791L759.17 485.141C760.47 484.871 761.39 484.781 761.76 484.901C761.91 484.951 762.07 485.001 762.24 485.051C761.87 483.821 761.55 482.481 761.29 481.321C759.69 481.161 758.56 480.841 758.54 480.321C758.53 480.111 758.43 479.561 758.25 478.741L756.94 478.901C756.67 478.931 756.42 478.741 756.38 478.471C756.35 478.191 756.55 477.941 756.82 477.911ZM746.3 485.741L749.71 487.721C742.09 490.111 733.72 493.271 733.72 494.171C733.72 494.861 740.52 495.431 748.31 495.721H724.41C728.91 495.541 732.22 495.231 732.55 494.791C733.32 493.761 733.26 488.791 733.16 486.711C733.12 486.001 732.07 484.651 731.39 484.861C731.14 484.941 730.88 485.011 730.61 485.081V481.261C732.74 480.941 734.35 480.371 734.31 479.611C734.28 479.071 734.26 478.501 734.25 477.911L737.34 477.761C737.61 477.751 737.82 477.521 737.81 477.241C737.8 476.961 737.56 476.751 737.29 476.761L734.23 476.911C734.188 473.916 734.284 470.453 734.377 467.078C734.461 464.019 734.544 461.032 734.52 458.531H735.01L748.75 485.511L747.02 484.511C746.68 484.311 746.24 484.431 746.05 484.771C745.85 485.111 745.97 485.541 746.3 485.741ZM720.91 480.57L717.9 486.48C721.13 485.54 723.6 484.99 724.23 485.2L724.268 485.211C724.323 485.227 724.373 485.242 724.43 485.25V481.5C722.75 481.38 721.38 481.08 720.91 480.57ZM696.27 495.718V503.718H700.15L684.67 534.108H682.45V272.298L677.24 268.848C676.71 268.418 676.25 268.008 675.87 267.598C674.15 265.798 673.91 264.208 674.64 262.388C674.92 261.698 675.33 260.978 675.87 260.208C676.39 259.438 677.02 258.618 677.74 257.718L677.75 257.708C678.59 256.658 679.44 255.758 680.29 255.038C680.88 254.548 681.47 254.138 682.07 253.818L682.138 253.781L682.139 253.781C682.243 253.724 682.343 253.67 682.45 253.628C682.58 253.568 682.71 253.508 682.83 253.458C683.42 253.218 684.01 253.078 684.61 253.028H684.62C685.95 252.918 687.33 253.258 688.79 254.148C689.24 254.408 689.69 254.728 690.15 255.098L716.7 272.278L719.25 266.728L734.04 234.568C735.58 231.468 738.78 229.458 742.26 228.788C744.9 228.268 747.7 228.538 750.05 229.698C755.5 232.398 760.05 239.978 757.36 245.418C757.36 245.418 731.55 292.338 721.86 294.958C721.08 294.958 720.33 294.888 719.61 294.768C720.09 306.458 721.09 315.768 722.93 315.698C722.11 318.218 722.66 321.858 722.66 321.858H722.97C722.28 323.258 721.87 324.778 721.76 326.348L720.64 341.378L720.63 341.448C717.07 364.088 712.98 388.868 712.98 388.868L713.53 392.998L716.92 413.748C717.099 415.623 717.282 417.497 717.464 419.37C718.007 424.933 718.549 430.493 718.99 436.058C719.32 439.778 719.63 443.498 719.88 447.218C720.16 450.938 720.43 454.668 720.64 458.388C720.73 459.828 720.77 461.458 720.78 463.188L708.95 486.418L707.53 485.528C707.2 485.318 706.76 485.418 706.55 485.758C706.34 486.088 706.44 486.528 706.78 486.738L708.31 487.698L707.13 490.008C701.42 492.068 696.49 494.138 696.49 494.788C696.49 495.228 699.57 495.538 703.93 495.718H696.27ZM363.847 183.129H364.51H477.93V534.109H396.08V534.111H353.85V534.109V534.108H345.68V534.111H323.8V534.108H239.8V534.111H232.8V534.108H178V81.8984H364.51V172.728C364.283 176.231 364.062 179.698 363.847 183.129Z" fill="#ffffff"/>
<path fill-rule="evenodd" clip-rule="evenodd" d="M673.79 555.479L672.599 557.822C793.691 561.599 932.052 571.724 931.8 589.73C931.497 611.415 774.62 617.65 580.74 617.65C324.104 617.65 216.32 598.749 227.515 588.715C247.664 570.655 365.321 560.524 484.51 557.273V555.549V538.109V536.109V534.109V183.129V93.3789H675.87V215.599H656.969L675.87 242.386V534.109V536.109V538.109V540.529H673.15V548.529H675.87V551.399L673.79 555.479ZM722.51 198.94C722.78 199.271 723.11 199.55 723.48 199.76C723.91 200 724.39 200.141 724.9 200.141C725.86 200.141 726.71 199.661 727.3 198.94C727.79 198.35 728.11 197.591 728.2 196.74L738.9 195.451L741.72 195.11L742.71 194.99C742.88 194.641 743.12 194.341 743.4 194.081C743.42 194.063 743.44 194.045 743.461 194.028C743.482 194.011 743.502 193.994 743.522 193.978L743.525 193.975C743.547 193.957 743.568 193.939 743.59 193.922L743.612 193.903C743.625 193.892 743.637 193.881 743.65 193.87L742.42 194.021L738.8 194.451L728.21 195.73C728.16 195.17 728.01 194.641 727.78 194.17C727.65 193.901 727.48 193.641 727.3 193.42C726.71 192.701 725.86 192.23 724.9 192.23C724.29 192.23 723.72 192.42 723.24 192.76C722.97 192.93 722.72 193.161 722.51 193.42C722.45 193.49 722.4 193.56 722.36 193.63C722.12 193.951 721.94 194.3 721.8 194.69C721.65 195.151 721.56 195.661 721.56 196.18C721.56 196.81 721.68 197.401 721.91 197.93C722.06 198.3 722.26 198.641 722.51 198.94ZM722.73 195.1C722.85 194.701 723.04 194.341 723.28 194.06C723.56 193.721 723.89 193.48 724.26 193.341C724.46 193.271 724.68 193.23 724.9 193.23C724.94 193.23 724.98 193.23 725.02 193.24C725.5 193.26 725.95 193.48 726.31 193.841H726.32L726.32 193.841C726.339 193.86 726.359 193.88 726.378 193.899C726.394 193.915 726.409 193.932 726.425 193.948C726.458 193.984 726.49 194.021 726.52 194.06C726.524 194.067 726.528 194.073 726.533 194.079C726.54 194.088 726.547 194.097 726.555 194.106L726.556 194.107C726.568 194.121 726.58 194.136 726.59 194.151C726.99 194.661 727.24 195.38 727.24 196.18C727.24 197.021 726.96 197.781 726.52 198.31C726.09 198.841 725.52 199.141 724.9 199.141C724.43 199.141 723.98 198.961 723.59 198.63C723.574 198.614 723.556 198.598 723.538 198.582L723.524 198.57C723.502 198.55 723.48 198.53 723.46 198.51C723.4 198.451 723.34 198.38 723.28 198.31C722.95 197.92 722.72 197.401 722.61 196.81C722.58 196.61 722.56 196.401 722.56 196.18C722.56 195.8 722.62 195.43 722.73 195.1ZM758.25 478.741L756.94 478.901C756.67 478.931 756.42 478.741 756.38 478.471C756.35 478.191 756.55 477.941 756.82 477.911L758.02 477.761L771.49 476.131L773.29 475.911C773.57 475.871 773.82 476.071 773.85 476.341C773.88 476.621 773.69 476.871 773.41 476.901L771.7 477.111L767.99 477.561L760.71 478.441L758.25 478.741ZM768.64 481.121L769.47 485.591C767.13 486.211 764.18 485.641 762.24 485.051C761.87 483.821 761.55 482.481 761.29 481.321C763.41 481.531 766.35 481.441 768.64 481.121ZM759.17 485.139L756.84 483.789L757.7 485.459L758.04 486.129L761.9 488.369C762.24 488.569 762.68 488.449 762.87 488.109C763.07 487.769 762.96 487.339 762.62 487.139L759.17 485.139ZM746.3 485.741L749.71 487.721L749.94 487.851L749.85 487.681L748.75 485.511L747.02 484.511C746.68 484.311 746.24 484.431 746.05 484.771C745.85 485.111 745.97 485.541 746.3 485.741ZM724.43 485.252V481.502C726.35 481.652 728.69 481.562 730.61 481.262V485.082C728.46 485.632 726.09 485.752 724.43 485.252ZM722.29 489.68C722.62 489.89 722.72 490.33 722.51 490.66C722.31 491 721.87 491.1 721.53 490.89L717.07 488.1L717.73 486.82L722.29 489.68ZM716.3 491.86C716.5 491.53 716.4 491.09 716.07 490.88L715.76 490.68L715.11 491.96L715.32 492.09C715.65 492.3 716.09 492.19 716.3 491.86ZM708.31 487.701L706.78 486.741C706.44 486.531 706.34 486.091 706.55 485.761C706.76 485.421 707.2 485.321 707.53 485.531L708.95 486.421L708.31 487.701ZM351.15 476.59V469.95H345.68H344.76V463.31H345.68H353.85H358.55V456.68H414.21V463.31H400.42V469.95H406.81V476.59H353.85H351.15ZM259.7 445.27H301.29V476.6H313.37V394.66H301.29V405.96H259.7V394.66H247.62V476.6H259.7V445.27ZM259.7 421.79H301.29V429.44H259.7V421.79ZM244.57 539.781C243.12 539.781 241.82 539.131 240.95 538.111C240.46 537.551 239.94 536.111 239.94 536.111C239.94 536.111 239.8 521.643 239.8 515.191C239.8 512.561 241.93 510.421 244.57 510.421H247.62V493.641H259.7V510.421H301.29V493.641H313.37V510.421H319.02C321.66 510.421 323.8 512.561 323.8 515.191C323.8 516.52 323.856 518.271 323.919 520.221C324.117 526.379 324.379 534.523 323.134 537.634C322.555 539.082 320.47 539.781 319.02 539.781H309.93H304.72H256.26H251.05H244.57ZM226.45 459.648H215.84L217.22 476.598H228.2L229.58 459.648H228.47H226.45ZM801.354 397.94C801.354 400.179 799.539 401.994 797.3 401.994C795.061 401.994 793.246 400.179 793.246 397.94C793.246 395.702 795.061 393.887 797.3 393.887C799.539 393.887 801.354 395.702 801.354 397.94ZM870.806 161.65C873.044 161.65 874.859 159.836 874.859 157.597C874.859 155.358 873.044 153.543 870.806 153.543C868.567 153.543 866.752 155.358 866.752 157.597C866.752 159.836 868.567 161.65 870.806 161.65ZM219.107 279.855C219.107 282.093 217.293 283.908 215.054 283.908C212.815 283.908 211 282.093 211 279.855C211 277.616 212.815 275.801 215.054 275.801C217.293 275.801 219.107 277.616 219.107 279.855Z" fill="#22a6b3"/>
<path fill-rule="evenodd" clip-rule="evenodd" d="M799.67 567.901L795.89 560.471L789.81 548.531H794V540.531H785.74L784.51 538.11L783.49 536.11L782.47 534.11L766.99 503.721H770.88V495.721H767.65H762.92L758.04 486.13L757.7 485.461L756.84 483.79L742.56 455.73H734.47H724.58L720.78 463.19L708.95 486.42L708.31 487.701L707.13 490.01L704.22 495.721H703.93H696.27V503.721H700.15L684.67 534.11L683.65 536.11L682.63 538.11L682.45 538.471L681.4 540.531H675.87H673.15V548.531H675.87H677.33L675.87 551.401L673.79 555.48L670.11 562.721L668.55 565.781L667.25 568.331L665.19 572.36L664.55 573.641L658.34 585.831H667.31L673.69 573.3L674.17 572.36L676.05 568.68L678.98 562.911L682.45 556.1L682.66 555.69L686.31 548.531H780.83L786.63 559.911L790.41 567.331L799.83 585.831H808.8L799.67 567.901ZM781.99 544.721C781.99 543.841 782.71 543.13 783.59 543.13C784.47 543.13 785.18 543.841 785.18 544.721C785.18 545.6 784.47 546.32 783.59 546.32C782.71 546.32 781.99 545.6 781.99 544.721ZM715.11 491.961L715.76 490.68L717.07 488.1L717.73 486.82L717.9 486.48L720.91 480.57L721.95 478.531L722.47 477.5L732.13 458.531H734.52H735.01L748.75 485.51L749.85 487.68L749.94 487.85L753.95 495.721H748.31H724.41H713.19L715.11 491.961ZM685.15 544.721C685.15 545.6 684.44 546.32 683.56 546.32C683.12 546.32 682.73 546.151 682.45 545.87C682.15 545.581 681.96 545.17 681.96 544.721C681.96 544.271 682.15 543.87 682.45 543.581C682.73 543.3 683.12 543.13 683.56 543.13C684.44 543.13 685.15 543.841 685.15 544.721ZM690.38 540.531L691.61 538.11L692.63 536.11L693.65 534.11L709.12 503.721H758.02L773.49 534.11L774.51 536.11L775.53 538.11L776.76 540.531H690.38ZM802.83 591.73L803.14 591.57H802.75L802.83 591.73ZM664.39 591.57L664.31 591.73L664 591.57H664.39Z" fill="#C9C9C9"/>
<path d="M684.439 252.721L698.139 248.301L696.339 251.711L688.789 254.151C687.329 253.261 685.949 252.921 684.619 253.031C684.619 253.031 684.619 253.031 684.609 253.031C684.549 252.921 684.489 252.821 684.439 252.721Z" fill="#8E8E8E"/>
<path d="M684.61 253.029C684.01 253.079 683.42 253.219 682.83 253.459L683.01 253.179L684.44 252.719C684.49 252.819 684.55 252.919 684.61 253.029Z" fill="#8E8E8E"/>
<path fill-rule="evenodd" clip-rule="evenodd" d="M668.55 565.781L667.25 568.331L665.19 572.361H484.51H477.93V568.771V538.111H404.77V591.571H396.08V538.111H322.65C323.13 537.551 323.49 536.861 323.66 536.111C323.75 535.751 323.8 535.381 323.8 535.001V534.111H345.68V493.641H232.8V534.111H239.8V535.001C239.8 535.381 239.84 535.751 239.94 536.111C240.11 536.861 240.46 537.551 240.95 538.111H232.8V574.661V586.001V586.471V591.571H230.45H230.44H224.12V587.221V576.471V538.111H178V536.111V534.111H224.12V493.641H210.47V476.601H345.68V469.951H351.15V476.591H353.85V476.601H418.42V493.641H404.77V534.111H477.93V183.131V93.3808V86.8008H484.51H630.26H675.87H682.45V93.3808V225.261L675.87 215.601V93.3808H630.26H484.51V183.131V538.111V562.861V565.781H668.55ZM353.85 534.111H396.08V493.641H353.85V534.111ZM719.25 266.728L734.04 234.569C735.58 231.469 738.78 229.459 742.26 228.788C744.9 228.269 747.7 228.538 750.05 229.699C755.5 232.399 760.05 239.978 757.36 245.418C757.36 245.418 731.55 292.339 721.86 294.959C721.08 294.959 720.33 294.889 719.61 294.769C720.09 306.459 721.09 315.769 722.93 315.699C722.11 318.219 722.66 321.858 722.66 321.858H722.97C723.108 321.858 726.952 329.26 727.03 330.561C728.109 348.663 769.512 319.015 769.512 319.015C769.512 319.015 769.698 313.354 770.19 311.249C770.264 310.922 770.663 310.677 771.059 310.433C771.463 310.184 771.864 309.937 771.91 309.608C772.781 303.678 772.067 296.737 771.302 289.292L771.302 289.291C770.626 282.712 769.91 275.741 770.21 268.728C770.85 253.909 766.12 231.939 755.73 223.149C753.58 220.909 752.08 217.478 751.5 213.439C751.4 212.779 750.85 212.348 750.25 212.339C749.64 209.769 749.34 207.199 749.22 204.639C750.595 204.852 751.155 203.263 751.821 201.375C752.278 200.078 752.785 198.64 753.64 197.548C755.27 195.469 762.58 183.978 757.43 181.149C763.36 173.809 733.75 167.848 731.8 167.939C727.02 168.168 723.61 169.728 723.09 175.238C723.05 175.699 723.03 175.899 722.9 176.009C722.789 176.096 722.602 176.122 722.268 176.169C721.912 176.219 721.389 176.292 720.61 176.488C718.16 177.079 721.29 188.139 721.62 186.879C721.46 187.519 721.33 188.228 721.24 189.089C721.12 190.238 721.06 191.719 721.06 193.379V193.978C721.065 193.983 721.068 193.986 721.068 193.988C721.068 193.991 721.065 193.993 721.06 193.999C720.99 194.249 720.68 195.298 720.29 196.559C719.84 197.999 719.3 199.709 718.9 200.779C718.85 200.918 718.83 201.069 718.83 201.209C718.83 201.788 719.23 202.309 719.84 202.428L721.53 202.749C721.61 203.689 721.71 204.618 721.82 205.519C722.07 207.478 722.37 209.279 722.72 210.728C723.08 212.189 723.46 213.279 723.98 213.909C724.19 214.139 724.45 214.199 724.76 214.269C725.07 214.319 725.45 214.348 725.89 214.348C727.26 214.339 729.25 214.108 731.27 213.759C731.34 214.288 731.37 214.809 731.37 215.339C731.37 216.629 731.2 217.939 730.97 219.399C730.19 219.699 730.01 224.668 730.01 224.668C726.11 229.319 720.7 241.329 719.77 249.459C719.61 250.829 719.45 254.639 719.35 259.788L716.54 264.839L700.68 244.949C699.53 243.139 698.24 242.048 696.84 241.559C696.74 240.279 696.5 238.488 695.96 237.209C695.01 234.988 687.9 229.329 686.44 229.149C685.94 229.089 685.47 229.048 685.03 229.048L688.25 233.779C685.89 234.389 682.96 235.439 683.39 236.759C683.93 238.428 690.22 240.189 693.1 240.899L693.45 241.409L695.34 244.189L698.14 248.298L696.34 251.709L688.79 254.149C689.24 254.409 689.69 254.728 690.15 255.098L716.7 272.279L719.25 266.728ZM724.251 213.085C723.721 210.915 722.48 205.358 722.2 202.178L719.97 201.709C719.72 201.668 719.56 201.449 719.56 201.209L719.59 201.029C721.676 196.489 721.83 194.37 722.065 191.149C722.163 189.799 722.275 188.255 722.55 186.259C723.073 186.283 723.697 186.568 724.126 186.765C724.221 186.808 724.307 186.848 724.38 186.879C727.094 187.995 729.457 187.638 732.16 187.231C733.282 187.062 734.462 186.884 735.75 186.798C736.45 186.749 738.04 186.738 738.92 187.279C738.998 187.326 738.954 188.16 738.893 189.315V189.316V189.318V189.319V189.32V189.32V189.321C738.813 190.831 738.704 192.886 738.8 194.449L742.42 194.019C742.518 193.863 742.616 193.721 742.709 193.587L742.77 193.499C743.91 191.858 746.34 191.548 747.7 193.019C748.22 193.589 748.55 194.348 748.54 195.228C748.507 197.077 747.719 198.64 747.18 199.71L747.179 199.711L747.179 199.712C746.893 200.28 746.677 200.709 746.68 200.969C746.68 201.189 746.81 201.548 747.02 201.959C747.28 202.488 747.67 203.098 748.07 203.608C748.2 203.788 748.34 203.949 748.47 204.089C748.56 206.868 748.87 209.689 749.55 212.519L731.75 219.108C731.9 218.139 732.01 217.228 732.06 216.319C733.967 216.118 735.339 215.479 736.882 214.76C737.573 214.438 738.298 214.1 739.12 213.779C739.73 213.538 740.25 213.149 740.47 212.598C740.54 212.409 740.57 212.219 740.57 211.999C740.53 208.928 740.68 207.699 740.97 206.469V206.449C741.18 205.538 741.07 205.079 741.02 204.949C741.02 204.918 741.01 204.909 741.01 204.909L741 204.918C740.97 204.788 740.88 204.689 740.75 204.659C740.55 204.618 740.35 204.728 740.3 204.928L739.68 207.409L739.25 209.159L738.8 210.959C738.66 211.059 732.581 212.598 732.581 212.598C732.581 212.598 726.111 213.909 724.251 213.085ZM820.95 534.111V183.801H812.15V534.111H782.47L783.49 536.111L784.51 538.111H812.15H978V536.111V534.111H820.95ZM799.83 585.828H794.16V588.268V591.568H802.75H803.14H813.69V588.788V585.828H808.8H799.83ZM781.99 544.719C781.99 543.839 782.71 543.129 783.59 543.129C784.47 543.129 785.18 543.839 785.18 544.719C785.18 545.599 784.47 546.319 783.59 546.319C782.71 546.319 781.99 545.599 781.99 544.719ZM685.068 542.6C684.188 542.6 683.468 543.31 683.468 544.19C683.468 545.07 684.188 545.79 685.068 545.79C685.948 545.79 686.658 545.07 686.658 544.19C686.658 543.31 685.948 542.6 685.068 542.6ZM693.65 534.109H773.49L774.51 536.109L775.53 538.109H691.61L692.63 536.109L693.65 534.109ZM772.16 479.759C772.14 479.459 771.98 478.539 771.7 477.109L767.99 477.559L760.71 478.439L758.25 478.739C758.43 479.559 758.53 480.109 758.54 480.319C758.56 480.839 759.69 481.159 761.29 481.319C763.41 481.529 766.35 481.439 768.64 481.119C770.67 480.829 772.19 480.369 772.16 479.759ZM754.63 401.298C754.63 401.298 768.29 460.518 771.49 476.128L758.02 477.758C754.75 464.138 737.42 402.948 737.42 402.948C737.42 402.948 736.79 396.838 735.89 387.958L739.21 372.288C739.21 372.288 747.38 357.088 754.91 342.488C758.81 341.748 761.72 339.838 763.87 336.988C760.56 359.928 754.63 401.298 754.63 401.298ZM761.9 488.37L758.04 486.13L762.92 495.72H767.65C769.49 495.59 770.68 495.4 770.88 495.13C771.684 494.051 771.431 488.943 771.317 486.652V486.651L771.31 486.52C771.27 485.76 770.52 485.28 769.79 485.51C769.69 485.54 769.58 485.57 769.47 485.59C767.13 486.21 764.18 485.64 762.24 485.05C762.09 485.006 761.947 484.961 761.812 484.917L761.76 484.9C761.39 484.78 760.47 484.87 759.17 485.14L762.62 487.14C762.96 487.34 763.07 487.77 762.87 488.11C762.68 488.45 762.24 488.57 761.9 488.37ZM753.95 495.719H748.31C740.52 495.429 733.72 494.859 733.72 494.169C733.72 493.269 742.09 490.109 749.71 487.719L749.94 487.849L753.95 495.719ZM744.474 194.522C743.932 194.942 743.422 195.556 743.121 195.996C742.965 196.224 742.653 196.283 742.426 196.127C742.198 195.971 742.14 195.659 742.296 195.432C742.633 194.939 743.211 194.236 743.861 193.732C744.185 193.48 744.555 193.256 744.944 193.149C745.344 193.038 745.788 193.046 746.196 193.297C747.073 193.837 747.323 194.817 747.323 195.767C747.323 196.726 747.072 197.797 746.791 198.73C746.217 200.636 745.106 202.079 743.461 202.234C743.052 202.273 742.703 202.143 742.436 201.902C742.185 201.675 742.029 201.372 741.929 201.083C741.731 200.508 741.703 199.83 741.73 199.387C741.747 199.111 741.984 198.901 742.26 198.918C742.536 198.936 742.745 199.173 742.728 199.448C742.705 199.82 742.735 200.352 742.875 200.758C742.944 200.959 743.027 201.089 743.106 201.16C743.169 201.217 743.242 201.25 743.367 201.239C744.393 201.142 745.299 200.216 745.834 198.441C746.107 197.535 746.323 196.577 746.323 195.767C746.323 194.946 746.106 194.416 745.672 194.149C745.557 194.078 745.414 194.056 745.211 194.112C744.997 194.172 744.745 194.312 744.474 194.522ZM743.34 455.73H742.56H734.47H724.58H723.8V449.98H734.38H743.34V455.73ZM741.09 196.339C741.25 195.959 741.47 195.539 741.72 195.109L738.9 195.449C738.96 195.809 739.04 196.119 739.15 196.339C739.39 196.839 740.8 197.039 741.09 196.339ZM737.81 477.238C737.82 477.518 737.61 477.748 737.34 477.758L734.25 477.908L730.32 478.108L724.43 478.398L721.95 478.528L722.47 477.498L734.23 476.908L737.29 476.758C737.56 476.748 737.8 476.958 737.81 477.238ZM727.32 206.13C727.13 206.07 726.93 206.18 726.87 206.38C726.81 206.62 726.56 206.91 726.2 207.12C725.84 207.34 725.39 207.48 724.95 207.48C724.64 207.48 724.34 207.41 724.09 207.26C723.909 207.16 723.69 207.22 723.59 207.39C723.49 207.57 723.549 207.79 723.719 207.89C724.109 208.12 724.53 208.21 724.95 208.21C725.539 208.21 726.109 208.03 726.58 207.75C727.039 207.46 727.43 207.07 727.57 206.58C727.63 206.38 727.51 206.18 727.32 206.13ZM715.11 491.962L715.32 492.092C715.65 492.302 716.09 492.192 716.3 491.862C716.5 491.532 716.4 491.092 716.07 490.882L715.76 490.682L717.07 488.102L721.53 490.892C721.87 491.102 722.31 491.002 722.51 490.662C722.72 490.332 722.62 489.892 722.29 489.682L717.73 486.822L717.9 486.482C721.13 485.542 723.6 484.992 724.23 485.202C724.279 485.216 724.323 485.23 724.369 485.24C724.389 485.245 724.409 485.249 724.43 485.252C726.09 485.752 728.46 485.632 730.61 485.082C730.88 485.012 731.14 484.942 731.39 484.862C732.07 484.652 733.12 486.002 733.16 486.712C733.26 488.792 733.32 493.762 732.55 494.792C732.22 495.232 728.91 495.542 724.41 495.722H713.19L715.11 491.962ZM704.22 495.722H703.93C699.57 495.542 696.49 495.232 696.49 494.792C696.49 494.142 701.42 492.072 707.13 490.012L704.22 495.722ZM684.11 243.509C683.37 242.679 683.05 242.629 682.45 243.189C682.366 243.266 682.273 243.361 682.169 243.467C682.113 243.525 682.053 243.585 681.99 243.649C681.937 243.705 681.883 243.764 681.826 243.826L681.825 243.827L681.824 243.827C681.293 244.401 680.548 245.205 679.42 246.189C679.19 246.389 678.94 246.599 678.68 246.809L678.67 246.819C678.664 246.824 678.662 246.827 678.659 246.828C678.657 246.828 678.656 246.829 678.653 246.829L678.65 246.829C677.85 247.479 676.89 247.919 675.87 248.219C675.57 248.309 675.26 248.389 674.94 248.449C672.59 248.929 670.21 248.609 668.1 247.669C666.02 246.769 664.19 245.259 662.86 243.329L662.5 242.809C662.5 242.809 661.72 247.179 661.52 251.299C661.42 253.179 663.68 257.439 667.23 259.659C669.69 261.199 672.63 261.999 674.64 262.389C674.92 261.699 675.33 260.979 675.87 260.209C676.39 259.439 677.02 258.619 677.74 257.719L677.75 257.709C678.59 256.659 679.44 255.759 680.29 255.039C680.88 254.549 681.47 254.139 682.07 253.819L682.138 253.782C682.167 253.766 682.196 253.75 682.225 253.734C682.255 253.719 682.284 253.703 682.314 253.689C682.359 253.667 682.404 253.646 682.45 253.629C682.494 253.608 682.538 253.588 682.582 253.568C682.667 253.529 682.751 253.492 682.83 253.459L683.01 253.179L683.02 253.169V253.159L683.02 253.153L683.02 253.148C683.021 253.145 683.021 253.142 683.023 253.139C683.023 253.137 683.024 253.136 683.025 253.134C683.027 253.132 683.028 253.13 683.03 253.129C683.1 252.909 683.36 252.089 683.65 250.999V250.989C683.79 250.489 683.93 249.929 684.06 249.339C684.24 248.509 684.41 247.629 684.5 246.799C684.61 245.879 684.63 245.019 684.49 244.369C684.42 244.009 684.3 243.719 684.11 243.509ZM674.17 572.362L676.05 568.682L678.98 562.912L682.45 556.102V563.002V565.782V568.992V572.362H675.87H674.17ZM682.45 538.472V538.112H682.63L683.65 536.112L684.67 534.112H682.45V272.302L677.24 268.852C676.71 268.422 676.25 268.012 675.87 267.602V534.112V536.112V538.112V540.532H681.4L682.45 538.472ZM677.33 548.531L675.87 551.401V548.531H677.33ZM658.34 585.828H653.45V588.928V591.568H664H664.39H672.99V588.358V585.828H667.31H658.34ZM660.58 400.891H630.26H494.15H490.03V404.891H494.15H630.26H660.58V400.891ZM630.26 319.699H660.58V323.699H630.26H494.15H490.03V319.699H494.15H630.26ZM660.58 261.738H630.26H494.15H490.03V265.738H494.15H630.26H660.58V261.738ZM630.26 174.809H660.58V178.809H630.26H490.03V174.809H630.26ZM657.46 126.25H645.99V172.72H657.46V126.25ZM637.35 279.512H648.82V314.482H637.35V279.512ZM644.05 126.25H632.58V172.72H644.05V126.25ZM635.11 279.512V314.482H630.26H623.64V279.512H630.26H635.11ZM630.65 172.72V126.25H630.26H619.18V172.72H630.26H630.65ZM605.78 126.25H617.24V172.72H605.78V126.25ZM616.28 489.2V482.18H614.55H555.38H548.28V489.2H542.3V496.21H610.3V489.2H616.28ZM551.19 302.398H604.72V313.858H551.19V302.398ZM592.21 385.68H532.16V397.15H592.21V385.68ZM565.56 126.25H577.03V172.72H565.56V126.25ZM563.63 126.25H552.16V172.72H563.63V126.25ZM508.14 337.09H519.6V397.15H508.14V337.09ZM507.05 337.09H495.58V397.15H507.05V337.09ZM490.03 503.32V499.32H494.15H630.26H660.58V503.32H630.26H494.15H490.03ZM353.85 183.13H364.51V172.73H345.68V463.31H353.85V183.13ZM304.72 572.471V565.151V539.781H309.93V564.671V571.961V583.921V591.571H304.72V583.951V572.471ZM251.05 571.541V580.121V585.361V591.571H256.26V585.111V579.061V570.771V539.781H251.05V571.541ZM214.67 454.909C214.45 454.909 214.26 454.769 214.19 454.559L212.36 448.759L213.95 448.319L213.81 447.819L216.82 446.969L219.55 456.679H220.3V446.389H220.69V444.719H221.91V446.389H222.31V456.679H223.55L224.49 448.339L224.88 448.389L225.07 446.719L226.28 446.859L226.09 448.519L226.49 448.569L225.57 456.679H226.78L227.55 449.849L227.95 449.899L228.14 448.229L229.34 448.369L229.15 450.029L229.55 450.079L228.8 456.679H231.22V459.649H229.58H228.47H226.45H215.84H214.2V456.679H216.3L214.22 449.279L213.62 449.449L215.14 454.259C215.23 454.519 215.08 454.799 214.82 454.879L214.67 454.909Z" fill="#13223E"/>
<path fill-rule="evenodd" clip-rule="evenodd" d="M225.599 173.751L212.639 133.631V173.871H203.609V130.961H212.639V132.851L220.999 130.141L234.189 170.981L225.599 173.751ZM329.869 130.961H338.899V173.871H329.869V130.961ZM509.039 213.191H497.569V259.661H509.039V213.191ZM522.45 213.191H510.979V259.661H522.45V213.191ZM589.469 213.191H577.999V259.661H589.469V213.191ZM591.399 213.191H602.869V259.661H591.399V213.191ZM604.809 213.191H616.279V259.661H604.809V213.191ZM657.269 215.699L675.099 241.669L675.869 242.779L678.649 246.829C677.849 247.479 676.889 247.919 675.869 248.219C675.569 248.309 675.259 248.389 674.939 248.449C672.589 248.929 670.209 248.609 668.099 247.669C666.019 246.769 664.189 245.259 662.859 243.329L662.499 242.809L648.149 221.969L657.269 215.699ZM953.029 301.462V338.042H943.999V305.162L932.719 338.042L924.169 335.112L936.049 300.512L943.999 303.242V301.462H953.029ZM938.719 409.781H947.749V446.371H938.719V409.781ZM936.189 409.781H927.169V446.371H936.189V409.781ZM883.069 329.012H919.659V338.042H883.069V329.012ZM899.139 409.781H890.109V446.371H899.139V409.781ZM878.559 409.781H887.589V446.371H878.559V409.781ZM870.919 437.34H834.329V446.37H870.919V437.34ZM654.549 449.738H643.079V496.208H654.549V449.738ZM637.349 350.68H648.819V397.15H637.349V350.68ZM635.409 397.15V350.68H630.259H623.949V397.15H630.259H635.409ZM629.679 496.208V449.738H630.259H641.149V496.208H630.259H629.679ZM622.009 350.68H610.539V397.15H622.009V350.68ZM608.609 350.68H597.139V397.15H608.609V350.68ZM527.179 373.922H587.229V385.392H527.179V373.922ZM576.059 213.191H564.599V259.661H576.059V213.191ZM551.189 213.191H562.659V259.661H551.189V213.191ZM503.699 431.871H510.709V496.211H503.699V431.871ZM495.499 431.871H502.509V496.211H495.499V431.871ZM336.055 240.998H327.025V283.908H336.055V240.998ZM322.024 240.998H312.995V283.908H322.024V240.998ZM279.829 164.84H322.739V173.87H279.829V164.84ZM308.825 274.78H265.905V283.81H308.825V274.78ZM213.189 350.68V355.07L221.229 351.11L240.199 389.6L232.099 393.59L213.189 355.22V393.59H204.159V350.68H213.189ZM260.904 240.998H251.874V283.908H260.904V240.998Z" fill="white"/>
<path fill-rule="evenodd" clip-rule="evenodd" d="M729.591 321.78C729.595 321.793 729.597 321.804 729.599 321.814C729.6 321.825 729.6 321.834 729.6 321.845L729.6 321.86V321.89C729.6 321.89 729.597 321.908 729.595 321.948C729.593 321.98 729.591 322.027 729.591 322.09C729.581 322.23 729.581 322.43 729.581 322.68C729.581 323.71 729.68 325.63 730.3 327.51C730.91 329.39 732.031 331.21 734.031 332.18C734.211 332.27 734.281 332.48 734.201 332.66C734.11 332.83 733.901 332.91 733.72 332.82C731.74 331.86 730.56 330.16 729.87 328.41C729.771 328.19 729.69 327.96 729.62 327.73C728.97 325.74 728.87 323.76 728.86 322.68C728.86 322.214 728.884 321.918 728.889 321.846L728.891 321.83C728.891 321.82 728.891 321.8 728.901 321.79C728.433 321.803 727.983 321.807 727.555 321.811C726.177 321.825 726.037 321.816 723.641 321.86H722.97C722.281 323.26 721.87 324.78 721.76 326.35L720.641 341.38L720.63 341.45C717.07 364.09 712.98 388.87 712.98 388.87L713.531 393L716.92 413.75C717.099 415.624 717.282 417.498 717.465 419.372C718.007 424.934 718.549 430.494 718.99 436.06C719.32 439.78 719.63 443.5 719.88 447.22C720.16 450.94 720.43 454.67 720.641 458.39C720.73 459.83 720.771 461.46 720.781 463.19L724.581 455.73H723.8V449.98H734.38C734.36 448.86 734.35 447.74 734.341 446.62C734.29 442.89 734.29 439.16 734.3 435.42C734.278 429.826 734.357 424.226 734.435 418.626V418.622C734.462 416.755 734.488 414.887 734.51 413.02L734.98 392.23L735.891 387.96L739.211 372.29C739.211 372.29 747.38 357.09 754.91 342.49C758.81 341.75 761.72 339.84 763.87 336.99C767.127 332.714 769.295 318.957 769.295 318.957C769.295 318.957 766.303 319.613 762.635 320.228C752.822 321.142 735.684 321.73 729.591 321.78ZM730.32 478.112L724.43 478.402L721.95 478.532L720.91 480.572C721.38 481.082 722.75 481.382 724.43 481.502C726.35 481.652 728.69 481.562 730.61 481.262C732.74 480.942 734.35 480.372 734.31 479.612C734.28 479.072 734.26 478.502 734.25 477.912L730.32 478.112ZM734.23 476.913L722.47 477.503L732.13 458.533H734.52C734.544 461.034 734.461 464.02 734.377 467.08C734.283 470.455 734.188 473.918 734.23 476.913Z" fill="#999999"/>
<path opacity="0.3" fill-rule="evenodd" clip-rule="evenodd" d="M665.19 572.359H484.51H477.93V568.77C464.73 569.39 457.01 570.14 457.01 570.94C457.01 571.859 467.3 572.72 484.46 573.39C506.65 574.25 540.31 574.799 578 574.799C611.92 574.799 642.58 574.349 664.55 573.64L665.19 572.359ZM682.451 568.988C692.961 569.568 698.991 570.228 698.991 570.938C698.991 571.828 689.551 572.648 673.691 573.298L674.171 572.358H675.871H682.451V568.988ZM735.67 595.441C673.49 595.441 623.09 593.711 623.09 591.571C623.09 589.211 848.25 589.405 848.25 591.571C848.25 593.711 797.85 595.441 735.67 595.441ZM404.771 591.571V586.421C421.571 587.671 431.711 589.291 431.711 591.071C431.711 594.9 242.67 612.467 223.383 591.571C223.352 591.534 225.272 591.552 227.119 591.569C228.828 591.584 230.475 591.599 230.451 591.571H232.801V586.471C258.679 584.461 280.262 583.891 319.131 583.891C348.891 583.891 375.951 584.631 396.081 585.841V591.571H404.771Z" fill="#13223E"/>
<path fill-rule="evenodd" clip-rule="evenodd" d="M435.618 137.897C435.352 137.824 435.077 137.981 435.004 138.247C434.931 138.514 435.088 138.789 435.355 138.861C437.299 139.393 439.206 139.948 441.093 140.54C441.356 140.622 441.637 140.476 441.72 140.212C441.802 139.949 441.656 139.668 441.392 139.586C439.492 138.99 437.573 138.431 435.618 137.897ZM824.64 149.32C824.916 149.312 825.133 149.081 825.125 148.805C825.116 148.529 824.886 148.312 824.61 148.321C820.757 148.437 816.904 148.76 813.084 149.313C812.811 149.353 812.621 149.607 812.661 149.88C812.7 150.153 812.954 150.343 813.227 150.303C817.007 149.756 820.823 149.435 824.64 149.32ZM836.171 148.575C835.896 148.555 835.656 148.762 835.636 149.037C835.616 149.313 835.823 149.552 836.099 149.572C839.936 149.851 843.742 150.318 847.482 150.952C847.754 150.998 848.012 150.815 848.058 150.542C848.104 150.27 847.921 150.012 847.649 149.966C843.879 149.327 840.042 148.856 836.171 148.575ZM802.024 152.647C802.29 152.573 802.445 152.297 802.371 152.031C802.297 151.765 802.022 151.61 801.756 151.684C798.041 152.716 794.393 154 790.844 155.557C790.591 155.668 790.476 155.963 790.587 156.215C790.698 156.468 790.993 156.583 791.245 156.473C794.749 154.936 798.353 153.668 802.024 152.647ZM858.945 152.419C858.678 152.349 858.404 152.507 858.333 152.774C858.262 153.041 858.421 153.315 858.688 153.386C860.552 153.882 862.389 154.416 864.194 154.987C864.457 155.07 864.738 154.924 864.821 154.661C864.904 154.398 864.758 154.117 864.495 154.033C862.676 153.458 860.824 152.919 858.945 152.419ZM781.16 161.85C781.393 161.701 781.461 161.392 781.313 161.159C781.164 160.927 780.855 160.858 780.622 161.007C779.003 162.04 777.416 163.144 775.864 164.32C775.644 164.486 775.6 164.8 775.767 165.02C775.934 165.24 776.248 165.284 776.468 165.117C777.998 163.957 779.564 162.869 781.16 161.85ZM876.043 158.35C875.79 158.24 875.495 158.356 875.385 158.609C875.274 158.862 875.39 159.157 875.643 159.267C877.504 160.077 879.307 160.925 881.048 161.805C881.063 161.812 881.079 161.819 881.094 161.825C932.552 187.868 940.034 247.818 942.054 264.056C942.879 270.684 944.618 288.306 942.02 308.868C942.019 308.873 942.018 308.879 942.018 308.885C941.772 310.828 941.488 312.796 941.16 314.785C941.115 315.057 941.299 315.314 941.572 315.359C941.844 315.404 942.102 315.22 942.147 314.947C942.477 312.941 942.764 310.955 943.012 308.995C943.012 308.99 943.013 308.984 943.013 308.979C945.624 288.307 943.876 270.6 943.046 263.932L943.043 263.908C941.025 247.682 933.499 187.192 881.499 160.909L881.487 160.903C881.475 160.898 881.464 160.893 881.452 160.889C879.709 160.008 877.903 159.161 876.043 158.35ZM771.797 168.307C771.982 168.512 771.966 168.828 771.761 169.014C770.304 170.33 768.886 171.721 767.511 173.189C767.322 173.391 767.005 173.401 766.804 173.213C766.602 173.024 766.592 172.707 766.781 172.506C768.175 171.017 769.613 169.607 771.09 168.272C771.295 168.086 771.612 168.102 771.797 168.307ZM777.45 303.465C777.252 303.273 776.935 303.278 776.743 303.477C776.551 303.675 776.557 303.992 776.755 304.184C778.205 305.585 779.696 306.933 781.226 308.229C781.437 308.408 781.752 308.382 781.93 308.171C782.109 307.96 782.083 307.645 781.872 307.466C780.358 306.184 778.884 304.85 777.45 303.465ZM791.133 314.36C790.901 314.209 790.592 314.274 790.441 314.505C790.29 314.737 790.355 315.047 790.587 315.197C792.116 316.193 793.673 317.145 795.256 318.051C795.496 318.188 795.801 318.105 795.938 317.865C796.076 317.626 795.993 317.32 795.753 317.183C794.186 316.286 792.645 315.345 791.133 314.36ZM805.438 322.02C805.185 321.911 804.891 322.028 804.781 322.281C804.672 322.535 804.789 322.829 805.043 322.939C808.383 324.379 811.81 325.638 815.308 326.712C815.572 326.793 815.852 326.645 815.933 326.381C816.014 326.117 815.866 325.837 815.602 325.756C812.138 324.692 808.745 323.446 805.438 322.02ZM874.711 327.739C874.978 327.67 875.14 327.398 875.071 327.13C875.002 326.863 874.73 326.702 874.462 326.77C872.705 327.221 870.944 327.629 869.182 327.994C868.911 328.05 868.737 328.314 868.793 328.585C868.849 328.855 869.114 329.029 869.384 328.973C871.162 328.605 872.938 328.194 874.711 327.739ZM826.11 328.38C825.839 328.328 825.576 328.505 825.523 328.776C825.471 329.047 825.647 329.309 825.919 329.362C829.48 330.055 833.094 330.567 836.746 330.895C837.021 330.919 837.264 330.716 837.288 330.441C837.313 330.166 837.11 329.923 836.835 329.899C833.217 329.574 829.637 329.067 826.11 328.38ZM858.585 330.674C858.859 330.644 859.058 330.398 859.028 330.123C858.998 329.849 858.751 329.65 858.477 329.68C854.859 330.073 851.249 330.287 847.66 330.324C847.384 330.327 847.163 330.554 847.166 330.83C847.169 331.106 847.395 331.327 847.671 331.324C851.292 331.286 854.935 331.071 858.585 330.674ZM886.338 323.567C886.433 323.826 886.3 324.113 886.041 324.209C884.146 324.906 882.242 325.551 880.333 326.145C880.069 326.227 879.789 326.079 879.707 325.816C879.625 325.552 879.773 325.272 880.036 325.19C881.929 324.601 883.817 323.962 885.696 323.27C885.955 323.175 886.242 323.308 886.338 323.567ZM452.051 143.965C452.157 143.71 452.45 143.59 452.705 143.696C454.908 144.616 457.127 145.616 459.387 146.714C459.635 146.834 459.739 147.133 459.618 147.382C459.497 147.63 459.198 147.734 458.95 147.613C456.706 146.524 454.505 145.532 452.319 144.619C452.065 144.513 451.944 144.22 452.051 143.965ZM471.547 153.923C471.69 153.687 471.998 153.612 472.234 153.755C474.237 154.97 476.297 156.269 478.426 157.661C478.658 157.812 478.722 158.122 478.571 158.353C478.42 158.584 478.11 158.649 477.879 158.498C475.759 157.112 473.709 155.819 471.715 154.61C471.479 154.467 471.404 154.159 471.547 153.923ZM940.661 320.279C940.932 320.335 941.106 320.599 941.05 320.87C940.668 322.723 940.246 324.587 939.782 326.457C939.715 326.725 939.444 326.888 939.176 326.821C938.908 326.755 938.744 326.484 938.811 326.216C939.273 324.359 939.691 322.508 940.071 320.668C940.127 320.397 940.391 320.223 940.661 320.279ZM936.226 336.813C936.487 336.903 936.626 337.188 936.536 337.449C935.301 341.023 933.885 344.583 932.264 348.09C932.148 348.341 931.851 348.45 931.6 348.334C931.35 348.218 931.24 347.921 931.356 347.67C932.962 344.196 934.366 340.668 935.59 337.122C935.68 336.861 935.965 336.723 936.226 336.813ZM682.202 337.41C682.389 337.207 682.705 337.194 682.908 337.381C684.254 338.622 685.586 339.838 686.907 341.03C687.112 341.215 687.128 341.531 686.943 341.736C686.758 341.941 686.442 341.957 686.237 341.772C684.914 340.577 683.579 339.359 682.231 338.117C682.028 337.93 682.015 337.613 682.202 337.41ZM694.325 348.234C694.504 348.024 694.82 347.999 695.03 348.179C697.831 350.574 700.603 352.865 703.372 355.061C703.589 355.233 703.625 355.547 703.453 355.763C703.282 355.98 702.967 356.016 702.751 355.845C699.971 353.64 697.189 351.341 694.38 348.939C694.17 348.759 694.145 348.444 694.325 348.234ZM926.715 357.533C926.951 357.677 927.026 357.984 926.883 358.22C924.92 361.454 922.747 364.607 920.343 367.649C920.172 367.865 919.857 367.902 919.641 367.731C919.424 367.56 919.387 367.245 919.559 367.028C921.936 364.021 924.086 360.902 926.028 357.701C926.172 357.465 926.479 357.39 926.715 357.533ZM711.294 361.698C711.455 361.474 711.768 361.422 711.992 361.584C713.46 362.64 714.934 363.672 716.42 364.681C716.648 364.836 716.707 365.147 716.552 365.376C716.397 365.604 716.086 365.663 715.857 365.508C714.365 364.493 712.883 363.456 711.408 362.396C711.184 362.234 711.133 361.922 711.294 361.698ZM912.666 375.465C912.859 375.663 912.854 375.979 912.656 376.172C911.296 377.493 909.88 378.783 908.406 380.037C906.74 381.454 905.039 382.791 903.307 384.054C903.083 384.216 902.771 384.167 902.608 383.944C902.445 383.721 902.494 383.408 902.718 383.246C904.43 381.998 906.112 380.675 907.758 379.275C909.216 378.036 910.615 376.761 911.959 375.455C912.157 375.262 912.474 375.267 912.666 375.465ZM759.782 387.145C759.876 386.886 760.163 386.751 760.423 386.845C761.835 387.357 763.885 388.098 766.483 388.983C766.744 389.072 766.884 389.356 766.795 389.618C766.706 389.879 766.422 390.019 766.161 389.93C763.554 389.042 761.498 388.298 760.085 387.787L760.082 387.786C759.823 387.692 759.688 387.405 759.782 387.145ZM892.497 390.219C892.625 390.463 892.531 390.766 892.286 390.894C888.422 392.917 884.454 394.641 880.413 396.097C880.153 396.19 879.867 396.055 879.773 395.796C879.68 395.536 879.814 395.249 880.074 395.156C884.074 393.715 888.001 392.009 891.822 390.008C892.067 389.88 892.369 389.974 892.497 390.219ZM778.164 393.187C778.24 392.922 778.517 392.769 778.783 392.845C782.548 393.928 786.729 395.041 791.24 396.099C791.508 396.163 791.675 396.432 791.612 396.7C791.549 396.969 791.28 397.136 791.011 397.073C786.482 396.01 782.285 394.893 778.506 393.806C778.241 393.73 778.088 393.453 778.164 393.187ZM803.259 399.112C803.308 398.841 803.568 398.66 803.84 398.708C807.933 399.441 812.195 400.088 816.578 400.606C816.852 400.638 817.048 400.887 817.016 401.161C816.983 401.435 816.735 401.631 816.461 401.599C812.056 401.079 807.775 400.428 803.664 399.693C803.392 399.644 803.211 399.384 803.259 399.112ZM868.35 399.123C868.411 399.393 868.243 399.661 867.973 399.722C863.747 400.685 859.481 401.404 855.209 401.913C854.935 401.946 854.686 401.75 854.653 401.476C854.621 401.202 854.816 400.953 855.091 400.92C859.33 400.415 863.562 399.702 867.751 398.747C868.02 398.686 868.288 398.854 868.35 399.123ZM828.876 402.166C828.89 401.891 829.125 401.678 829.4 401.692C833.636 401.904 837.938 401.967 842.268 401.846C842.544 401.839 842.774 402.056 842.782 402.332C842.789 402.608 842.572 402.838 842.296 402.846C837.938 402.968 833.61 402.904 829.35 402.691C829.075 402.677 828.862 402.442 828.876 402.166Z" fill="#13223E"/>
<path d="M218.184 260.227C223.994 228.505 239.112 198.403 262.381 175.143C325.047 112.503 413.841 132.464 435.488 138.377" stroke="#13223E" stroke-miterlimit="10" stroke-linecap="round"/>
<path fill-rule="evenodd" clip-rule="evenodd" d="M413.85 216.059C417.831 215.674 421.888 215.623 425.938 215.868C426.213 215.885 426.423 216.122 426.407 216.398C426.39 216.673 426.153 216.883 425.877 216.867C421.876 216.624 417.872 216.675 413.947 217.055C413.672 217.081 413.427 216.88 413.401 216.605C413.374 216.33 413.575 216.086 413.85 216.059ZM437.33 217.83C437.385 217.559 437.648 217.384 437.919 217.438C441.924 218.242 445.84 219.311 449.581 220.603C449.842 220.693 449.98 220.977 449.89 221.238C449.8 221.5 449.515 221.638 449.254 221.548C445.556 220.27 441.683 219.214 437.722 218.418C437.451 218.364 437.276 218.101 437.33 217.83ZM402.586 218.671C402.665 218.935 402.514 219.214 402.25 219.292C398.401 220.436 394.733 221.981 391.336 223.971C391.098 224.111 390.792 224.031 390.652 223.792C390.513 223.554 390.593 223.248 390.831 223.108C394.303 221.074 398.047 219.498 401.965 218.334C402.229 218.255 402.508 218.406 402.586 218.671ZM460.014 225.579C460.142 225.334 460.444 225.24 460.689 225.368C462.519 226.327 464.267 227.343 465.919 228.409C467.629 229.513 469.27 230.694 470.845 231.946C471.061 232.118 471.097 232.432 470.925 232.648C470.753 232.865 470.438 232.9 470.222 232.729C468.673 231.497 467.058 230.335 465.377 229.249C463.752 228.2 462.029 227.199 460.225 226.254C459.98 226.126 459.886 225.823 460.014 225.579ZM382.03 230.612C382.231 230.802 382.24 231.119 382.05 231.319C380.711 232.736 379.457 234.267 378.299 235.918C377.331 237.297 376.446 238.733 375.642 240.219C375.511 240.462 375.207 240.552 374.965 240.421C374.722 240.29 374.631 239.986 374.763 239.743C375.584 238.224 376.49 236.755 377.48 235.344C378.667 233.653 379.951 232.084 381.323 230.632C381.513 230.432 381.83 230.423 382.03 230.612ZM478.85 240.293C479.059 240.113 479.375 240.136 479.555 240.345C482.175 243.388 484.531 246.673 486.634 250.157C486.776 250.393 486.7 250.701 486.464 250.843C486.227 250.986 485.92 250.91 485.777 250.673C483.702 247.234 481.378 243.995 478.797 240.998C478.617 240.789 478.641 240.473 478.85 240.293ZM371.497 248.961C371.763 249.037 371.916 249.314 371.84 249.579C370.921 252.772 370.306 256.104 369.998 259.532C369.973 259.807 369.73 260.01 369.455 259.985C369.18 259.96 368.977 259.717 369.002 259.442C369.316 255.954 369.941 252.559 370.879 249.303C370.955 249.037 371.232 248.884 371.497 248.961ZM491.437 260.673C491.692 260.566 491.985 260.685 492.092 260.94C493.636 264.612 494.954 268.429 496.053 272.353C496.128 272.618 495.973 272.894 495.707 272.969C495.441 273.043 495.165 272.888 495.091 272.622C494.002 268.737 492.697 264.959 491.17 261.327C491.063 261.073 491.183 260.78 491.437 260.673ZM369.421 269.207C369.696 269.185 369.937 269.39 369.959 269.666C370.221 272.975 370.747 276.328 371.537 279.687C371.601 279.956 371.434 280.225 371.165 280.289C370.897 280.352 370.627 280.185 370.564 279.917C369.762 276.509 369.228 273.106 368.962 269.744C368.94 269.469 369.146 269.228 369.421 269.207ZM498.086 283.735C498.358 283.69 498.616 283.874 498.661 284.147C499.314 288.09 499.771 292.098 500.039 296.138C500.058 296.413 499.849 296.651 499.573 296.67C499.298 296.688 499.06 296.479 499.041 296.204C498.776 292.195 498.322 288.22 497.674 284.31C497.629 284.038 497.814 283.78 498.086 283.735ZM373.913 289.095C374.17 288.995 374.46 289.122 374.56 289.38C375.17 290.944 375.838 292.502 376.565 294.051C376.682 294.301 376.575 294.598 376.325 294.716C376.075 294.833 375.777 294.725 375.66 294.475C374.924 292.907 374.247 291.328 373.628 289.743C373.528 289.486 373.655 289.196 373.913 289.095ZM499.796 307.693C500.072 307.7 500.29 307.929 500.284 308.205C500.183 312.23 499.904 316.253 499.451 320.244C499.42 320.518 499.172 320.716 498.898 320.685C498.624 320.653 498.426 320.406 498.457 320.131C498.907 316.17 499.184 312.175 499.284 308.18C499.291 307.904 499.52 307.686 499.796 307.693ZM218.107 316.78C218.37 316.697 218.651 316.842 218.735 317.105C219.243 318.707 219.818 320.438 220.464 322.281C220.555 322.542 220.418 322.827 220.157 322.919C219.896 323.01 219.611 322.873 219.52 322.612C218.871 320.759 218.293 319.019 217.782 317.408C217.698 317.145 217.844 316.864 218.107 316.78ZM497.173 331.575C497.444 331.63 497.618 331.894 497.563 332.165C496.749 336.144 495.761 340.055 494.604 343.863C494.524 344.127 494.244 344.276 493.98 344.196C493.716 344.116 493.567 343.836 493.647 343.572C494.795 339.795 495.776 335.914 496.583 331.964C496.638 331.694 496.903 331.519 497.173 331.575ZM223.723 332.24C223.978 332.134 224.271 332.255 224.376 332.51C225.693 335.681 227.179 339.027 228.852 342.496C228.972 342.745 228.868 343.043 228.619 343.163C228.37 343.283 228.072 343.179 227.952 342.93C226.27 339.444 224.776 336.08 223.453 332.893C223.347 332.638 223.468 332.346 223.723 332.24ZM233.211 352.023C233.452 351.889 233.756 351.976 233.89 352.217C235.61 355.31 237.474 358.456 239.493 361.621C239.641 361.854 239.573 362.163 239.34 362.312C239.107 362.46 238.798 362.392 238.649 362.159C236.619 358.976 234.745 355.813 233.016 352.703C232.882 352.461 232.969 352.157 233.211 352.023ZM490.247 354.573C490.501 354.68 490.621 354.973 490.514 355.228C489.727 357.099 488.896 358.933 488.02 360.723C487.1 362.604 486.125 364.452 485.096 366.266C484.96 366.506 484.655 366.59 484.415 366.454C484.174 366.318 484.09 366.012 484.226 365.772C485.245 363.976 486.211 362.147 487.122 360.284C487.989 358.511 488.813 356.695 489.592 354.84C489.699 354.586 489.992 354.466 490.247 354.573ZM244.966 370.545C245.189 370.382 245.502 370.431 245.665 370.654C247.777 373.54 250.025 376.416 252.416 379.257C252.594 379.469 252.567 379.784 252.356 379.962C252.145 380.14 251.829 380.113 251.651 379.901C249.245 377.042 246.983 374.148 244.858 371.244C244.695 371.021 244.743 370.709 244.966 370.545ZM478.171 376.073C478.393 376.236 478.441 376.549 478.277 376.772C475.804 380.132 473.136 383.348 470.293 386.418C470.105 386.621 469.789 386.633 469.587 386.445C469.384 386.258 469.372 385.941 469.559 385.739C472.378 382.696 475.021 379.508 477.472 376.179C477.636 375.957 477.949 375.909 478.171 376.073ZM259.044 387.358C259.242 387.166 259.558 387.17 259.751 387.368C262.254 389.944 264.89 392.467 267.663 394.919C267.87 395.102 267.89 395.418 267.707 395.625C267.524 395.832 267.208 395.851 267.001 395.668C264.208 393.199 261.554 390.658 259.034 388.066C258.841 387.868 258.846 387.551 259.044 387.358ZM461.356 394.431C461.538 394.639 461.517 394.954 461.309 395.136C458.18 397.87 454.899 400.457 451.485 402.892C451.26 403.053 450.948 403 450.787 402.775C450.627 402.551 450.679 402.238 450.904 402.078C454.293 399.661 457.547 397.095 460.651 394.383C460.859 394.201 461.174 394.223 461.356 394.431ZM275.429 401.932C275.595 401.711 275.909 401.667 276.129 401.833C277.576 402.922 279.054 403.99 280.566 405.036C280.793 405.193 280.85 405.504 280.693 405.731C280.536 405.958 280.225 406.015 279.998 405.858C278.475 404.805 276.985 403.729 275.528 402.632C275.307 402.466 275.263 402.153 275.429 401.932ZM441.149 408.992C441.288 409.231 441.207 409.537 440.969 409.676C437.381 411.765 433.682 413.705 429.89 415.492C429.64 415.609 429.342 415.502 429.224 415.252C429.106 415.003 429.214 414.705 429.463 414.587C433.231 412.812 436.904 410.886 440.465 408.812C440.704 408.673 441.01 408.754 441.149 408.992ZM418.653 419.704C418.749 419.963 418.618 420.251 418.359 420.348C414.467 421.802 410.5 423.105 406.475 424.254C406.209 424.33 405.933 424.176 405.857 423.91C405.781 423.645 405.935 423.368 406.2 423.292C410.201 422.151 414.142 420.856 418.009 419.411C418.268 419.314 418.556 419.446 418.653 419.704ZM313.7 422.221C313.787 421.959 314.071 421.818 314.332 421.905C316.297 422.563 318.276 423.176 320.267 423.746C320.533 423.822 320.687 424.099 320.611 424.364C320.535 424.63 320.258 424.783 319.992 424.707C317.987 424.133 315.993 423.516 314.015 422.854C313.753 422.766 313.612 422.483 313.7 422.221ZM394.712 426.625C394.767 426.896 394.592 427.16 394.321 427.215C390.243 428.043 386.122 428.716 381.976 429.231C381.702 429.265 381.452 429.071 381.418 428.797C381.384 428.523 381.579 428.273 381.853 428.239C385.974 427.727 390.069 427.058 394.122 426.235C394.393 426.18 394.657 426.355 394.712 426.625ZM331.764 427.04C331.817 426.769 332.08 426.592 332.351 426.645C336.415 427.44 340.515 428.064 344.636 428.521C344.911 428.552 345.109 428.799 345.078 429.074C345.048 429.348 344.8 429.546 344.526 429.515C340.378 429.055 336.251 428.426 332.159 427.627C331.888 427.574 331.711 427.311 331.764 427.04ZM369.989 429.774C370.002 430.05 369.789 430.284 369.513 430.297C365.349 430.492 361.174 430.527 357.004 430.397C356.728 430.389 356.511 430.158 356.52 429.882C356.529 429.606 356.759 429.389 357.035 429.398C361.179 429.526 365.328 429.492 369.466 429.298C369.742 429.285 369.976 429.498 369.989 429.774ZM381.815 304.395C382.044 304.241 382.355 304.302 382.509 304.532C383.606 306.165 384.774 307.774 386.013 309.357C386.183 309.575 386.145 309.889 385.927 310.059C385.71 310.229 385.396 310.191 385.225 309.974C383.971 308.372 382.789 306.742 381.679 305.089C381.525 304.86 381.586 304.549 381.815 304.395ZM215.541 305.518C215.481 305.248 215.213 305.079 214.944 305.139C214.674 305.199 214.505 305.466 214.565 305.736C214.781 306.705 215.252 308.724 216.043 311.574C216.117 311.84 216.393 311.996 216.659 311.922C216.925 311.848 217.081 311.573 217.007 311.306C216.221 308.475 215.754 306.473 215.541 305.518Z" fill="#13223E"/>
<path fill-rule="evenodd" clip-rule="evenodd" d="M962.191 236.145H821V235.145H962.191V236.145ZM962.191 290.809H821V289.809H962.191V290.809ZM821 345.469H962.191V344.469H821V345.469ZM962.191 400.133H821V399.133H962.191V400.133ZM821 454.793H962.191V453.793H821V454.793Z" fill="white"/>
<path fill-rule="evenodd" clip-rule="evenodd" d="M339.498 178.293H198.307V177.293H339.498V178.293ZM339.498 232.953H198.307V231.953H339.498V232.953ZM198.307 287.617H339.498V286.617H198.307V287.617ZM339.498 342.277H198.307V341.277H339.498V342.277ZM198.307 396.941H247.331V395.941H198.307V396.941ZM259.716 396.941H301.326V395.941H259.716V396.941ZM313.984 396.941H339.498V395.941H313.984V396.941Z" fill="white"/>
<path fill-rule="evenodd" clip-rule="evenodd" d="M678.65 246.831L675.87 242.781L675.099 241.671L657.27 215.701L672.49 210.641L675.87 215.601L682.45 225.261L685.03 229.051L688.25 233.781C685.89 234.391 682.96 235.441 683.39 236.761C683.93 238.431 690.219 240.191 693.099 240.901L693.45 241.411L695.34 244.191L698.14 248.301L684.44 252.721L683.01 253.181L683.02 253.171V253.161C683.02 253.151 683.02 253.141 683.03 253.131C683.099 252.911 683.359 252.091 683.65 251.001V250.991C683.789 250.491 683.93 249.931 684.06 249.341C684.24 248.511 684.409 247.631 684.5 246.801C684.609 245.881 684.63 245.021 684.49 244.371C684.419 244.011 684.299 243.721 684.109 243.511C683.37 242.681 683.049 242.631 682.45 243.191C682.365 243.268 682.273 243.363 682.169 243.469C682.112 243.527 682.053 243.587 681.99 243.651C681.937 243.707 681.882 243.766 681.825 243.828C681.294 244.402 680.548 245.206 679.419 246.191C679.19 246.391 678.94 246.601 678.68 246.811L678.669 246.821C678.664 246.826 678.661 246.829 678.658 246.83C678.656 246.831 678.654 246.831 678.65 246.831ZM766.13 319.84L766.11 319.66L765.77 316.35L765.52 313.92C765.49 313.64 765.69 313.4 765.97 313.37C766.24 313.34 766.49 313.54 766.52 313.81L766.81 316.64L766.91 317.62L767.12 319.65L767.17 320.16C767.19 320.44 767 320.68 766.72 320.71C766.45 320.74 766.2 320.54 766.17 320.27L766.13 319.84ZM760.94 321.339C760.66 321.369 760.42 321.169 760.39 320.889L760.36 320.549L759.8 315.049C759.79 314.939 759.81 314.829 759.88 314.739C759.95 314.609 760.08 314.519 760.24 314.499C760.52 314.469 760.76 314.669 760.79 314.949V314.989L761.35 320.459L761.38 320.789C761.41 321.069 761.21 321.309 760.94 321.339ZM754.13 321.309C754.16 321.589 754.4 321.789 754.68 321.759C754.95 321.729 755.15 321.479 755.13 321.209L755.1 320.939L754.56 315.619C754.53 315.349 754.29 315.149 754.01 315.169C753.74 315.199 753.54 315.449 753.56 315.719L754.1 320.989L754.13 321.309ZM747.7 322.03C747.68 321.99 747.67 321.94 747.67 321.89L747.64 321.31L747.35 315.99C747.34 315.72 747.55 315.48 747.82 315.47C748.1 315.45 748.34 315.66 748.35 315.94L748.64 321.27L748.67 321.83C748.67 321.9 748.66 321.98 748.63 322.04C748.56 322.22 748.39 322.34 748.19 322.36C747.97 322.37 747.77 322.23 747.7 322.03ZM741.59 315.469C741.31 315.459 741.08 315.679 741.08 315.959L741 321.539L740.99 321.919V321.969C741.01 322.219 741.22 322.419 741.48 322.419C741.73 322.429 741.95 322.239 741.99 321.979V321.929L742 321.509L742.08 315.969C742.08 315.699 741.86 315.469 741.59 315.469ZM734.57 322.351C734.57 322.621 734.34 322.851 734.07 322.841C733.79 322.841 733.57 322.621 733.57 322.341V321.901V321.721L733.59 316.191C733.59 315.911 733.82 315.691 734.1 315.691C734.37 315.691 734.59 315.911 734.59 316.191L734.57 321.701V321.911V322.351ZM725.91 322.37C725.93 322.65 726.16 322.86 726.44 322.84C726.71 322.83 726.92 322.59 726.91 322.32L726.88 321.82L726.58 316.43C726.57 316.15 726.33 315.94 726.06 315.95C725.78 315.97 725.57 316.21 725.58 316.48L725.88 321.84L725.91 322.37Z" fill="#C4C4C4"/>
<path fill-rule="evenodd" clip-rule="evenodd" d="M725.51 196.191C725.51 196.627 725.157 196.98 724.721 196.98C724.286 196.98 723.933 196.627 723.933 196.191C723.933 195.756 724.286 195.402 724.721 195.402C725.157 195.402 725.51 195.756 725.51 196.191ZM724.362 204.941C724.362 205.178 724.17 205.37 723.933 205.37C723.696 205.37 723.504 205.178 723.504 204.941C723.504 204.704 723.696 204.512 723.933 204.512C724.17 204.512 724.362 204.704 724.362 204.941ZM740.132 201.691C740.132 201.928 739.94 202.12 739.703 202.12C739.466 202.12 739.274 201.928 739.274 201.691C739.274 201.454 739.466 201.262 739.703 201.262C739.94 201.262 740.132 201.454 740.132 201.691ZM735.308 203.659C735.308 203.896 735.116 204.088 734.879 204.088C734.642 204.088 734.45 203.896 734.45 203.659C734.45 203.422 734.642 203.23 734.879 203.23C735.116 203.23 735.308 203.422 735.308 203.659ZM731.673 206.008C731.91 206.008 732.102 205.816 732.102 205.579C732.102 205.342 731.91 205.15 731.673 205.15C731.436 205.15 731.244 205.342 731.244 205.579C731.244 205.816 731.436 206.008 731.673 206.008ZM735.151 207.856C735.151 208.093 734.959 208.285 734.722 208.285C734.485 208.285 734.293 208.093 734.293 207.856C734.293 207.619 734.485 207.427 734.722 207.427C734.959 207.427 735.151 207.619 735.151 207.856ZM730.055 209.142C730.292 209.142 730.484 208.95 730.484 208.713C730.484 208.476 730.292 208.284 730.055 208.284C729.818 208.284 729.626 208.476 729.626 208.713C729.626 208.95 729.818 209.142 730.055 209.142ZM726.161 211.678C726.398 211.678 726.59 211.486 726.59 211.249C726.59 211.012 726.398 210.82 726.161 210.82C725.925 210.82 725.732 211.012 725.732 211.249C725.732 211.486 725.925 211.678 726.161 211.678ZM737.958 206.866C738.195 206.866 738.387 206.674 738.387 206.437C738.387 206.2 738.195 206.008 737.958 206.008C737.721 206.008 737.529 206.2 737.529 206.437C737.529 206.674 737.721 206.866 737.958 206.866ZM737.958 210.21C737.958 210.447 737.766 210.639 737.529 210.639C737.292 210.639 737.1 210.447 737.1 210.21C737.1 209.973 737.292 209.781 737.529 209.781C737.766 209.781 737.958 209.973 737.958 210.21ZM732.246 211.497C732.483 211.497 732.675 211.305 732.675 211.068C732.675 210.831 732.483 210.639 732.246 210.639C732.009 210.639 731.817 210.831 731.817 211.068C731.817 211.305 732.009 211.497 732.246 211.497ZM726.59 204.946C726.827 204.946 727.02 204.754 727.02 204.517C727.02 204.28 726.827 204.088 726.59 204.088C726.354 204.088 726.161 204.28 726.161 204.517C726.161 204.754 726.354 204.946 726.59 204.946Z" fill="#13223E"/>
</svg>