<svg class="illustration" width="1155" height="700" viewBox="0 0 1155 700" fill="none" xmlns="http://www.w3.org/2000/svg">
<path opacity="0.14" d="M644.24 211.48V212.48H670V211.48H644.24ZM644.24 219.13V220.13H670V219.13H644.24ZM589.66 159.58V160.58H684.56V159.58H589.66ZM644.24 191.08V192.08H684.56V191.08H644.24ZM644.24 191.08V192.08H684.56V191.08H644.24ZM589.66 159.58V160.58H684.56V159.58H589.66ZM644.24 219.13V220.13H670V219.13H644.24ZM644.24 211.48V212.48H670V211.48H644.24ZM644.24 211.48V212.48H670V211.48H644.24ZM644.24 219.13V220.13H670V219.13H644.24ZM589.66 159.58V160.58H684.56V159.58H589.66ZM644.24 191.08V192.08H684.56V191.08H644.24ZM644.24 191.08V192.08H684.56V191.08H644.24ZM589.66 159.58V160.58H684.56V159.58H589.66ZM644.24 219.13V220.13H670V219.13H644.24ZM644.24 211.48V212.48H670V211.48H644.24ZM644.24 211.48V212.48H670V211.48H644.24ZM644.24 219.13V220.13H670V219.13H644.24ZM589.66 159.58V160.58H684.56V159.58H589.66ZM644.24 191.08V192.08H684.56V191.08H644.24ZM644.24 191.08V192.08H684.56V191.08H644.24ZM589.66 159.58V160.58H684.56V159.58H589.66ZM644.24 219.13V220.13H670V219.13H644.24ZM644.24 211.48V212.48H670V211.48H644.24ZM644.24 211.48V212.48H670V211.48H644.24ZM644.24 219.13V220.13H670V219.13H644.24ZM589.66 159.58V160.58H684.56V159.58H589.66ZM644.24 191.08V192.08H684.56V191.08H644.24ZM644.24 191.08V192.08H684.56V191.08H644.24ZM589.66 159.58V160.58H684.56V159.58H589.66ZM644.24 219.13V220.13H670V219.13H644.24ZM644.24 211.48V212.48H670V211.48H644.24ZM644.24 211.48V212.48H670V211.48H644.24ZM644.24 219.13V220.13H670V219.13H644.24ZM589.66 159.58V160.58H684.56V159.58H589.66ZM644.24 191.08V192.08H684.56V191.08H644.24ZM644.24 191.08V192.08H684.56V191.08H644.24ZM589.66 159.58V160.58H684.56V159.58H589.66ZM644.24 219.13V220.13H670V219.13H644.24ZM644.24 211.48V212.48H670V211.48H644.24ZM644.24 211.48V212.48H670V211.48H644.24ZM644.24 219.13V220.13H670V219.13H644.24ZM589.66 159.58V160.58H684.56V159.58H589.66ZM644.24 191.08V192.08H684.56V191.08H644.24ZM644.24 191.08V192.08H684.56V191.08H644.24ZM589.66 159.58V160.58H684.56V159.58H589.66ZM644.24 219.13V220.13H670V219.13H644.24ZM644.24 211.48V212.48H670V211.48H644.24ZM644.24 211.48V212.48H670V211.48H644.24ZM644.24 219.13V220.13H670V219.13H644.24ZM589.66 159.58V160.58H684.56V159.58H589.66ZM644.24 191.08V192.08H684.56V191.08H644.24ZM644.24 191.08V192.08H684.56V191.08H644.24ZM589.66 159.58V160.58H684.56V159.58H589.66ZM644.24 219.13V220.13H670V219.13H644.24ZM644.24 211.48V212.48H670V211.48H644.24ZM644.24 211.48V212.48H670V211.48H644.24ZM644.24 219.13V220.13H670V219.13H644.24ZM589.66 159.58V160.58H684.56V159.58H589.66ZM644.24 191.08V192.08H684.56V191.08H644.24ZM644.24 192.08H684.56V191.08H644.24V192.08ZM589.66 159.58V160.58H684.56V159.58H589.66ZM644.24 220.13H670V219.13H644.24V220.13ZM644.24 212.48H670V211.48H644.24V212.48ZM177 80V435.12H742.27L742.18 434.86H648.37C647.98 434.86 647.61 434.81 647.26 434.7C645.75 434.48 644.82 433.97 643.7 433.57C642.24 433.05 639.93 431.01 640.28 429.09C640.63 427.17 661.86 325.18 661.86 325.18C662.25 323.29 663.91 321.94 665.84 321.94H768.04V143.83C768.04 143.55 768.26 143.33 768.54 143.33V127.03C768.54 118.2 775.7 111.03 784.54 111.03H917.2C926.03 111.03 933.2 118.2 933.2 127.03V415.42H942.83V424.13H840.08L838.51 431.67C838.12 433.53 836.49 434.86 834.59 434.86H776.68L776.77 435.12H977V80H177ZM709.42 266.74C709.42 268.95 707.63 270.74 705.42 270.74H568.8C566.6 270.74 564.8 268.95 564.8 266.74V151.43C564.8 149.22 566.6 147.43 568.8 147.43H705.42C707.63 147.43 709.42 149.22 709.42 151.43V266.74ZM384.4 415.47H219.74V121.44C219.74 112.6 226.9 105.44 235.74 105.44H368.4C377.24 105.44 384.4 112.6 384.4 121.44V415.47ZM644.24 192.08H684.56V191.08H644.24V192.08ZM589.66 160.58H684.56V159.58H589.66V160.58ZM644.24 220.13H670V219.13H644.24V220.13ZM644.24 212.48H670V211.48H644.24V212.48ZM644.24 211.48V212.48H670V211.48H644.24ZM644.24 219.13V220.13H670V219.13H644.24ZM589.66 159.58V160.58H684.56V159.58H589.66ZM644.24 191.08V192.08H684.56V191.08H644.24ZM644.24 191.08V192.08H684.56V191.08H644.24ZM589.66 159.58V160.58H684.56V159.58H589.66ZM644.24 219.13V220.13H670V219.13H644.24ZM644.24 211.48V212.48H670V211.48H644.24ZM644.24 211.48V212.48H670V211.48H644.24ZM644.24 219.13V220.13H670V219.13H644.24ZM589.66 159.58V160.58H684.56V159.58H589.66ZM644.24 191.08V192.08H684.56V191.08H644.24ZM644.24 191.08V192.08H684.56V191.08H644.24ZM589.66 159.58V160.58H684.56V159.58H589.66ZM644.24 219.13V220.13H670V219.13H644.24ZM644.24 211.48V212.48H670V211.48H644.24ZM644.24 211.48V212.48H670V211.48H644.24ZM644.24 219.13V220.13H670V219.13H644.24ZM589.66 159.58V160.58H684.56V159.58H589.66ZM644.24 191.08V192.08H684.56V191.08H644.24ZM644.24 191.08V192.08H684.56V191.08H644.24ZM589.66 159.58V160.58H684.56V159.58H589.66ZM644.24 219.13V220.13H670V219.13H644.24ZM644.24 211.48V212.48H670V211.48H644.24ZM644.24 211.48V212.48H670V211.48H644.24ZM644.24 219.13V220.13H670V219.13H644.24ZM589.66 159.58V160.58H684.56V159.58H589.66ZM644.24 191.08V192.08H684.56V191.08H644.24ZM644.24 191.08V192.08H684.56V191.08H644.24ZM589.66 159.58V160.58H684.56V159.58H589.66ZM644.24 219.13V220.13H670V219.13H644.24ZM644.24 211.48V212.48H670V211.48H644.24ZM644.24 211.48V212.48H670V211.48H644.24ZM644.24 219.13V220.13H670V219.13H644.24ZM589.66 159.58V160.58H684.56V159.58H589.66ZM644.24 191.08V192.08H684.56V191.08H644.24ZM644.24 191.08V192.08H684.56V191.08H644.24ZM589.66 159.58V160.58H684.56V159.58H589.66ZM644.24 219.13V220.13H670V219.13H644.24ZM644.24 211.48V212.48H670V211.48H644.24ZM644.24 211.48V212.48H670V211.48H644.24ZM644.24 219.13V220.13H670V219.13H644.24ZM589.66 159.58V160.58H684.56V159.58H589.66ZM644.24 191.08V192.08H684.56V191.08H644.24ZM644.24 191.08V192.08H684.56V191.08H644.24ZM589.66 159.58V160.58H684.56V159.58H589.66ZM644.24 219.13V220.13H670V219.13H644.24ZM644.24 211.48V212.48H670V211.48H644.24ZM644.24 211.48V212.48H670V211.48H644.24ZM644.24 219.13V220.13H670V219.13H644.24ZM589.66 159.58V160.58H684.56V159.58H589.66ZM644.24 191.08V192.08H684.56V191.08H644.24ZM644.24 191.08V192.08H684.56V191.08H644.24ZM589.66 159.58V160.58H684.56V159.58H589.66ZM644.24 219.13V220.13H670V219.13H644.24ZM644.24 211.48V212.48H670V211.48H644.24ZM644.24 211.48V212.48H670V211.48H644.24ZM644.24 219.13V220.13H670V219.13H644.24ZM589.66 159.58V160.58H684.56V159.58H589.66ZM644.24 191.08V192.08H684.56V191.08H644.24ZM644.24 191.08V192.08H684.56V191.08H644.24ZM589.66 159.58V160.58H684.56V159.58H589.66ZM644.24 219.13V220.13H670V219.13H644.24ZM644.24 211.48V212.48H670V211.48H644.24ZM770.13 434.86H770.11C770.13 434.94 770.14 435.03 770.14 435.12H770.17C770.16 435.03 770.15 434.94 770.13 434.86ZM771.14 434.86C771.13 434.77 771.12 434.68 771.11 434.59C771.1 434.59 771.1 434.59 771.09 434.59C771.1 434.68 771.11 434.77 771.12 434.86C771.13 434.94 771.14 435.03 771.14 435.12H771.17C771.16 435.04 771.15 434.95 771.14 434.86Z" fill="#FFD785"/>
<path d="M761.29 418.35C761.42 417.44 761.45 416.45 761.37 415.42C761.46 416.45 761.43 417.45 761.29 418.35Z" fill="#FF714F"/>
<path d="M853.07 556.36C852.92 557.12 852.79 557.88 852.65 558.64C852.64 558.58 852.64 558.53 852.64 558.47C852.64 557.72 852.79 557.01 853.07 556.36Z" fill="#FF8366"/>
<path d="M863.54 558.47C863.54 561.48 861.1 563.92 858.09 563.92C855.98 563.92 854.15 562.72 853.25 560.97C853.63 558.82 854.02 556.64 854.44 554.44C855.4 553.55 856.68 553.02 858.09 553.02C861.1 553.02 863.54 555.46 863.54 558.47Z" fill="#FF8366"/>
<path d="M876.31 562.26H872.66C872.59 562.27 872.53 562.27 872.46 562.27C870.36 562.27 868.66 560.57 868.66 558.48C868.66 556.42 870.3 554.75 872.34 554.69V554.67H876.33C875.35 553.64 873.98 553.02 872.46 553.02C869.45 553.02 867.01 555.46 867.01 558.47C867.01 561.48 869.45 563.92 872.46 563.92C873.98 563.92 875.36 563.3 876.34 562.27C876.33 562.27 876.32 562.27 876.31 562.26Z" fill="#FF8366"/>
<path d="M876.56 562.26H876.36C876.43 562.19 876.5 562.12 876.55 562.05L876.56 562.26Z" fill="#0D0D0D"/>
<path d="M880.05 558.48C880.05 558.66 880.04 558.84 880.01 559.01C880 559.14 879.97 559.27 879.94 559.39C879.94 559.4 879.94 559.4 879.94 559.41C879.89 559.34 879.83 559.27 879.77 559.2C879.17 558.54 878.41 558.25 877.65 558.17C877.38 558.14 877.13 558.35 877.1 558.62C877.08 558.89 877.28 559.14 877.55 559.17C878.11 559.22 878.63 559.44 879.03 559.88C879.19 560.06 879.34 560.28 879.46 560.56C879.45 560.57 879.44 560.59 879.44 560.6C879.36 560.72 879.29 560.82 879.2 560.93C879.11 561.05 879.01 561.16 878.91 561.26C878.8 561.37 878.69 561.46 878.57 561.55C878.32 561.75 878.04 561.91 877.74 562.02C877.66 562.06 877.57 562.1 877.47 562.12C877.41 562.14 877.34 562.16 877.26 562.18C877.02 562.24 876.76 562.27 876.49 562.27C876.45 562.27 876.4 562.27 876.36 562.26H876.56L876.55 562.05C876.5 562.12 876.43 562.19 876.36 562.26C876.35 562.27 876.34 562.27 876.34 562.27C876.33 562.27 876.32 562.27 876.31 562.26C875.65 562.23 875.05 562.01 874.54 561.64C873.57 560.97 872.93 559.8 872.93 558.48C872.93 557.15 873.57 555.98 874.54 555.31C875.06 554.94 875.67 554.71 876.33 554.69C876.34 554.69 876.34 554.68 876.35 554.68C876.36 554.68 876.36 554.69 876.37 554.69C876.41 554.68 876.45 554.68 876.49 554.68C878.46 554.68 880.05 556.38 880.05 558.48Z" fill="black"/>
<path d="M705.42 146.93H568.8C566.32 146.93 564.3 148.94 564.3 151.43V266.74C564.3 269.23 566.32 271.24 568.8 271.24H705.42C707.91 271.24 709.92 269.23 709.92 266.74V151.43C709.92 148.94 707.91 146.93 705.42 146.93ZM709.42 266.74C709.42 268.95 707.63 270.74 705.42 270.74H568.8C566.6 270.74 564.8 268.95 564.8 266.74V151.43C564.8 149.22 566.6 147.43 568.8 147.43H705.42C707.63 147.43 709.42 149.22 709.42 151.43V266.74Z" fill="white"/>
<path fill-rule="evenodd" clip-rule="evenodd" d="M589.66 159.58H684.56V160.58H589.66V159.58ZM622.21 177.641H592.12C589.36 177.641 587.12 179.881 587.12 182.641V252.071C587.12 254.831 589.36 257.071 592.12 257.071H622.21C624.96 257.071 627.21 254.831 627.21 252.071V182.641C627.21 179.881 624.96 177.641 622.21 177.641ZM625.21 252.071C625.21 253.731 623.86 255.071 622.21 255.071H592.12C590.46 255.071 589.12 253.731 589.12 252.071V182.641C589.12 180.991 590.46 179.641 592.12 179.641H598.48V180.831C598.48 181.941 599.38 182.831 600.48 182.831H613.84C614.95 182.831 615.84 181.941 615.84 180.831V179.641H622.21C623.86 179.641 625.21 180.991 625.21 182.641V252.071ZM700.91 182.74C700.77 182.68 700.62 182.66 700.47 182.66C700.27 182.66 700.08 182.7 699.91 182.77C699.36 182.99 698.97 183.53 698.97 184.16V197.18C698.97 197.81 699.36 198.35 699.91 198.57C700.08 198.64 700.27 198.68 700.47 198.68C700.62 198.68 700.77 198.66 700.91 198.61C701.52 198.42 701.97 197.85 701.97 197.18V184.16C701.97 183.49 701.52 182.92 700.91 182.74Z" fill="#82D0B4"/>
<path d="M669.21 293.499H707.403C708.794 293.499 709.922 294.627 709.922 296.018C709.922 297.41 708.794 298.538 707.403 298.538H669.21C667.819 298.538 666.691 297.41 666.691 296.018C666.691 294.627 667.819 293.499 669.21 293.499Z" fill="white"/>
<path fill-rule="evenodd" clip-rule="evenodd" d="M705.42 271.74H568.8C566.04 271.74 563.8 269.5 563.8 266.74V151.43C563.8 148.67 566.04 146.43 568.8 146.43H705.42C708.18 146.43 710.42 148.67 710.42 151.43V266.74C710.42 269.5 708.18 271.74 705.42 271.74ZM568.8 147.43C566.6 147.43 564.8 149.22 564.8 151.43V266.74C564.8 268.95 566.6 270.74 568.8 270.74H705.42C707.63 270.74 709.42 268.95 709.42 266.74V151.43C709.42 149.22 707.63 147.43 705.42 147.43H568.8ZM596.1 197.12H598.81C599.91 197.12 600.81 196.22 600.81 195.12V193.23C600.81 192.13 599.91 191.23 598.81 191.23H596.1C594.99 191.23 594.1 192.13 594.1 193.23V195.12C594.1 196.22 594.99 197.12 596.1 197.12ZM442.99 427.529L440.61 445.279H418.99L416.86 427.529H442.99ZM263.22 531.65H340.98V545.01H263.22V531.65ZM608.52 197.12H605.81C604.7 197.12 603.81 196.22 603.81 195.12V193.23C603.81 192.13 604.7 191.23 605.81 191.23H608.52C609.62 191.23 610.52 192.13 610.52 193.23V195.12C610.52 196.22 609.62 197.12 608.52 197.12ZM615.52 197.12H618.23C619.33 197.12 620.23 196.22 620.23 195.12V193.23C620.23 192.13 619.33 191.23 618.23 191.23H615.52C614.41 191.23 613.52 192.13 613.52 193.23V195.12C613.52 196.22 614.41 197.12 615.52 197.12ZM598.81 205.9H596.1C594.99 205.9 594.1 205.01 594.1 203.9V202.02C594.1 200.919 594.99 200.02 596.1 200.02H598.81C599.91 200.02 600.81 200.919 600.81 202.02V203.9C600.81 205.01 599.91 205.9 598.81 205.9ZM605.81 205.9H608.52C609.62 205.9 610.52 205.01 610.52 203.9V202.02C610.52 200.919 609.62 200.02 608.52 200.02H605.81C604.7 200.02 603.81 200.919 603.81 202.02V203.9C603.81 205.01 604.7 205.9 605.81 205.9ZM618.23 205.9H615.52C614.41 205.9 613.52 205.01 613.52 203.9V202.02C613.52 200.919 614.41 200.02 615.52 200.02H618.23C619.33 200.02 620.23 200.919 620.23 202.02V203.9C620.23 205.01 619.33 205.9 618.23 205.9ZM596.1 214.691H598.81C599.91 214.691 600.81 213.791 600.81 212.691V210.811C600.81 209.701 599.91 208.811 598.81 208.811H596.1C594.99 208.811 594.1 209.701 594.1 210.811V212.691C594.1 213.791 594.99 214.691 596.1 214.691ZM608.52 214.691H605.81C604.7 214.691 603.81 213.791 603.81 212.691V210.811C603.81 209.701 604.7 208.811 605.81 208.811H608.52C609.62 208.811 610.52 209.701 610.52 210.811V212.691C610.52 213.791 609.62 214.691 608.52 214.691ZM615.52 214.691H618.23C619.33 214.691 620.23 213.791 620.23 212.691V210.811C620.23 209.701 619.33 208.811 618.23 208.811H615.52C614.41 208.811 613.52 209.701 613.52 210.811V212.691C613.52 213.791 614.41 214.691 615.52 214.691ZM598.81 223.47H596.1C594.99 223.47 594.1 222.58 594.1 221.47V219.59C594.1 218.49 594.99 217.59 596.1 217.59H598.81C599.91 217.59 600.81 218.49 600.81 219.59V221.47C600.81 222.58 599.91 223.47 598.81 223.47ZM605.81 223.47H608.52C609.62 223.47 610.52 222.58 610.52 221.47V219.59C610.52 218.49 609.62 217.59 608.52 217.59H605.81C604.7 217.59 603.81 218.49 603.81 219.59V221.47C603.81 222.58 604.7 223.47 605.81 223.47ZM840.72 421.06L841.89 415.42H942.83V424.13H840.08L840.72 421.06ZM883.35 463.07H861.87C863.29 463.35 864.5 463.69 865.47 464.11C866.48 464.54 867.29 465.06 867.78 465.72C868.58 466.77 869.06 468.29 869.32 470.16C869.52 471.62 869.58 473.33 869.52 475.25H883.35C886.66 475.25 889.35 472.57 889.35 469.25V469.07C889.35 465.76 886.66 463.07 883.35 463.07ZM700.91 182.74V165.32H699.91V182.77C700.08 182.7 700.27 182.66 700.47 182.66C700.62 182.66 700.77 182.68 700.91 182.74ZM700.47 198.68C700.62 198.68 700.77 198.66 700.91 198.61V261.82H699.91V198.57C700.08 198.64 700.27 198.68 700.47 198.68ZM684.56 191.08H644.24V192.08H684.56V191.08ZM644.24 211.48H670V212.48H644.24V211.48ZM670 219.131H644.24V220.131H670V219.131ZM644.235 226.783H669.999V227.783H644.235V226.783ZM669.999 234.432H644.235V235.432H669.999V234.432ZM633.076 257.572H581.248C580.972 257.572 580.748 257.349 580.748 257.072C580.748 256.796 580.972 256.572 581.248 256.572H633.076C633.353 256.572 633.576 256.796 633.576 257.072C633.576 257.349 633.353 257.572 633.076 257.572ZM707.402 278.959H613.004C611.34 278.959 609.985 280.313 609.985 281.978C609.985 283.643 611.34 284.997 613.004 284.997H707.402C709.067 284.997 710.422 283.643 710.422 281.978C710.422 280.313 709.067 278.959 707.402 278.959ZM707.402 283.997H613.004C611.891 283.997 610.985 283.091 610.985 281.978C610.985 280.865 611.891 279.959 613.004 279.959H707.402C708.516 279.959 709.422 280.865 709.422 281.978C709.422 283.091 708.516 283.997 707.402 283.997ZM669.21 293H707.4C709.07 293 710.42 294.35 710.42 296.02C710.42 297.68 709.07 299.04 707.4 299.04H669.21C667.55 299.04 666.19 297.68 666.19 296.02C666.19 294.35 667.55 293 669.21 293ZM669.21 298.04H707.4C708.52 298.04 709.42 297.13 709.42 296.02C709.42 294.9 708.52 294 707.4 294H669.21C668.1 294 667.19 294.9 667.19 296.02C667.19 297.13 668.1 298.04 669.21 298.04ZM707.4 307.039H691.04C689.38 307.039 688.02 308.389 688.02 310.059C688.02 311.719 689.38 313.079 691.04 313.079H707.4C709.07 313.079 710.42 311.719 710.42 310.059C710.42 308.389 709.07 307.039 707.4 307.039ZM707.4 312.079H691.04C689.93 312.079 689.02 311.169 689.02 310.059C689.02 308.939 689.93 308.039 691.04 308.039H707.4C708.52 308.039 709.42 308.939 709.42 310.059C709.42 311.169 708.52 312.079 707.4 312.079ZM747.59 276.061H768.04V300.811H729.69V288.431H747.59V276.061ZM530.85 309.95L454.92 309.16C453.39 309.14 452.07 308.07 451.75 306.57L443.55 268.22C443.49 267.95 443.47 267.68 443.49 267.41H443.29C441.19 267.39 439.61 269.32 440.05 271.37L448.24 309.72C448.56 311.22 449.88 312.3 451.41 312.31L480.43 312.61L482.02 320.07H496.94L495.38 312.77L527.55 313.11C529.37 313.13 530.8 311.68 530.85 309.95ZM569.119 598.582H577.682C584.738 606.712 608.987 614.234 623.258 617.917H529.068C542.105 616.812 560.786 606.23 569.119 598.582ZM658.71 524.801C658.71 529.851 657.04 533.951 654.99 533.951H577.48V547.201H569.29V533.951H490.17C488.96 533.951 487.89 532.531 487.21 530.331C489.91 528.451 492.59 526.611 495.27 524.801H658.71ZM584.41 520.409C587.18 520.409 589.57 519.019 590.99 516.949C590.16 517.249 589.27 517.409 588.33 517.409H506.43L505.359 518.106C504.189 518.868 503.009 519.636 501.83 520.409H584.41ZM868.52 475.249H475.77L480.49 496.419C480.54 496.649 480.74 496.809 480.97 496.809C480.988 496.809 481.006 496.809 481.023 496.808C481.035 496.808 481.047 496.807 481.059 496.805C481.066 496.803 481.073 496.802 481.08 496.799C481.3 496.749 481.46 496.549 481.47 496.329L484.8 511.159C485.62 514.809 488.87 517.409 492.61 517.409H495.9C494.52 518.399 493.13 519.399 491.74 520.409H488.69C484.95 520.409 481.71 517.809 480.89 514.159L472.15 475.249H270.65C267.34 475.249 264.65 472.569 264.65 469.249V469.069C264.65 465.759 267.34 463.069 270.65 463.069H469.41L463.13 435.119L440.15 332.829C439.24 328.739 441.6 324.819 445.29 323.529C444.08 325.279 443.56 327.529 444.07 329.829L467.72 435.119H467.73L469.57 443.329H469.56C469.44 443.239 469.3 443.199 469.15 443.229C468.88 443.289 468.71 443.559 468.77 443.829L473.06 463.069H566.14V460.149H568.59V463.069H657.61V460.149H660.06V463.069H752.36L751.35 460.269L742.27 435.119L742.18 434.859L742.16 434.809L742.11 434.679L740.36 429.809L740.01 428.849L735.18 415.479L734.68 414.079L728.29 396.389C728.2 396.129 728.14 395.879 728.12 395.629C727.98 393.939 729.31 392.379 731.11 392.379H759.24C760.5 392.379 761.63 393.169 762.06 394.359L768.54 412.309V412.319L769.66 415.419L771.7 421.059L772.81 424.129L776.58 434.579L776.68 434.859L776.77 435.119L786.83 462.979C784.54 462.959 782.38 462.909 780.38 462.819C778.29 462.729 776.38 462.589 774.69 462.399C771.33 462.039 768.9 461.469 767.56 460.689C767.34 460.559 767.15 460.419 766.98 460.269C766.37 459.729 766.05 459.029 765.95 458.189C765.8 457.069 766.03 455.699 766.49 454.089C766.902 452.625 767.498 451.019 768.132 449.309L768.133 449.306L768.31 448.829C769 446.949 769.72 444.949 770.28 442.919C770.49 442.149 770.68 441.369 770.82 440.579C770.88 440.319 770.93 440.059 770.96 439.799L770.974 439.707C771.009 439.48 771.044 439.258 771.07 439.029C771.25 437.719 771.3 436.409 771.17 435.119C771.16 435.039 771.15 434.949 771.14 434.859L771.11 434.589C770.94 433.289 770.58 432.009 769.98 430.769C769.9 430.599 769.81 430.429 769.72 430.259C769.64 430.129 769.57 430.009 769.49 429.879C769.4 429.709 769.29 429.549 769.18 429.389C769.103 429.268 769.019 429.146 768.934 429.026C768.886 428.957 768.837 428.888 768.788 428.82L768.786 428.818L768.73 428.739L768.7 428.709C768.56 428.529 768.42 428.349 768.27 428.179C768.25 428.149 768.23 428.119 768.2 428.089C767.95 427.809 767.69 427.529 767.4 427.249C767.362 427.211 767.322 427.172 767.283 427.134C767.241 427.093 767.198 427.052 767.155 427.011C767.083 426.943 767.01 426.874 766.937 426.806L766.93 426.799C766.776 426.662 766.621 426.532 766.461 426.397L766.456 426.393L766.38 426.329C766.302 426.268 766.225 426.207 766.146 426.147C766.108 426.118 766.07 426.089 766.032 426.06C766.005 426.04 765.978 426.02 765.95 425.999C765.44 425.599 764.89 425.219 764.28 424.849C764.178 424.788 764.076 424.727 763.973 424.666C763.928 424.639 763.883 424.613 763.838 424.586C763.783 424.554 763.727 424.522 763.67 424.489C763.461 424.37 763.243 424.251 763.024 424.132L763.02 424.129C762.67 423.939 762.3 423.759 761.92 423.579L761.801 423.522C761.608 423.429 761.407 423.332 761.2 423.249C760.56 422.959 759.88 422.689 759.17 422.429C759.37 422.289 759.55 422.119 759.71 421.949C759.93 421.729 760.12 421.489 760.28 421.219C760.35 421.119 760.42 421.009 760.47 420.899C760.88 420.169 761.15 419.299 761.29 418.349C761.43 417.449 761.46 416.449 761.37 415.419C761.36 415.169 761.34 414.919 761.3 414.659C761.26 414.269 761.2 413.879 761.13 413.489L761.117 413.422C761.091 413.282 761.064 413.137 761.03 412.999V412.979C760.92 412.489 760.8 411.999 760.65 411.509C760.6 411.309 760.54 411.109 760.47 410.909C760.455 410.859 760.439 410.808 760.422 410.757C760.365 410.578 760.302 410.401 760.24 410.229C758.04 404.249 754.51 401.029 749.81 401.029C744.7 401.029 743.55 408.249 744.29 412.889C745.02 417.549 746.99 421.099 751.38 422.549C751.81 422.689 752.26 422.809 752.74 422.909C753.83 423.149 755.05 423.269 756.42 423.269C756.68 423.269 756.92 423.249 757.16 423.219C757.28 423.209 757.39 423.189 757.5 423.159C757.62 423.139 757.73 423.109 757.84 423.069C757.85 423.064 757.862 423.062 757.875 423.059C757.888 423.057 757.9 423.054 757.91 423.049C758.31 423.179 758.69 423.319 759.06 423.459C759.32 423.549 759.58 423.649 759.83 423.759C759.87 423.774 759.91 423.789 759.949 423.804C759.988 423.819 760.025 423.834 760.06 423.849C760.28 423.939 760.5 424.029 760.72 424.129C760.803 424.165 760.885 424.201 760.968 424.238C761.142 424.316 761.315 424.395 761.48 424.472L761.488 424.475L761.54 424.499C761.81 424.629 762.07 424.759 762.32 424.889C763.16 425.319 763.9 425.759 764.58 426.229C764.674 426.294 764.766 426.358 764.856 426.422C764.924 426.471 764.991 426.52 765.058 426.568L765.187 426.663L765.29 426.739C765.51 426.909 765.72 427.069 765.92 427.249C766.13 427.429 766.33 427.609 766.53 427.789C766.72 427.969 766.9 428.149 767.08 428.339C767.25 428.519 767.42 428.709 767.58 428.899C767.89 429.279 768.17 429.659 768.42 430.039C768.53 430.219 768.64 430.399 768.74 430.579C768.77 430.629 768.81 430.689 768.83 430.739C768.92 430.899 769 431.049 769.08 431.209C769.65 432.379 769.98 433.599 770.13 434.859H770.11C770.117 434.885 770.122 434.912 770.126 434.94C770.135 434.998 770.14 435.059 770.14 435.119C770.2 435.609 770.23 436.119 770.23 436.619C770.23 436.699 770.227 436.782 770.225 436.864C770.222 436.947 770.22 437.029 770.22 437.109C770.22 437.359 770.2 437.619 770.18 437.879C770.17 438.199 770.14 438.519 770.09 438.839C770.08 438.989 770.06 439.129 770.03 439.279C769.88 440.399 769.63 441.519 769.32 442.649C768.77 444.639 768.06 446.599 767.37 448.479L767.294 448.684L767.292 448.687L767.29 448.693L767.289 448.697C766.618 450.499 765.972 452.233 765.53 453.819C765.06 455.449 764.79 456.989 764.95 458.309C765.04 459.039 765.27 459.699 765.66 460.269C765.99 460.769 766.45 461.199 767.05 461.549C768.19 462.219 769.94 462.709 772.14 463.069C772.9 463.189 773.72 463.299 774.58 463.399C777.95 463.769 782.14 463.939 786.84 463.979C795.214 464.051 805.275 463.718 815.402 463.383C816.655 463.342 817.908 463.3 819.16 463.259C821.23 463.189 823.29 463.129 825.34 463.069H852.9C856.28 463.259 859.2 463.559 861.53 464.019C862.97 464.299 864.16 464.639 865.09 465.029C866.02 465.429 866.64 465.859 866.98 466.319C867.63 467.169 868.08 468.499 868.33 470.289C868.52 471.699 868.58 473.359 868.52 475.249ZM282.464 442.21H264.561V454.584H209.333V442.21H227.236V429.836H282.464V442.21ZM456.388 187.834H511.615V175.46H493.714V163.086H438.486V175.46H456.388V187.834ZM416.951 364.208C411.646 360.648 420.476 349.107 420.476 349.107C420.476 349.107 419.208 355.269 419.571 358.585C419.86 361.232 422.784 363.027 426.015 365.011C429.027 366.86 432.305 368.872 433.961 371.89C436.992 377.414 434.53 381.142 431.632 385.528L431.631 385.53C431.248 386.11 430.857 386.701 430.471 387.309C428.38 390.601 429.932 396.841 431.005 401.155C432.506 407.193 433.07 409.461 421.405 394.607C417.095 389.119 421.914 384.901 425.76 381.534C427.445 380.058 428.944 378.746 429.406 377.562C430.922 373.677 423.582 368.658 416.951 364.208ZM435.763 366.463C432.798 363.19 440.645 356.92 440.645 356.92C440.645 356.92 438.767 360.842 438.458 363.127C438.248 364.677 440.269 366.455 442.4 368.33C445.115 370.719 448.009 373.265 446.696 375.696C442.411 383.63 435.236 387.412 435.236 387.412C435.236 387.412 438.019 382.76 439.442 380.375C441.969 376.142 439.47 370.554 435.763 366.463Z" fill="#ffffff"/>
<path fill-rule="evenodd" clip-rule="evenodd" d="M219.74 411.159C219.46 411.159 219.24 410.929 219.24 410.659V339.199H201.95C201.68 339.199 201.45 338.979 201.45 338.699C201.45 338.419 201.68 338.199 201.95 338.199H219.24V218.709H201.95C201.68 218.709 201.45 218.479 201.45 218.209C201.45 217.929 201.68 217.709 201.95 217.709H219.24V166.209C219.24 165.939 219.46 165.709 219.74 165.709C220.02 165.709 220.24 165.939 220.24 166.209V217.709H302.1V114.199C302.1 113.919 302.32 113.699 302.6 113.699C302.88 113.699 303.1 113.919 303.1 114.199V217.709H383.9V166.209C383.9 165.939 384.12 165.709 384.4 165.709C384.68 165.709 384.9 165.939 384.9 166.209V217.709H403.25C403.52 217.709 403.75 217.929 403.75 218.209C403.75 218.479 403.52 218.709 403.25 218.709H384.9V338.199H403.25C403.52 338.199 403.75 338.419 403.75 338.699C403.75 338.979 403.52 339.199 403.25 339.199H384.9V410.659C384.9 410.929 384.68 411.159 384.4 411.159C384.12 411.159 383.9 410.929 383.9 410.659V339.199H303.1V415.419H302.1V339.199H220.24V410.659C220.24 410.929 220.02 411.159 219.74 411.159ZM383.9 218.709H303.1V338.199H383.9V218.709ZM302.1 218.709H220.24V338.199H302.1V218.709ZM952.05 338.199H933.7V218.709H952.05C952.32 218.709 952.55 218.479 952.55 218.209C952.55 217.929 952.32 217.709 952.05 217.709H933.7V143.829C933.7 143.549 933.47 143.329 933.2 143.329C932.92 143.329 932.7 143.549 932.7 143.829V217.709H851.9V114.199C851.9 113.919 851.68 113.699 851.4 113.699C851.12 113.699 850.9 113.919 850.9 114.199V217.709H769.04V143.829C769.04 143.549 768.81 143.329 768.54 143.329C768.26 143.329 768.04 143.549 768.04 143.829V217.709H750.75C750.48 217.709 750.25 217.929 750.25 218.209C750.25 218.479 750.48 218.709 750.75 218.709H768.04V321.939H665.84C663.91 321.939 662.25 323.289 661.86 325.179C661.86 325.179 640.63 427.169 640.28 429.089C639.93 431.009 642.24 433.049 643.7 433.569C643.741 433.584 643.781 433.598 643.821 433.613L643.864 433.629C643.945 433.659 644.026 433.69 644.107 433.721C644.258 433.78 644.407 433.84 644.556 433.899L644.557 433.9C645.349 434.217 646.147 434.537 647.26 434.699C645.31 434.139 644.02 432.149 644.46 430.039L665.78 327.559C666.16 325.709 667.8 324.379 669.69 324.379H855.91C857.82 324.379 859.35 325.689 859.78 327.389C859.43 324.919 857.49 321.939 855.38 321.939H851.9V218.709H932.7V338.199H857.96L857.75 339.199H932.7V388.269C932.7 388.549 932.92 388.769 933.2 388.769C933.47 388.769 933.7 388.549 933.7 388.269V339.199H952.05C952.32 339.199 952.55 338.979 952.55 338.699C952.55 338.419 952.32 338.199 952.05 338.199ZM850.9 321.939H769.04V218.709H850.9V321.939ZM881.634 196.58C881.712 196.624 881.796 196.645 881.88 196.645C882.054 196.645 882.224 196.554 882.315 196.39L912.028 143.756C912.164 143.516 912.079 143.211 911.839 143.075C911.598 142.939 911.293 143.022 911.157 143.265L881.444 195.899C881.309 196.139 881.394 196.445 881.634 196.58ZM881.768 396.791C881.805 396.799 881.843 396.803 881.88 396.803C882.054 396.803 882.224 396.712 882.315 396.549L912.028 343.914C912.164 343.674 912.079 343.369 911.839 343.233C911.598 343.097 911.293 343.18 911.157 343.423L881.444 396.057C881.309 396.298 881.394 396.603 881.634 396.739C881.656 396.752 881.679 396.762 881.703 396.771C881.724 396.779 881.746 396.786 881.768 396.791ZM850.9 415.421V372.111L851.9 367.311V415.421H850.9ZM368.59 411.56L366.81 408.07L365.31 410.9L365.21 399.5L360.41 399.55L360.55 415.42L360.59 419.85L360.63 423.85H365.43L365.32 412.1V411.53L368.59 411.56ZM373.17 423.849H369.57L369.77 415.419L369.96 407.77L373.56 407.849L373.38 415.419L373.21 422.25L373.17 423.849ZM416.06 410.65H444.21L445.06 414.81H414.79L416.06 410.65ZM348.622 409.432L351.484 412.11L348.07 413.313L348.622 409.432ZM376.834 412.215L380.248 413.418L379.696 409.537L376.834 412.215ZM355.25 405.949L356.09 403.449L358.42 406.599L355.42 407.069L355.5 407.639L357.84 423.849H354.2L353.2 416.869L352.99 415.419L351.7 406.459L355.25 405.949ZM874.54 555.31C875.06 554.94 875.67 554.71 876.33 554.69V554.67H872.34V554.69C870.3 554.75 868.66 556.42 868.66 558.48C868.66 560.57 870.36 562.27 872.46 562.27C872.53 562.27 872.59 562.27 872.66 562.26H876.31C875.65 562.23 875.05 562.01 874.54 561.64C873.57 560.97 872.93 559.8 872.93 558.48C872.93 557.15 873.57 555.98 874.54 555.31ZM881.88 413.894C881.796 413.894 881.712 413.873 881.634 413.829C881.394 413.693 881.309 413.389 881.444 413.147L911.157 360.513C911.293 360.271 911.598 360.187 911.839 360.323C912.079 360.459 912.164 360.764 912.028 361.004L882.315 413.64C882.224 413.802 882.054 413.894 881.88 413.894ZM881.88 213.735C881.796 213.735 881.712 213.714 881.634 213.67C881.394 213.534 881.309 213.229 881.444 212.989L911.157 160.354C911.293 160.112 911.598 160.029 911.839 160.164C912.079 160.3 912.164 160.605 912.028 160.846L882.315 213.48C882.224 213.643 882.054 213.735 881.88 213.735ZM270.239 254.217C269.999 254.081 269.694 254.167 269.558 254.407L239.844 307.042C239.709 307.282 239.793 307.588 240.034 307.723C240.112 307.767 240.196 307.788 240.279 307.788C240.454 307.788 240.624 307.696 240.715 307.533L270.429 254.899C270.564 254.658 270.479 254.353 270.239 254.217ZM269.558 271.497C269.694 271.256 269.999 271.171 270.239 271.307C270.479 271.443 270.564 271.748 270.429 271.988L240.715 324.623C240.624 324.786 240.454 324.877 240.279 324.877C240.196 324.877 240.112 324.857 240.034 324.813C239.793 324.677 239.709 324.372 239.844 324.132L269.558 271.497ZM332.836 196.58C332.914 196.624 332.999 196.645 333.082 196.645C333.256 196.645 333.426 196.553 333.518 196.39L363.23 143.756C363.366 143.516 363.281 143.211 363.041 143.075C362.8 142.938 362.495 143.024 362.359 143.265L332.646 195.899C332.511 196.139 332.596 196.444 332.836 196.58ZM333.082 213.735C332.999 213.735 332.914 213.714 332.836 213.67C332.596 213.534 332.511 213.229 332.646 212.989L362.359 160.354C362.495 160.113 362.8 160.029 363.041 160.164C363.281 160.3 363.366 160.605 363.23 160.845L333.518 213.48C333.426 213.643 333.256 213.735 333.082 213.735ZM573.78 156.005C574.907 156.005 575.82 155.091 575.82 153.964C575.82 152.837 574.907 151.924 573.78 151.924C572.653 151.924 571.739 152.837 571.739 153.964C571.739 155.091 572.653 156.005 573.78 156.005ZM585.662 153.966C585.662 155.093 584.749 156.006 583.622 156.006C582.495 156.006 581.582 155.093 581.582 153.966C581.582 152.839 582.495 151.926 583.622 151.926C584.749 151.926 585.662 152.839 585.662 153.966ZM593.464 156.005C594.591 156.005 595.504 155.091 595.504 153.964C595.504 152.837 594.591 151.924 593.464 151.924C592.337 151.924 591.423 152.837 591.423 153.964C591.423 155.091 592.337 156.005 593.464 156.005ZM622.21 255.071H592.12C590.46 255.071 589.12 253.731 589.12 252.071V182.641C589.12 180.991 590.46 179.641 592.12 179.641H598.48V180.831C598.48 181.941 599.38 182.831 600.48 182.831H613.84C614.95 182.831 615.84 181.941 615.84 180.831V179.641H622.21C623.86 179.641 625.21 180.991 625.21 182.641V252.071C625.21 253.731 623.86 255.071 622.21 255.071ZM615.52 191.231C614.41 191.231 613.52 192.131 613.52 193.231V195.121C613.52 196.221 614.41 197.121 615.52 197.121H618.23C619.33 197.121 620.23 196.221 620.23 195.121V193.231C620.23 192.131 619.33 191.231 618.23 191.231H615.52ZM615.52 200.021C614.41 200.021 613.52 200.921 613.52 202.021V203.901C613.52 205.011 614.41 205.901 615.52 205.901H618.23C619.33 205.901 620.23 205.011 620.23 203.901V202.021C620.23 200.921 619.33 200.021 618.23 200.021H615.52ZM615.52 208.811C614.41 208.811 613.52 209.701 613.52 210.811V212.691C613.52 213.791 614.41 214.691 615.52 214.691H618.23C619.33 214.691 620.23 213.791 620.23 212.691V210.811C620.23 209.701 619.33 208.811 618.23 208.811H615.52ZM605.81 191.231C604.7 191.231 603.81 192.131 603.81 193.231V195.121C603.81 196.221 604.7 197.121 605.81 197.121H608.52C609.62 197.121 610.52 196.221 610.52 195.121V193.231C610.52 192.131 609.62 191.231 608.52 191.231H605.81ZM605.81 200.021C604.7 200.021 603.81 200.921 603.81 202.021V203.901C603.81 205.011 604.7 205.901 605.81 205.901H608.52C609.62 205.901 610.52 205.011 610.52 203.901V202.021C610.52 200.921 609.62 200.021 608.52 200.021H605.81ZM605.81 208.811C604.7 208.811 603.81 209.701 603.81 210.811V212.691C603.81 213.791 604.7 214.691 605.81 214.691H608.52C609.62 214.691 610.52 213.791 610.52 212.691V210.811C610.52 209.701 609.62 208.811 608.52 208.811H605.81ZM605.81 217.591C604.7 217.591 603.81 218.491 603.81 219.591V221.471C603.81 222.581 604.7 223.471 605.81 223.471H608.52C609.62 223.471 610.52 222.581 610.52 221.471V219.591C610.52 218.491 609.62 217.591 608.52 217.591H605.81ZM596.1 191.231C594.99 191.231 594.1 192.131 594.1 193.231V195.121C594.1 196.221 594.99 197.121 596.1 197.121H598.81C599.91 197.121 600.81 196.221 600.81 195.121V193.231C600.81 192.131 599.91 191.231 598.81 191.231H596.1ZM596.1 200.021C594.99 200.021 594.1 200.921 594.1 202.021V203.901C594.1 205.011 594.99 205.901 596.1 205.901H598.81C599.91 205.901 600.81 205.011 600.81 203.901V202.021C600.81 200.921 599.91 200.021 598.81 200.021H596.1ZM596.1 208.811C594.99 208.811 594.1 209.701 594.1 210.811V212.691C594.1 213.791 594.99 214.691 596.1 214.691H598.81C599.91 214.691 600.81 213.791 600.81 212.691V210.811C600.81 209.701 599.91 208.811 598.81 208.811H596.1ZM596.1 217.591C594.99 217.591 594.1 218.491 594.1 219.591V221.471C594.1 222.581 594.99 223.471 596.1 223.471H598.81C599.91 223.471 600.81 222.581 600.81 221.471V219.591C600.81 218.491 599.91 217.591 598.81 217.591H596.1ZM646.235 251.271H668C669.104 251.271 670 250.377 670 249.271V246.562C670 245.458 669.104 244.562 668 244.562H646.235C645.13 244.562 644.235 245.458 644.235 246.562V249.271C644.235 250.377 645.13 251.271 646.235 251.271ZM716.21 434.751L728.12 395.631C728.14 395.881 728.2 396.131 728.29 396.391L734.68 414.081C733.1 417.711 731.99 422.581 733.13 425.901C733.91 428.171 735.66 429.531 738.19 429.851C738.51 429.891 738.82 429.911 739.14 429.911C739.55 429.911 739.95 429.881 740.36 429.811L742.11 434.681L742.16 434.811H716.19L716.21 434.751ZM882.41 610.169C878.86 615.049 872.83 618.099 863.2 617.899C858.26 617.799 854.79 615.489 852.51 611.539C850.26 607.629 849.19 602.129 848.94 595.579C848.65 587.959 849.48 578.839 850.94 569.019C851.44 565.629 852.02 562.159 852.65 558.639C852.696 558.387 852.742 558.135 852.787 557.882C852.878 557.375 852.97 556.867 853.07 556.359V556.349C853.6 553.439 854.17 550.499 854.77 547.549L854.78 547.496L854.788 547.454C854.796 547.41 854.805 547.367 854.814 547.323C854.826 547.263 854.839 547.204 854.85 547.144C854.857 547.109 854.864 547.074 854.87 547.039C856.55 538.725 858.402 530.335 860.188 522.248C862.259 512.866 864.24 503.89 865.76 495.909C867.17 488.489 868.17 481.979 868.46 476.849C868.49 476.299 868.51 475.769 868.52 475.249C868.58 473.359 868.52 471.699 868.33 470.289C868.08 468.499 867.63 467.169 866.98 466.319C866.64 465.859 866.02 465.429 865.09 465.029C864.16 464.639 862.97 464.299 861.53 464.019C859.2 463.559 856.28 463.259 852.9 463.069C852.13 463.019 851.33 462.979 850.51 462.949C843.33 462.659 834.53 462.809 825.34 463.069C823.29 463.129 821.23 463.189 819.16 463.259C817.908 463.3 816.655 463.342 815.402 463.383C805.275 463.718 795.214 464.051 786.84 463.979C782.14 463.939 777.95 463.769 774.58 463.399C773.72 463.299 772.9 463.189 772.14 463.069C769.94 462.709 768.19 462.219 767.05 461.549C766.45 461.199 765.99 460.769 765.66 460.269C765.27 459.699 765.04 459.039 764.95 458.309C764.79 456.989 765.06 455.449 765.53 453.819C765.972 452.235 766.617 450.502 767.287 448.702L767.289 448.697L767.29 448.693L767.292 448.687L767.294 448.684L767.37 448.479C768.06 446.599 768.77 444.639 769.32 442.649C769.63 441.519 769.88 440.399 770.03 439.279C770.042 439.221 770.052 439.165 770.06 439.109C770.068 439.058 770.075 439.007 770.08 438.956C770.084 438.917 770.087 438.879 770.09 438.839C770.14 438.519 770.17 438.199 770.18 437.879C770.189 437.762 770.198 437.644 770.205 437.527C770.214 437.386 770.22 437.246 770.22 437.109C770.22 436.949 770.23 436.779 770.23 436.619C770.23 436.119 770.2 435.609 770.14 435.119C770.14 435.029 770.13 434.939 770.11 434.859H770.13C769.98 433.599 769.65 432.379 769.08 431.209C769 431.049 768.92 430.899 768.83 430.739C768.814 430.7 768.786 430.655 768.76 430.613L768.74 430.579C768.705 430.516 768.668 430.453 768.631 430.389C768.563 430.273 768.491 430.156 768.42 430.039C768.17 429.659 767.89 429.279 767.58 428.899C767.42 428.709 767.25 428.519 767.08 428.339C766.91 428.149 766.72 427.969 766.53 427.789C766.434 427.703 766.338 427.616 766.24 427.53C766.135 427.436 766.029 427.343 765.92 427.249C765.72 427.069 765.51 426.909 765.29 426.739C765.06 426.569 764.83 426.399 764.58 426.229C763.9 425.759 763.16 425.319 762.32 424.889C762.07 424.759 761.81 424.629 761.54 424.499L761.489 424.476C761.354 424.413 761.214 424.349 761.071 424.284C760.955 424.232 760.837 424.18 760.72 424.129C760.633 424.09 760.546 424.052 760.458 424.015C760.403 423.991 760.347 423.967 760.291 423.944C760.214 423.912 760.137 423.881 760.06 423.849C759.99 423.819 759.91 423.789 759.83 423.759C759.58 423.649 759.32 423.549 759.06 423.459C758.69 423.319 758.31 423.179 757.91 423.049C757.9 423.054 757.888 423.057 757.875 423.059C757.862 423.062 757.85 423.064 757.84 423.069C757.73 423.109 757.62 423.139 757.5 423.159C757.39 423.189 757.28 423.209 757.16 423.219C756.92 423.249 756.68 423.269 756.42 423.269C755.05 423.269 753.83 423.149 752.74 422.909C752.26 422.809 751.81 422.689 751.38 422.549C746.99 421.099 745.02 417.549 744.29 412.889C743.55 408.249 744.7 401.029 749.81 401.029C754.51 401.029 758.04 404.249 760.24 410.229C760.32 410.449 760.4 410.679 760.47 410.909C760.488 410.961 760.505 411.012 760.522 411.063L760.539 411.118L760.557 411.175C760.591 411.286 760.622 411.398 760.65 411.509C760.8 411.999 760.92 412.489 761.03 412.979V412.999C761.047 413.066 761.062 413.135 761.076 413.204C761.095 413.3 761.113 413.396 761.13 413.489C761.2 413.879 761.26 414.269 761.3 414.659C761.33 414.918 761.35 415.166 761.37 415.414L761.37 415.419C761.45 416.449 761.42 417.439 761.29 418.349C761.15 419.299 760.88 420.169 760.47 420.899C760.42 421.009 760.35 421.119 760.28 421.219C760.11 421.489 759.92 421.729 759.71 421.949C759.55 422.119 759.37 422.289 759.17 422.429C759.88 422.689 760.56 422.959 761.2 423.249C761.273 423.279 761.345 423.31 761.417 423.341C761.496 423.377 761.574 423.413 761.65 423.45L761.679 423.464L761.801 423.522L761.92 423.579C762.3 423.759 762.67 423.939 763.02 424.129C763.24 424.249 763.46 424.369 763.67 424.489C763.88 424.609 764.08 424.729 764.28 424.849C764.89 425.219 765.44 425.599 765.95 425.999C766.047 426.07 766.14 426.141 766.231 426.212C766.281 426.251 766.33 426.29 766.38 426.329C766.57 426.489 766.75 426.639 766.93 426.799L767.054 426.915C767.087 426.947 767.121 426.979 767.155 427.011L767.197 427.051L767.267 427.119C767.312 427.162 767.356 427.206 767.4 427.249C767.69 427.529 767.95 427.809 768.2 428.089C768.23 428.119 768.25 428.149 768.27 428.179C768.42 428.349 768.56 428.529 768.7 428.709L768.73 428.739L768.786 428.818C768.919 429.004 769.057 429.197 769.18 429.389C769.29 429.549 769.4 429.709 769.49 429.879C769.57 430.009 769.64 430.129 769.72 430.259C769.779 430.37 769.837 430.481 769.893 430.591C769.923 430.651 769.952 430.71 769.98 430.769C770.58 432.009 770.94 433.289 771.11 434.589H771.09L771.12 434.859C771.13 434.939 771.14 435.029 771.14 435.119C771.27 436.409 771.23 437.709 771.07 439.029C771.04 439.289 771 439.539 770.96 439.799C770.92 440.059 770.87 440.319 770.82 440.579C770.68 441.369 770.49 442.149 770.28 442.919C769.72 444.949 769 446.949 768.31 448.829L768.133 449.306L768.132 449.309C767.498 451.019 766.902 452.625 766.49 454.089C766.03 455.699 765.8 457.069 765.95 458.189C766.05 459.029 766.37 459.729 766.98 460.269C767.15 460.419 767.34 460.559 767.56 460.689C768.9 461.469 771.33 462.039 774.69 462.399C776.38 462.589 778.29 462.729 780.38 462.819C782.38 462.909 784.54 462.959 786.83 462.979H786.85C795.18 463.05 805.17 462.72 815.264 462.386C816.549 462.344 817.835 462.301 819.12 462.259C830.49 461.899 841.73 461.599 850.55 461.949C854.96 462.129 858.78 462.459 861.72 463.039L861.87 463.069C863.29 463.349 864.5 463.689 865.47 464.109C866.48 464.539 867.29 465.059 867.78 465.719C868.58 466.769 869.06 468.289 869.32 470.159C869.52 471.619 869.58 473.329 869.52 475.249C869.51 475.789 869.49 476.339 869.46 476.909C869.16 482.099 868.15 488.669 866.74 496.099C865.223 504.077 863.231 513.1 861.153 522.517L861.152 522.517L861.152 522.518L861.152 522.519L861.152 522.519L861.151 522.525L861.148 522.537C859.364 530.618 857.516 538.99 855.85 547.239C855.83 547.339 855.81 547.449 855.79 547.549C855.32 549.859 854.87 552.159 854.44 554.439C854.02 556.639 853.63 558.819 853.25 560.969C852.76 563.809 852.3 566.609 851.9 569.349C850.47 579.059 849.66 588.039 849.94 595.539C850.18 602.029 851.24 607.339 853.38 611.039C855.49 614.709 858.65 616.799 863.22 616.899C872.62 617.089 878.29 614.129 881.6 609.589C884.93 605.009 885.93 598.729 885.72 592.169C885.52 585.609 884.12 578.849 882.74 573.369C882.14 570.999 881.55 568.879 881.06 567.119C881.039 567.046 881.018 566.973 880.997 566.901L880.993 566.887C880.936 566.689 880.88 566.497 880.83 566.309C880.767 566.076 880.705 565.85 880.646 565.632C880.462 564.955 880.299 564.356 880.17 563.849C880.01 563.169 879.89 562.619 879.86 562.229C879.8 561.519 879.66 560.979 879.46 560.559C879.34 560.279 879.19 560.059 879.03 559.879C878.63 559.439 878.11 559.219 877.55 559.169C877.28 559.139 877.08 558.889 877.1 558.619C877.13 558.349 877.38 558.139 877.65 558.169C878.41 558.249 879.17 558.539 879.77 559.199C879.83 559.269 879.89 559.339 879.94 559.409C880.43 560.059 880.75 560.949 880.85 562.149C880.88 562.449 880.98 562.929 881.14 563.599C881.14 563.609 881.15 563.629 881.15 563.639C881.32 564.299 881.53 565.109 881.79 566.039C881.858 566.283 881.928 566.535 882.001 566.795C882.497 568.567 883.1 570.721 883.71 573.119C885.09 578.629 886.51 585.479 886.72 592.139C886.93 598.789 885.93 605.329 882.41 610.169ZM740.01 428.85C739.45 428.92 738.88 428.93 738.31 428.86C736.16 428.59 734.73 427.48 734.08 425.581C733.11 422.74 733.93 418.72 735.18 415.48L740.01 428.85ZM574.674 413.729C574.725 413.963 574.932 414.122 575.162 414.122C575.197 414.122 575.233 414.118 575.269 414.11C575.539 414.052 575.709 413.785 575.65 413.514L564.29 361.674C564.231 361.404 563.961 361.234 563.695 361.293C563.425 361.352 563.254 361.619 563.313 361.888L574.674 413.729ZM474.08 463.071H473.06L468.77 443.831C468.71 443.561 468.88 443.291 469.15 443.231C469.3 443.201 469.44 443.241 469.56 443.331H469.57C469.66 443.391 469.72 443.491 469.75 443.611L474.08 463.071ZM480.97 496.81C481.01 496.81 481.05 496.81 481.08 496.8C481.3 496.75 481.46 496.55 481.47 496.33V496.31C481.47 496.291 481.47 496.275 481.469 496.258C481.468 496.24 481.465 496.221 481.46 496.2L476.8 475.25H475.77L480.49 496.42C480.54 496.65 480.74 496.81 480.97 496.81ZM505.96 457.34C509.4 457.34 512.52 458.01 514.77 459.09C516.91 460.12 518.28 461.52 518.4 463.07H493.52C493.78 459.89 499.25 457.34 505.96 457.34ZM566.14 460.15H568.59V463.07H657.61V460.15H660.06V463.07H673.9L678.01 460.15H678.06V460.12L678.1 460.08H678.06C678.02 458.57 676.78 457.34 675.26 457.34H550.95C550.92 457.34 550.9 457.35 550.88 457.35L550.5 457.34C548.5 457.34 546.23 462.21 545.83 463.07H566.14V460.15ZM717.15 462.07V461.27C717.15 460.71 717.6 460.27 718.15 460.27H751.35L752.36 463.07H718.15C717.6 463.07 717.15 462.63 717.15 462.07ZM516.55 617.309C516.28 617.309 516.05 617.539 516.05 617.809C516.05 618.089 516.28 618.309 516.55 618.309C533.52 618.309 568.44 602.339 568.44 592.449V533.949H567.44V592.449C567.44 601.049 534.15 617.309 516.55 617.309ZM576.892 560.277C576.892 560.001 577.115 559.777 577.392 559.777C577.668 559.777 577.892 560.001 577.892 560.277V589.521C577.892 589.798 577.668 590.021 577.392 590.021C577.115 590.021 576.892 589.798 576.892 589.521V560.277ZM938.115 619.529H215.885C215.608 619.529 215.385 619.753 215.385 620.029C215.385 620.306 215.608 620.529 215.885 620.529H938.115C938.392 620.529 938.615 620.306 938.615 620.029C938.615 619.753 938.392 619.529 938.115 619.529ZM375.37 617.92H374.35C380.89 611.83 389.03 604.48 398.26 596.37C425.39 572.3 459.6 543.71 491.74 520.41C493.13 519.4 494.52 518.4 495.9 517.41C529.56 493.34 560.47 475.59 577.93 475.59C581.27 475.59 585.11 476.24 589.35 477.47C635.74 490.81 731.41 572.3 779.21 617.17C779.32 617.28 779.37 617.42 779.36 617.56C779.41 617.605 779.461 617.65 779.51 617.696C779.558 617.74 779.605 617.785 779.65 617.83H779.26C779.25 617.84 779.24 617.86 779.23 617.88C779.04 618.08 778.72 618.09 778.52 617.9C778.32 617.71 778.11 617.51 777.91 617.32C737.9 582.06 642.88 501.7 591.62 487.58C586.57 486.19 581.95 485.44 577.85 485.44C561.64 485.44 535.31 498.75 506.43 517.41C506.074 517.642 505.717 517.874 505.359 518.107C504.189 518.869 503.009 519.636 501.83 520.41C499.65 521.85 497.47 523.31 495.27 524.8C492.59 526.61 489.91 528.45 487.21 530.33C444.57 559.99 400.05 597.11 376.22 617.92H375.99C375.9 617.99 375.79 618.04 375.68 618.04C375.56 618.04 375.46 617.99 375.37 617.92Z" fill="#424B56"/>
<path fill-rule="evenodd" clip-rule="evenodd" d="M454.92 309.16C453.39 309.14 452.07 308.07 451.75 306.57L443.55 268.22C443.49 267.95 443.47 267.68 443.49 267.41C443.54 265.68 444.97 264.23 446.79 264.25L522.93 265.05C524.47 265.07 525.78 266.14 526.1 267.64L534.3 305.99C534.73 308.04 533.16 309.98 531.06 309.95H530.85L454.92 309.16ZM505.96 457.34C509.4 457.34 512.52 458.01 514.77 459.09C516.91 460.12 518.28 461.52 518.4 463.07H545.83C546.23 462.21 548.5 457.34 550.5 457.34L550.88 457.35C550.885 457.35 550.889 457.35 550.894 457.349C550.898 457.348 550.903 457.347 550.908 457.346L550.908 457.346C550.914 457.345 550.92 457.343 550.926 457.342C550.933 457.341 550.941 457.34 550.95 457.34H584.83L579.84 435.12L575.12 414.11L563.33 361.62V361.61L555.4 326.32C554.58 322.67 551.34 320.07 547.6 320.07H451.88C449.11 320.07 446.72 321.46 445.29 323.53C444.08 325.28 443.56 327.53 444.07 329.83L467.72 435.12L469.56 443.33H469.57L474 463.07H493.52C493.78 459.89 499.25 457.34 505.96 457.34ZM853.07 556.351C853.6 553.441 854.17 550.501 854.77 547.551H852.41C850.75 547.551 849.41 548.891 849.41 550.551V566.401C849.41 567.521 850.03 568.501 850.94 569.021C851.44 565.631 852.02 562.161 852.65 558.641C852.64 558.581 852.64 558.531 852.64 558.471C852.64 557.721 852.79 557.011 853.07 556.361V556.351ZM855.79 547.551H878.15C879.8 547.551 881.15 548.891 881.15 550.551V563.641C881.15 563.631 881.14 563.611 881.14 563.601C880.98 562.931 880.88 562.451 880.85 562.151C880.75 560.951 880.43 560.061 879.94 559.411V559.391C879.97 559.271 880 559.141 880.01 559.011C880.04 558.841 880.05 558.661 880.05 558.481C880.05 556.381 878.46 554.681 876.49 554.681C876.45 554.681 876.41 554.681 876.37 554.691C876.363 554.691 876.361 554.686 876.357 554.683C876.355 554.682 876.353 554.681 876.35 554.681C876.348 554.681 876.347 554.681 876.345 554.682L876.344 554.682L876.343 554.683L876.34 554.686L876.337 554.688C876.335 554.69 876.333 554.691 876.33 554.691V554.671C875.35 553.641 873.98 553.021 872.46 553.021C869.45 553.021 867.01 555.461 867.01 558.471C867.01 561.481 869.45 563.921 872.46 563.921C873.98 563.921 875.36 563.301 876.34 562.271L876.341 562.271L876.343 562.27C876.344 562.27 876.346 562.27 876.348 562.269C876.352 562.267 876.356 562.265 876.36 562.261C876.4 562.271 876.45 562.271 876.49 562.271C876.76 562.271 877.02 562.241 877.26 562.181C877.34 562.161 877.41 562.141 877.47 562.121C877.57 562.101 877.66 562.061 877.74 562.021C878.04 561.911 878.32 561.751 878.57 561.551C878.69 561.461 878.8 561.371 878.91 561.261C879.01 561.161 879.11 561.051 879.2 560.931C879.23 560.894 879.258 560.858 879.285 560.822C879.309 560.79 879.333 560.757 879.356 560.724C879.37 560.704 879.384 560.684 879.398 560.663C879.412 560.643 879.426 560.622 879.44 560.601C879.44 560.591 879.45 560.571 879.46 560.561C879.66 560.981 879.8 561.521 879.86 562.231C879.89 562.621 880.01 563.171 880.17 563.851C880.295 564.343 880.452 564.922 880.63 565.576L880.634 565.589L880.638 565.604L880.643 565.624C880.703 565.845 880.766 566.074 880.83 566.311C880.88 566.496 880.935 566.687 880.991 566.882L881.024 566.995L881.06 567.121C880.74 568.431 879.55 569.401 878.15 569.401H852.41C852.24 569.401 852.07 569.391 851.9 569.351C852.3 566.611 852.76 563.811 853.25 560.971C854.15 562.721 855.98 563.921 858.09 563.921C861.1 563.921 863.54 561.481 863.54 558.471C863.54 555.461 861.1 553.021 858.09 553.021C856.68 553.021 855.4 553.551 854.44 554.441C854.87 552.161 855.32 549.861 855.79 547.551ZM588.85 475.25L589.35 477.47C585.11 476.24 581.27 475.59 577.93 475.59C560.47 475.59 529.56 493.34 495.9 517.41H492.61C488.87 517.41 485.62 514.81 484.8 511.16L481.47 496.33V496.31L476.73 475.25H588.85ZM591.62 487.579C586.57 486.189 581.95 485.439 577.85 485.439C561.64 485.439 535.31 498.749 506.43 517.409H588.33C589.27 517.409 590.16 517.249 590.99 516.949C594.68 515.659 597.05 511.739 596.13 507.649L591.62 487.579ZM850.9 372.111L851.9 367.311L857.75 339.201L857.96 338.201L859.83 329.191C859.96 328.571 859.94 327.961 859.78 327.391C859.35 325.691 857.82 324.381 855.91 324.381H669.69C667.8 324.381 666.16 325.711 665.78 327.561L644.46 430.041C644.02 432.151 645.31 434.141 647.26 434.701C647.61 434.811 647.98 434.861 648.37 434.861H742.18L742.16 434.811H716.19L716.21 434.751L728.12 395.631C727.98 393.941 729.31 392.381 731.11 392.381H759.24C760.5 392.381 761.63 393.171 762.06 394.361L768.54 412.311V412.321L769.66 415.421L771.7 421.061L772.81 424.131L776.58 434.581L776.68 434.861H834.59C836.49 434.861 838.12 433.531 838.51 431.671L840.08 424.131L840.72 421.061L841.89 415.421L850.9 372.121V372.111ZM438.12 463.069H421.73L419.72 445.279H440.13L438.12 463.069ZM417.71 427.531H442.14L443.58 414.811H416.27L417.71 427.531ZM267.76 545.01H336.44V617.08H267.76V545.01ZM378.97 423.85H350V463.07H378.97V423.85ZM360.415 398.768L362.834 392.725L365.252 398.768H360.415ZM371.88 403.777L369.957 407.193L373.575 407.311L371.88 403.777ZM351.576 405.835L352.887 402.141L355.161 405.334L351.576 405.835Z" fill="#22a6b3"/>
<path d="M394.03 415.42V424.13H209.04V415.42H348.85L348.28 413.85L351.66 412.62L352.67 415.42H352.99L353.2 416.87L354.2 423.85H357.84L355.5 407.64L358.5 407.14L359.86 415.42H360.55L360.59 419.85L360.63 423.85H365.43L365.32 412.1H368.59V415.42H369.77L369.57 423.85H373.17L373.21 422.25L373.38 415.42H375.68L376.65 412.73L380.04 413.95L379.51 415.42H394.03Z" fill="#FF8366"/>
<path d="M437.859 437.687C438.57 433.306 435.595 429.178 431.214 428.467C426.832 427.756 422.704 430.732 421.993 435.113C421.282 439.494 424.258 443.622 428.639 444.333C433.02 445.044 437.148 442.069 437.859 437.687Z" fill="#FFF5EA"/>
</svg>