<svg class="illustration" width="1155" height="700" viewBox="0 0 1155 700" fill="none" xmlns="http://www.w3.org/2000/svg">
<rect width="800" height="600" transform="translate(178 50)" fill="white"/>
<path d="M978 50.1602H178V359.86H978V50.1602Z" fill="#FFFBF8"/>
<path fill-rule="evenodd" clip-rule="evenodd" d="M177.932 50H334.532V116.784H570.632V50H783.832V116.784H843.328V129.984H783.832V155.425H843.369V168.625H783.832V209.108V499.2V555H570.632V499.2H467.732V522.1H334.532V219.2H364.532V194H385.632V168.625H334.532V219.2V522.1V555H177.932V50ZM434.132 168.625V194H398.832V168.625H434.132ZM334.532 155.425H385.632V129.984H334.532V155.425ZM570.632 129.984H398.832V155.425H434.132V143.7H570.632V129.984ZM901.869 184.8H842.432V202.6H783.932L783.832 209.108V499.2H901.869V548.039H977.969V133.239H901.869V184.8Z" fill="#D8E6F0"/>
<path fill-rule="evenodd" clip-rule="evenodd" d="M364.328 193.973H437.828V219.172H467.528V522.072H334.428V219.172H364.328V193.973Z" fill="#C1D6E5"/>
<path fill-rule="evenodd" clip-rule="evenodd" d="M434.032 143.641H570.632V499.141H467.632V219.141H437.932V193.941H434.032V143.641Z" fill="#E0EBF3"/>
<path d="M843.431 168.325V155.125H783.752V168.325H843.431Z" fill="#C1D6E5"/>
<path d="M843.427 129.682V116.482L783.748 116.482V129.682L843.427 129.682Z" fill="#C1D6E5"/>
<path fill-rule="evenodd" clip-rule="evenodd" d="M570.613 129.966V116.766H334.428V129.966H385.694V155.442H334.428V168.642H385.694V193.97H398.894V168.642H570.613V155.442H398.894V129.966H570.613Z" fill="#C1D6E5"/>
<path fill-rule="evenodd" clip-rule="evenodd" d="M901.9 184.855H841.5V202.656H783.748L783.882 499.256H901.9V227.355V202.656V184.855ZM798.481 261.206H816.781V276.005H798.481V261.206ZM822.281 261.206H840.581V276.005H822.281V261.206ZM864.481 261.206H846.181V276.005H864.481V261.206ZM870.081 261.206H888.381V276.005H870.081V261.206ZM816.781 308.206H798.481V323.005H816.781V308.206ZM822.281 308.206H840.581V323.005H822.281V308.206ZM864.481 308.206H846.181V323.005H864.481V308.206ZM870.081 308.206H888.381V323.005H870.081V308.206ZM816.781 334.706H798.481V349.505H816.781V334.706ZM822.281 334.706H840.581V349.505H822.281V334.706ZM864.481 334.706H846.181V349.505H864.481V334.706ZM870.081 334.706H888.381V349.505H870.081V334.706ZM816.781 381.605H798.481V396.405H816.781V381.605ZM822.281 381.605H840.581V396.405H822.281V381.605ZM864.481 381.605H846.181V396.405H864.481V381.605ZM870.081 381.605H888.381V396.405H870.081V381.605ZM816.781 408.105H798.481V422.905H816.781V408.105ZM822.281 408.105H840.581V422.905H822.281V408.105ZM864.481 408.105H846.181V422.905H864.481V408.105ZM870.081 408.105H888.381V422.905H870.081V408.105Z" fill="white" fill-opacity="0.45"/>
<path fill-rule="evenodd" clip-rule="evenodd" d="M638.882 79.6758H612.482V100.976H638.882V79.6758ZM613.282 162.076H617.082V260.576H613.282V162.076ZM627.382 162.076H623.582V260.576H627.382V162.076ZM633.982 162.076H637.782V260.576H633.982V162.076ZM648.082 162.076H644.282V260.576H648.082V162.076ZM654.682 162.076H658.482V260.576H654.682V162.076ZM668.782 162.076H664.982V260.576H668.782V162.076ZM675.382 162.076H679.182V260.576H675.382V162.076ZM689.482 162.076H685.682V260.576H689.482V162.076ZM695.982 162.076H699.782V260.576H695.982V162.076ZM710.182 162.076H706.382V260.576H710.182V162.076ZM716.682 162.076H720.482V260.576H716.682V162.076ZM730.882 162.076H727.082V260.576H730.882V162.076ZM741.182 162.076H737.382V260.576H741.182V162.076ZM741.182 435.476H737.382V533.976H741.182V435.476ZM727.082 435.476H730.882V533.976H727.082V435.476ZM720.482 435.476H716.682V533.976H720.482V435.476ZM706.382 435.476H710.182V533.976H706.382V435.476ZM699.782 435.476H695.982V533.976H699.782V435.476ZM685.682 435.476H689.482V533.976H685.682V435.476ZM679.182 435.476H675.382V533.976H679.182V435.476ZM664.982 435.476H668.782V533.976H664.982V435.476ZM658.482 435.476H654.682V533.976H658.482V435.476ZM644.282 435.476H648.082V533.976H644.282V435.476ZM637.782 435.476H633.982V533.976H637.782V435.476ZM623.582 435.476H627.382V533.976H623.582V435.476ZM617.082 435.476H613.282V533.976H617.082V435.476ZM613.282 404.376H741.282V408.176H613.282V404.376ZM741.282 394.076H613.282V397.876H741.282V394.076ZM613.282 383.676H741.282V387.476H613.282V383.676ZM741.282 373.376H613.282V377.176H741.282V373.376ZM613.282 363.076H741.282V366.876H613.282V363.076ZM741.282 352.676H613.282V356.476H741.282V352.676ZM613.282 342.376H741.282V346.176H613.282V342.376ZM741.282 331.976H613.282V335.776H741.282V331.976ZM613.282 321.676H741.282V325.476H613.282V321.676ZM741.282 311.276H613.282V315.076H741.282V311.276ZM613.282 300.976H741.282V304.776H613.282V300.976ZM741.282 290.576H613.282V294.376H741.282V290.576ZM613.282 280.276H741.282V284.076H613.282V280.276ZM646.882 79.6758H673.282V100.976H646.882V79.6758ZM707.682 79.6758H681.282V100.976H707.682V79.6758ZM715.582 79.6758H741.982V100.976H715.582V79.6758ZM638.882 117.776H612.482V139.076H638.882V117.776ZM646.882 117.776H673.282V139.076H646.882V117.776ZM707.682 117.776H681.282V139.076H707.682V117.776ZM715.582 117.776H741.982V139.076H715.582V117.776Z" fill="#C1D6E5"/>
<path fill-rule="evenodd" clip-rule="evenodd" d="M200.032 95.4746H243.732V104.675H200.032V95.4746ZM200.032 122.975H243.732V132.175H200.032V122.975ZM243.732 150.475H200.032V159.675H243.732V150.475ZM200.032 177.875H243.732V187.075H200.032V177.875ZM243.732 205.375H200.032V214.575H243.732V205.375ZM200.032 232.774H243.732V241.974H200.032V232.774ZM243.732 260.274H200.032V269.474H243.732V260.274ZM200.032 287.674H243.732V296.874H200.032V287.674ZM243.732 315.174H200.032V324.374H243.732V315.174ZM200.032 342.574H243.732V351.774H200.032V342.574ZM243.732 370.074H200.032V379.274H243.732V370.074ZM268.732 95.4746H312.432V104.675H268.732V95.4746ZM312.432 122.975H268.732V132.175H312.432V122.975ZM268.732 150.475H312.432V159.675H268.732V150.475ZM312.432 177.875H268.732V187.075H312.432V177.875ZM268.732 205.375H312.432V214.575H268.732V205.375ZM312.432 232.774H268.732V241.974H312.432V232.774ZM268.732 260.274H312.432V269.474H268.732V260.274ZM312.332 340.074H308.632V379.274H312.332V340.074ZM298.632 340.074H302.332V379.274H298.632V340.074ZM292.432 340.074H288.732V379.274H292.432V340.074ZM278.832 340.074H282.532V379.274H278.832V340.074ZM272.532 340.074H268.832V379.274H272.532V340.074ZM308.632 287.674H312.332V324.374H308.632V287.674ZM302.332 287.674H298.632V324.374H302.332V287.674ZM288.732 287.674H292.432V324.374H288.732V287.674ZM282.532 287.674H278.832V324.374H282.532V287.674ZM268.832 287.674H272.532V324.374H268.832V287.674ZM312.432 407.475H200.032V533.975H312.432V407.475ZM263.03 440.829L269.697 438.387L271.914 444.439C274.197 444.087 276.563 444.168 278.888 444.73L281.628 438.821L288.069 441.808L285.332 447.71C287.29 449.136 288.902 450.915 290.117 452.914L296.202 450.685L298.645 457.351L292.55 459.584C292.903 461.868 292.822 464.236 292.261 466.562L298.169 469.302L295.182 475.743L289.28 473.006C287.863 474.951 286.099 476.554 284.117 477.766L286.348 483.856L279.681 486.299L277.453 480.217C275.155 480.578 272.77 480.5 270.428 479.935L267.73 485.754L261.289 482.767L263.984 476.954C262.038 475.536 260.434 473.771 259.221 471.787L253.175 474.002L250.733 467.335L256.772 465.122C256.407 462.794 256.493 460.376 257.079 458.005L251.279 455.314L254.266 448.873L260.096 451.577C261.513 449.654 263.271 448.07 265.243 446.871L263.03 440.829ZM269.147 474.216C262.583 471.173 259.73 463.384 262.774 456.821C265.817 450.257 273.606 447.404 280.169 450.448C286.733 453.491 289.586 461.28 286.542 467.843C283.499 474.407 275.71 477.26 269.147 474.216ZM226.707 492.768C221.674 489.268 220.431 482.351 223.931 477.318C227.431 472.285 234.348 471.042 239.381 474.542C244.414 478.042 245.657 484.959 242.158 489.992C238.658 495.025 231.74 496.268 226.707 492.768ZM217.464 469.02L221.856 472.074C223.416 470.564 225.235 469.417 227.187 468.657L226.234 463.356L232.336 462.26L233.288 467.556C235.373 467.585 237.467 468.019 239.447 468.88L242.508 464.478L247.598 468.018L244.555 472.394C246.101 473.971 247.272 475.818 248.045 477.803L253.34 476.851L254.436 482.953L249.144 483.905C249.113 486.02 248.666 488.145 247.779 490.15L252.164 493.199L248.625 498.29L244.233 495.236C242.671 496.749 240.849 497.896 238.892 498.657L239.827 503.859L233.725 504.956L232.79 499.754C230.677 499.723 228.553 499.276 226.549 498.39L223.5 502.775L218.41 499.235L221.464 494.844C219.952 493.283 218.805 491.462 218.044 489.508L212.739 490.461L211.642 484.359L216.945 483.406C216.976 481.291 217.423 479.165 218.31 477.16L213.925 474.11L217.464 469.02Z" fill="#C1D6E5"/>
<path fill-rule="evenodd" clip-rule="evenodd" d="M901.9 133.398H978V548.198H901.9V133.398ZM925.13 182.086H922.78V348.886H925.13V182.086ZM929.287 182.086H931.636V348.886H929.287V182.086ZM937.962 182.086H935.612V348.886H937.962V182.086ZM941.938 182.086H944.287V348.886H941.938V182.086ZM950.794 182.086H948.445V348.886H950.794V182.086ZM957.12 182.086H954.77V348.886H957.12V182.086ZM936.098 357.459H920.98V392.183H936.098V357.459ZM944.177 357.459H959.296V392.183H944.177V357.459ZM936.098 400.755H920.98V435.479H936.098V400.755ZM944.177 400.755H959.296V435.479H944.177V400.755ZM936.098 444.051H920.98V478.775H936.098V444.051ZM944.177 444.051H959.296V478.775H944.177V444.051ZM936.098 487.348H920.98V522.072H936.098V487.348ZM944.177 487.348H959.296V522.072H944.177V487.348Z" fill="white" fill-opacity="0.2"/>
<path d="M712.622 358.501C710.97 362.831 722.23 369.105 728.066 371.701L733.124 370.628L733.835 361.772L732.825 350.172C726.778 351.144 714.273 354.171 712.622 358.501Z" fill="#D69962"/>
<path d="M853.641 353.51L811.495 348.014C811.495 348.014 805.667 374.117 802.055 393.757C820.672 405.431 850.419 384.37 850.419 384.37L853.641 353.51Z" fill="#FFB877"/>
<path d="M808.256 364.994C806.338 369.591 801.274 370.516 801.548 371.929C801.822 373.343 805.163 375.452 805.163 375.452" stroke="#181818" stroke-width="1.78779" stroke-linecap="round"/>
<path d="M846.454 419.668C843.893 410.458 840.665 388.973 843.401 382.358L829.276 386.901C825.586 388.74 818.661 393.06 820.476 395.625C822.291 398.191 813.552 414.095 811.701 417.053L824.433 417.523C830.154 420.091 849.015 428.877 846.454 419.668Z" fill="#FFB877"/>
<path d="M829.61 395.475C829.61 395.475 822.877 396.414 820.555 396.831C820.784 398.603 816.428 407.933 815.466 410.245C815.466 410.245 826.672 399.221 829.61 395.475Z" fill="#174B88"/>
<path d="M810.468 381.523C809.953 382.636 807.663 384.871 803.889 384.117" stroke="#181818" stroke-width="1.78779"/>
<path fill-rule="evenodd" clip-rule="evenodd" d="M804.972 424.07C805.86 418.463 802.035 413.197 796.428 412.308L763.504 407.091L742.29 358.609C737.213 346.362 722.871 357.289 727.948 369.536L748.919 425.596L793.21 432.614C798.817 433.503 804.083 429.678 804.972 424.07Z" fill="#D69962"/>
<path d="M819.091 439.904L771.902 479.336L717.422 454.087" stroke="#FFB877" stroke-width="21.4535" stroke-linecap="round"/>
<rect x="644.749" y="160.234" width="45.4618" height="12.9925" fill="#13DCA0"/>
<path fill-rule="evenodd" clip-rule="evenodd" d="M868.897 600.422C907.497 599.429 933.241 597.643 933.241 595.606C933.241 592.486 872.897 589.957 798.46 589.957C746.376 589.957 701.191 591.195 678.751 593.007C645.872 592.802 610.52 592.691 573.705 592.691C398.369 592.691 256.232 595.22 256.232 598.339C256.232 601.459 398.369 603.988 573.705 603.988C707.696 603.988 822.3 602.511 868.897 600.422Z" fill="#181818" fill-opacity="0.2"/>
<rect x="488.363" y="313.266" width="216.15" height="142.538" fill="#393939"/>
<rect x="488.363" y="170.727" width="216.15" height="142.538" fill="black"/>
<path fill-rule="evenodd" clip-rule="evenodd" d="M588.618 339.594H601.192V350.493C605.551 351.342 609.6 353.057 613.154 355.451L620.863 347.742L629.754 356.633L622.045 364.342C624.439 367.895 626.154 371.945 627.003 376.304H637.902V388.878H627.003C626.154 393.237 624.439 397.286 622.045 400.84L629.753 408.549L620.862 417.44L613.153 409.731C609.6 412.125 605.55 413.84 601.192 414.689V425.588H588.618V414.689C584.259 413.84 580.21 412.125 576.656 409.731L568.947 417.44L560.056 408.549L567.765 400.84C565.371 397.286 563.656 393.237 562.807 388.878H551.908L551.908 376.304H562.807C563.656 371.945 565.371 367.895 567.765 364.342L560.056 356.633L568.947 347.742L576.656 355.451C580.21 353.057 584.259 351.342 588.618 350.493V339.594ZM594.905 405.459C607.535 405.459 617.773 395.221 617.773 382.591C617.773 369.961 607.535 359.722 594.905 359.722C582.275 359.722 572.036 369.961 572.036 382.591C572.036 395.221 582.275 405.459 594.905 405.459Z" fill="#CBCBCB"/>
<path fill-rule="evenodd" clip-rule="evenodd" d="M741.543 300.372C740.677 299.585 740.612 298.245 741.399 297.379L751.009 286.794C751.796 285.928 753.136 285.863 754.002 286.65L764.41 296.1L765.491 294.851C767.192 292.886 770.164 292.671 772.129 294.372C774.094 296.073 774.308 299.045 772.608 301.01L771.38 302.428L775.508 306.176C779.297 309.617 779.58 315.478 776.14 319.267C772.699 323.056 766.838 323.339 763.049 319.899L759.247 316.447L709.872 373.494C708.171 375.459 705.199 375.673 703.234 373.972C701.269 372.271 701.055 369.3 702.755 367.334L752.277 310.118L741.543 300.372ZM784.69 401.917L777.57 441.793L831.686 437.995L842.13 413.785L784.69 401.917ZM704.513 455.802H488.363V478.077H432.632L432.632 508.172H371.472L371.472 538.27H310.312V598.34L371.472 598.34H432.632L432.632 598.339H488.363V598.34H704.513V455.802ZM851.281 578.813C849.891 575.947 848.202 573.898 847.001 572.66C849.922 572.409 852.737 571.788 855.399 570.844C853.26 573.266 851.95 576.664 851.281 578.813ZM895.141 582.674C897.242 582.35 898.601 581.837 898.929 581.044C900.094 578.222 880.537 570.242 865.815 564.898C863.884 566.512 861.771 567.915 859.51 569.072C866.755 571.333 884.066 577.524 895.141 582.674Z" fill="#181818"/>
<path fill-rule="evenodd" clip-rule="evenodd" d="M741.567 300.401C740.701 299.615 740.636 298.275 741.423 297.409L751.034 286.823C751.82 285.957 753.16 285.892 754.026 286.679L764.435 296.129L765.516 294.88C767.216 292.915 770.188 292.701 772.154 294.401C774.119 296.102 774.333 299.074 772.632 301.039L771.405 302.458L775.533 306.206C779.322 309.646 779.605 315.507 776.164 319.296C772.724 323.086 766.863 323.368 763.074 319.928L759.272 316.476L709.896 373.523C708.195 375.488 705.224 375.703 703.258 374.002C701.293 372.301 701.079 369.329 702.78 367.364L752.302 310.147L741.567 300.401Z" fill="white" fill-opacity="0.09"/>
<path d="M744.636 340.628C744.636 340.628 744.891 356.179 740.818 358.29C737.62 356.22 731.725 351.238 733.728 347.867C736.233 343.654 737.572 341.721 733.096 337.389C729.516 333.924 730.456 329.832 731.302 328.799C732.886 328.572 744.636 340.628 744.636 340.628Z" fill="#D69962"/>
<path fill-rule="evenodd" clip-rule="evenodd" d="M410.417 224.72C409.487 219.62 412.867 214.732 417.967 213.802L446.727 198.657L484.072 158.802L488.147 170.833L459.666 208.766L421.334 232.27C416.235 233.2 411.347 229.819 410.417 224.72Z" fill="#D69962"/>
<path d="M447.466 226.397L431.151 204.643C416.234 206.818 403.181 215.649 398.52 219.793L413.67 247.374L447.466 226.397Z" fill="#E3E0E0"/>
<path d="M829.234 577.949L863.107 576.761" stroke="#D69962" stroke-width="11.6207" stroke-linecap="round"/>
<rect x="495.514" y="324.297" width="7.15118" height="13.745" fill="#DEDEDE"/>
<rect x="495.514" y="345.193" width="7.15118" height="13.745" fill="#DEDEDE"/>
<rect x="495.514" y="366.09" width="7.15118" height="13.745" fill="#DEDEDE"/>
<rect x="509.816" y="324.297" width="7.15118" height="13.745" fill="#DEDEDE"/>
<rect x="509.816" y="345.193" width="7.15118" height="13.745" fill="#DEDEDE"/>
<rect x="509.816" y="366.09" width="7.15118" height="13.745" fill="#DEDEDE"/>
<rect x="509.259" y="423.953" width="7.15118" height="13.745" transform="rotate(90 509.259 423.953)" fill="#13DCA0"/>
<rect x="674.628" y="502.043" width="7.15118" height="156.381" transform="rotate(90 674.628 502.043)" fill="#13DCA0"/>
<rect x="674.628" y="516.346" width="7.15118" height="156.381" transform="rotate(90 674.628 516.346)" fill="#13DCA0"/>
<rect x="674.628" y="530.648" width="7.15118" height="156.381" transform="rotate(90 674.628 530.648)" fill="#13DCA0"/>
<rect x="674.628" y="544.949" width="7.15118" height="156.381" transform="rotate(90 674.628 544.949)" fill="#13DCA0"/>
<rect x="674.628" y="263.207" width="7.15118" height="156.381" transform="rotate(90 674.628 263.207)" fill="#F8F8F8"/>
<path d="M829.339 587.576L867.273 586.19" stroke="#FFB877" stroke-width="11.6207" stroke-linecap="round"/>
<rect x="674.628" y="277.508" width="7.15118" height="156.381" transform="rotate(90 674.628 277.508)" fill="#F8F8F8"/>
<rect x="674.628" y="291.812" width="7.15118" height="156.381" transform="rotate(90 674.628 291.812)" fill="#F8F8F8"/>
<circle cx="685.962" cy="324.665" r="4.24851" fill="#13DCA0"/>
<circle cx="654.666" cy="324.665" r="4.24851" fill="#DEDEDE"/>
<rect x="649.324" y="422.211" width="40.8868" height="23.1964" fill="#CBCBCB"/>
<path d="M538.776 204.068L550.857 211.043V224.993L538.776 231.968L526.696 224.993V211.043L538.776 204.068Z" fill="#13DCA0"/>
<path d="M596.438 204.068L608.518 211.043V224.993L596.438 231.968L584.357 224.993V211.043L596.438 204.068Z" fill="#F8F8F8"/>
<path d="M654.099 204.068L666.18 211.043V224.993L654.099 231.968L642.018 224.993V211.043L654.099 204.068Z" fill="#F8F8F8"/>
<path d="M715.517 421.461C720.649 433.213 722.547 446.44 719.133 458.957C716.848 467.334 710.789 462.159 704.517 459.469C704.634 440.94 704.315 425.599 704.431 407.18C705.988 407.044 710.385 409.71 715.517 421.461Z" fill="#FFB877"/>
<path d="M514.908 160.486C506.095 155.716 496.156 153.901 486.726 156.956C480.415 159.001 484.332 164.964 486.325 170.727L525.596 170.727C525.706 169.301 523.722 165.256 514.908 160.486Z" fill="#D69962"/>
<path d="M743.312 343.494C743.977 345.736 743.895 356.426 743.184 360.411L728.185 354.681L733.979 340.537C736.813 340.588 742.648 341.251 743.312 343.494Z" fill="#D69962"/>
<path d="M390.192 470.431L384.615 494.544" stroke="#D69962" stroke-width="11.6207" stroke-linecap="round"/>
<path d="M448.036 440.065L441.384 463.347" stroke="#FFB877" stroke-width="11.6207" stroke-linecap="round"/>
<path d="M393.973 154.776L434.828 156.595C434.828 156.595 428.182 177.82 427.704 195.507C409.423 202.204 390.743 174.67 390.743 174.67L393.973 154.776Z" fill="#FFB877"/>
<path d="M429.912 172.061C429.736 176.47 433.459 179.104 432.711 180.138C431.963 181.171 428.491 181.618 428.491 181.618" stroke="#181818" stroke-width="1.58398" stroke-linecap="round"/>
<path fill-rule="evenodd" clip-rule="evenodd" d="M670.314 328.913C672.66 328.913 674.562 327.011 674.562 324.665C674.562 322.318 672.66 320.416 670.314 320.416C667.967 320.416 666.065 322.318 666.065 324.665C666.065 327.011 667.967 328.913 670.314 328.913ZM509.259 445.408V438.256H495.514V445.408H509.259Z" fill="#0295FF"/>
<rect x="704.516" y="299.65" width="17.8597" height="16.0037" fill="black"/>
<path d="M381.854 213.552C385.766 206.041 397.162 201.627 395.609 181.415L407.018 187.947C409.878 190.219 413.141 192.094 411.096 193.984C409.052 195.875 415.65 214.407 416.711 217.311L405.589 215.379C400.159 216.553 377.942 221.064 381.854 213.552Z" fill="#FFB877"/>
<path fill-rule="evenodd" clip-rule="evenodd" d="M404.765 133.941C404.782 135.37 404.478 136.821 403.923 138.205C407.188 137.173 412.037 136.147 419.076 135.258C439.987 132.62 439.648 156.832 436.864 169.268L414.385 165.791C414.4 167.038 413.491 169.28 409.74 168.276C407.875 167.778 405.975 166.748 404.175 165.772C401.448 164.293 398.952 162.94 397.159 163.749C395.934 164.303 396.443 166.802 397.079 169.921C397.988 174.375 399.154 180.093 395.891 183.21C392.236 186.702 388.658 182.888 385.298 179.307C383.559 177.453 381.878 175.662 380.275 174.979C375.577 172.977 370.823 148.351 381.458 148.227C382.134 148.219 382.769 148.191 383.368 148.147C378.703 146.472 375.498 141.469 375.453 137.65C375.381 131.546 383.022 123.725 389.126 123.653C395.23 123.582 404.694 127.837 404.765 133.941ZM426.862 324.282L371.302 326.592L371.975 335.963C372.472 342.896 375.584 347.63 380.031 350.974C379.518 350.588 379.023 350.184 378.547 349.76L378.605 350.269C378.737 351.442 378.925 353.148 379.152 355.268C379.607 359.512 380.212 365.399 380.817 371.974C382.042 385.285 383.211 400.857 383.211 411.401C383.211 421.443 381.418 435.085 379.477 446.74C378.526 452.456 377.573 457.497 376.858 461.105C376.502 462.907 376.205 464.346 376 465.327C375.898 465.817 375.818 466.192 375.765 466.44C375.738 466.564 375.718 466.656 375.706 466.715L375.689 466.791C373.969 474.661 379.437 482.338 387.903 483.938C396.369 485.538 404.628 480.455 406.349 472.584L391.051 469.693C406.349 472.584 406.349 472.582 406.349 472.582L406.377 472.453L406.404 472.329C406.417 472.269 406.432 472.199 406.449 472.119C406.511 471.831 406.599 471.415 406.711 470.881C406.934 469.814 407.25 468.278 407.628 466.37C408.383 462.558 409.388 457.238 410.396 451.189C412.373 439.314 414.497 423.813 414.497 411.401C414.497 399.492 413.216 382.818 411.99 369.496C411.635 365.645 411.281 362.028 410.956 358.825C410.021 358.937 409.085 359.021 408.154 359.074C410.448 358.945 412.779 358.617 415.026 358.182C418.329 358.65 421.846 359.263 425.31 360.059C431.92 361.58 437.084 363.497 440.215 365.508C440.999 366.012 441.48 366.396 441.764 366.656C441.657 377.272 439.673 392.631 437.5 406.194C436.409 413.002 435.316 419.085 434.496 423.465C434.086 425.652 433.746 427.408 433.51 428.608C433.392 429.209 433.3 429.67 433.238 429.976L433.213 430.101L433.169 430.319L433.15 430.416L433.149 430.417L433.149 430.418C431.321 439.366 437.091 448.102 446.039 449.931C454.987 451.76 463.724 445.989 465.553 437.041L449.873 433.836C465.553 437.041 465.554 437.039 465.554 437.039L465.585 436.887C465.604 436.794 465.631 436.659 465.666 436.486C465.735 436.139 465.836 435.636 465.962 434.991C466.216 433.703 466.575 431.848 467.005 429.551C467.864 424.964 469.01 418.588 470.157 411.427C472.4 397.431 474.842 379.295 474.842 365.777C474.842 351.864 466.054 342.796 458.091 337.681C450.239 332.637 440.758 329.675 432.724 327.827C430.935 327.415 429.155 327.045 427.403 326.712C427.226 325.784 427.045 324.963 426.862 324.282ZM442.122 367.063C442.112 367.063 442.063 367.008 442.004 366.896C442.103 367.006 442.132 367.062 442.122 367.063ZM435.023 459.775C435.023 459.775 442.883 466.437 447.74 459.775C454.62 462.982 463.115 465.466 470.449 467.61L469.188 467.241C478.392 469.931 487.029 472.456 487.085 474.838C487.186 479.117 445.616 478.206 435.867 477.397C431.785 472.944 435.023 459.775 435.023 459.775ZM390.91 489.91C386.053 496.573 378.193 489.91 378.193 489.91C378.193 489.91 374.955 503.08 379.037 507.532C388.786 508.341 430.356 509.252 430.255 504.973C430.199 502.592 422.824 500.436 413.619 497.745C406.286 495.601 397.79 493.118 390.91 489.91Z" fill="#ffffff"/>
<path d="M404.036 190.871C404.036 190.871 409.402 192.97 411.338 193.759C410.815 195.252 412.505 203.849 412.913 206.03C412.913 206.03 405.894 194.658 404.036 190.871Z" fill="#181818"/>
<path d="M423.295 183.861C423.427 184.974 424.773 187.554 428.232 187.938" stroke="#181818" stroke-width="1.58398"/>
<path fill-rule="evenodd" clip-rule="evenodd" d="M378.547 349.76C378.565 349.916 378.584 350.086 378.605 350.269C378.736 351.442 378.925 353.148 379.152 355.268C379.607 359.511 380.212 365.399 380.817 371.974C382.042 385.284 383.211 400.857 383.211 411.401C383.211 421.442 381.418 435.085 379.477 446.74C378.526 452.456 377.573 457.497 376.858 461.105C376.502 462.907 376.205 464.346 376 465.326C375.898 465.816 375.818 466.191 375.765 466.44C375.738 466.564 375.718 466.656 375.706 466.715L375.689 466.791L375.689 466.792C373.969 474.662 379.437 482.338 387.903 483.938C396.369 485.538 404.628 480.454 406.349 472.584L391.019 469.687C406.349 472.584 406.349 472.583 406.349 472.582L406.377 472.453C406.394 472.375 406.418 472.263 406.449 472.119C406.51 471.831 406.599 471.415 406.711 470.881C406.934 469.814 407.25 468.278 407.628 466.37C408.383 462.558 409.388 457.237 410.396 451.188C412.373 439.314 414.497 423.813 414.497 411.401C414.497 399.491 413.216 382.818 411.99 369.495C411.635 365.645 411.281 362.028 410.956 358.825C407.565 359.23 404.15 359.284 401.094 358.698C393.011 357.147 384.323 354.909 378.547 349.76ZM378.193 489.91C378.193 489.91 386.053 496.572 390.91 489.91C397.79 493.117 406.286 495.601 413.619 497.745L413.619 497.745C422.824 500.436 430.199 502.591 430.255 504.973C430.356 509.252 388.786 508.341 379.037 507.532C374.955 503.08 378.193 489.91 378.193 489.91Z" fill="black" fill-opacity="0.33"/>
<path d="M419.713 213.102C412.569 208.492 383.185 204.852 383.185 204.852C383.185 204.852 370.183 214.252 369.382 229.295C367.76 259.731 363.779 312.672 363.906 326.9L431.61 324.084L428.959 256.687C426.814 227.951 419.713 213.102 419.713 213.102Z" fill="#F8F8F8"/>
<path d="M416.222 206.882C410.507 201.144 398.065 201.116 387.302 198.483C385.483 198.035 379.501 207.805 382.88 206.433C386.259 205.061 418.75 216.284 418.649 214.701C418.548 213.119 421.659 212.342 416.222 206.882Z" fill="white"/>
<path d="M393.227 243.101L395.016 248.066L389.822 247.133L393.227 243.101Z" fill="#559ED2"/>
<path d="M485.149 277.188C482.349 277.307 473.629 286.537 470.987 288.428L487.397 290.815C487.397 290.815 488.052 285.804 489.367 284.141C490.453 282.768 493.545 280.418 493.545 280.418C493.545 280.418 498.814 283.401 501.533 279.257C501.533 279.257 495.085 275.602 494.359 275.736C491.513 276.263 488.115 277.062 485.149 277.188Z" fill="#FFB877"/>
<path d="M507.513 289.855C508.214 288.686 502.871 283.979 500.111 281.771L495.826 284.791L493.294 293.848C497.741 293.004 506.812 291.024 507.513 289.855Z" fill="#D69962"/>
<path d="M414.611 279.959L419.062 279.186" stroke="#4F7793" stroke-width="0.893897" stroke-linecap="round"/>
<path d="M414.224 277.732L418.676 276.96" stroke="#4F7793" stroke-width="0.893897" stroke-linecap="round"/>
<path d="M395.836 260.113L400.288 259.341" stroke="#4F7793" stroke-width="0.893897" stroke-linecap="round"/>
<path d="M395.45 257.887L399.901 257.114" stroke="#4F7793" stroke-width="0.893897" stroke-linecap="round"/>
<path fill-rule="evenodd" clip-rule="evenodd" d="M382.575 228.862L400.161 222.297L422.754 282.815L475.319 288.616C485.652 289.555 479.793 305.229 470.458 304.38L409.297 300.441L382.575 228.862Z" fill="#FFB877"/>
<path d="M409.895 225.055C407.759 216.938 399.448 212.09 391.332 214.226C383.216 216.362 378.367 224.673 380.503 232.789L409.895 225.055ZM380.503 232.789L393.512 282.226L422.904 274.492L409.895 225.055L380.503 232.789Z" fill="#F3F2F2"/>
<path d="M406.118 247.393L406.683 251.875" stroke="#4F7793" stroke-width="0.893897" stroke-linecap="round"/>
<path d="M408.36 247.111L408.924 251.594" stroke="#4F7793" stroke-width="0.893897" stroke-linecap="round"/>
<path fill-rule="evenodd" clip-rule="evenodd" d="M434.455 218.995C434.273 218.829 433.99 218.842 433.824 219.025C433.658 219.208 433.671 219.49 433.854 219.656L436.06 221.664C436.243 221.831 436.526 221.817 436.692 221.635C436.858 221.452 436.845 221.169 436.662 221.003L434.455 218.995ZM432.82 220.128C432.986 219.946 433.269 219.932 433.451 220.098L435.658 222.107C435.841 222.273 435.854 222.555 435.688 222.738C435.522 222.92 435.239 222.934 435.056 222.768L432.85 220.76C432.667 220.593 432.654 220.311 432.82 220.128ZM420.545 246.693C420.349 246.543 420.068 246.58 419.918 246.776C419.768 246.972 419.806 247.253 420.002 247.403L423.59 250.148C423.786 250.298 424.066 250.261 424.216 250.065C424.366 249.869 424.329 249.588 424.133 249.438L420.545 246.693ZM418.545 248.57C418.695 248.374 418.976 248.337 419.172 248.487L422.76 251.232C422.956 251.382 422.993 251.663 422.843 251.859C422.693 252.055 422.413 252.092 422.217 251.942L418.629 249.197C418.433 249.047 418.395 248.766 418.545 248.57ZM384.115 283.309C383.899 283.19 383.627 283.269 383.508 283.485C383.389 283.701 383.467 283.973 383.683 284.092L387.639 286.275C387.855 286.394 388.127 286.316 388.246 286.1C388.366 285.883 388.287 285.612 388.071 285.492L384.115 283.309ZM383.024 285.287C382.808 285.168 382.536 285.247 382.417 285.463C382.297 285.679 382.376 285.951 382.592 286.07L386.548 288.253C386.764 288.372 387.036 288.294 387.155 288.077C387.274 287.861 387.196 287.589 386.979 287.47L383.024 285.287ZM398.504 318.663C398.462 318.419 398.625 318.188 398.868 318.146L403.32 317.373C403.563 317.331 403.794 317.494 403.836 317.737C403.879 317.98 403.716 318.211 403.472 318.254L399.021 319.026C398.778 319.069 398.546 318.906 398.504 318.663ZM398.482 315.92C398.239 315.962 398.076 316.194 398.118 316.437C398.16 316.68 398.391 316.843 398.635 316.801L403.086 316.028C403.329 315.986 403.492 315.754 403.45 315.511C403.408 315.268 403.176 315.105 402.933 315.147L398.482 315.92ZM420.538 320.915C420.496 320.672 420.659 320.441 420.902 320.399L425.354 319.626C425.597 319.584 425.828 319.747 425.87 319.99C425.913 320.233 425.75 320.464 425.506 320.507L421.055 321.279C420.812 321.322 420.58 321.159 420.538 320.915ZM420.516 318.173C420.273 318.215 420.11 318.446 420.152 318.69C420.194 318.933 420.425 319.096 420.669 319.054L425.12 318.281C425.363 318.239 425.526 318.007 425.484 317.764C425.442 317.521 425.21 317.358 424.967 317.4L420.516 318.173ZM369.555 277.256C369.513 277.013 369.676 276.781 369.919 276.739L374.37 275.966C374.613 275.924 374.845 276.087 374.887 276.33C374.929 276.573 374.766 276.805 374.523 276.847L370.072 277.62C369.829 277.662 369.597 277.499 369.555 277.256ZM369.533 274.513C369.289 274.555 369.126 274.787 369.169 275.03C369.211 275.273 369.442 275.436 369.685 275.394L374.137 274.621C374.38 274.579 374.543 274.348 374.501 274.104C374.459 273.861 374.227 273.698 373.984 273.741L369.533 274.513ZM373.328 244.231C373.494 244.048 373.777 244.035 373.959 244.201L377.301 247.242C377.484 247.408 377.497 247.69 377.331 247.873C377.165 248.056 376.882 248.069 376.699 247.903L373.358 244.862C373.175 244.696 373.162 244.413 373.328 244.231ZM375.48 242.53C375.297 242.364 375.015 242.377 374.848 242.56C374.682 242.743 374.696 243.025 374.878 243.191L378.22 246.232C378.402 246.398 378.685 246.385 378.851 246.202C379.017 246.02 379.004 245.737 378.821 245.571L375.48 242.53ZM370.773 309.205C370.731 308.962 370.894 308.731 371.137 308.689L375.589 307.916C375.832 307.874 376.063 308.037 376.105 308.28C376.148 308.523 375.985 308.754 375.741 308.797L371.29 309.569C371.047 309.612 370.816 309.449 370.773 309.205ZM370.751 306.463C370.508 306.505 370.345 306.736 370.387 306.98C370.429 307.223 370.661 307.386 370.904 307.344L375.355 306.571C375.598 306.529 375.761 306.297 375.719 306.054C375.677 305.811 375.446 305.648 375.202 305.69L370.751 306.463ZM397.422 266.305C397.658 266.375 397.793 266.624 397.722 266.861L396.432 271.19C396.361 271.427 396.112 271.561 395.876 271.491C395.639 271.42 395.505 271.172 395.575 270.935L396.866 266.605C396.936 266.369 397.185 266.234 397.422 266.305ZM399.887 267.506C399.958 267.269 399.823 267.02 399.586 266.95C399.35 266.879 399.101 267.014 399.03 267.251L397.74 271.58C397.669 271.817 397.804 272.066 398.041 272.136C398.277 272.207 398.526 272.072 398.597 271.836L399.887 267.506ZM404.854 231.966C405.091 232.036 405.225 232.285 405.155 232.522L403.864 236.852C403.794 237.088 403.545 237.223 403.308 237.152C403.072 237.082 402.937 236.833 403.008 236.596L404.298 232.266C404.369 232.03 404.617 231.895 404.854 231.966ZM407.32 233.167C407.39 232.931 407.255 232.682 407.019 232.611C406.782 232.541 406.533 232.675 406.463 232.912L405.172 237.242C405.102 237.478 405.237 237.727 405.473 237.798C405.71 237.868 405.959 237.733 406.029 237.497L407.32 233.167ZM386.83 227.65C387.075 227.62 387.299 227.793 387.329 228.038L387.894 232.521C387.925 232.766 387.751 232.989 387.506 233.02C387.261 233.051 387.038 232.877 387.007 232.632L386.443 228.15C386.412 227.905 386.585 227.681 386.83 227.65ZM389.571 227.756C389.54 227.511 389.316 227.337 389.071 227.368C388.826 227.399 388.653 227.623 388.684 227.868L389.248 232.35C389.279 232.595 389.503 232.769 389.747 232.738C389.992 232.707 390.166 232.483 390.135 232.238L389.571 227.756Z" fill="#363636"/>
<path fill-rule="evenodd" clip-rule="evenodd" d="M534.552 194.217C535.563 193.763 536.752 194.218 537.2 195.232L540.378 202.414C540.823 203.418 540.374 204.594 539.372 205.046L528.834 209.803C528.143 210.115 527.687 210.792 527.659 211.55L527.199 223.746C527.173 224.435 527.503 225.088 528.073 225.476L537.463 231.861C538.1 232.294 538.929 232.323 539.594 231.935L549.34 226.259C549.947 225.905 550.324 225.26 550.334 224.558L550.497 212.64C550.512 211.513 551.455 210.622 552.581 210.669L560.509 211.005C561.571 211.05 562.412 211.917 562.425 212.98L562.647 232.238C562.655 232.991 562.241 233.684 561.574 234.033L536.36 247.222C535.706 247.563 534.918 247.518 534.308 247.103L513.584 233.011C512.956 232.583 512.624 231.836 512.728 231.083L516.57 203.323C516.664 202.64 517.103 202.055 517.732 201.772L534.552 194.217Z" fill="#2A71C4"/>
<path fill-rule="evenodd" clip-rule="evenodd" d="M430.912 346.627C430.862 347.735 431.722 348.672 432.83 348.717L440.677 349.033C441.774 349.077 442.702 348.227 442.755 347.129L443.305 335.581C443.341 334.823 443.803 334.15 444.498 333.845L455.671 328.934C456.301 328.657 457.03 328.724 457.6 329.111L466.99 335.496C467.627 335.93 467.959 336.69 467.843 337.451L466.147 348.602C466.041 349.296 465.579 349.884 464.93 350.15L453.907 354.683C452.864 355.112 452.382 356.316 452.84 357.346L456.066 364.596C456.499 365.567 457.615 366.03 458.607 365.651L476.599 358.778C477.302 358.509 477.795 357.869 477.874 357.12L480.87 328.824C480.948 328.09 480.616 327.374 480.006 326.959L459.282 312.867C458.653 312.439 457.836 312.405 457.174 312.779L432.77 326.557C432.17 326.896 431.787 327.519 431.755 328.207L430.912 346.627Z" fill="#2A71C4"/>
<path fill-rule="evenodd" clip-rule="evenodd" d="M460.261 319.812L521.113 231.718L533.616 240.355L472.764 328.449L460.261 319.812Z" fill="#2A71C4"/>
<rect x="517.839" y="243.021" width="7.1143" height="86.4935" rx="3.55715" transform="rotate(34.2159 517.839 243.021)" fill="#1B569B"/>
<path d="M469.73 288.009L466.608 303.462C475.124 305.78 485.83 309.21 494.534 303.462C497.105 301.764 506.176 297.326 507.777 292.202C509.196 287.662 505.353 286.837 501.274 286.996C490.619 287.412 484.731 281.99 478.986 283.122C470.22 288.448 469.73 288.009 469.73 288.009Z" fill="#FFB877"/>
<path fill-rule="evenodd" clip-rule="evenodd" d="M430.063 211.454L428.649 207.529L425.957 210.716L430.063 211.454ZM384.794 209.039L386.583 214.004L381.389 213.071L384.794 209.039ZM419.704 233.092L417.915 228.128L414.51 232.159L419.704 233.092ZM371.778 235.258L376.294 232.528L371.671 229.982L371.778 235.258ZM372.863 258.277L378.131 263.695L370.804 265.548L372.863 258.277ZM389.255 301.22L395.517 305.451L388.722 308.759L389.255 301.22ZM372.709 292.514L374.498 297.479L369.304 296.546L372.709 292.514ZM428.576 275.221L426.787 270.256L423.382 274.287L428.576 275.221ZM375.169 319.142L376.958 324.107L371.764 323.174L375.169 319.142ZM403.223 294.86L406.179 292.09L407.723 296.225L403.223 294.86ZM419.689 304.771L424.793 306.114L421.078 309.862L419.689 304.771ZM429.24 228.275L430.654 232.199L426.548 231.462L429.24 228.275ZM389.972 275.985L391.624 275.05L392.217 277.306L389.972 275.985ZM398.984 245.496L395.124 241.738L400.309 240.274L398.984 245.496ZM415.068 265.298L418.766 261.533L413.656 260.214L415.068 265.298ZM398.9 256.761L395.203 260.526L393.791 255.441L398.9 256.761ZM398.251 223.806L399.509 218.681L394.441 220.154L398.251 223.806Z" fill="#3E3E3E"/>
<path fill-rule="evenodd" clip-rule="evenodd" d="M431.739 478.078H488.29V598.34H431.739V598.34H370.579L370.579 598.341H309.419V538.271H370.579V508.172H431.739V478.078Z" fill="white" fill-opacity="0.07"/>
<path d="M849.898 409.956C882.926 451.536 879.387 526.718 878.596 538.829L806.296 525.862L808.81 478.347L796.741 487.734L780.202 451.974C780.202 451.974 785.104 440.035 811.939 409.956C837.418 403.232 841.984 399.993 849.898 409.956Z" fill="#4683CC"/>
<path d="M784.742 401.86L777.621 441.735L786.851 441.069C786.851 441.069 797.205 426.886 799.957 423.022C802.71 419.158 808.11 411.641 808.11 411.641L816.262 408.359L784.742 401.86Z" fill="#181818"/>
<path d="M728.285 331.53C738.631 341.526 733.87 335.231 738.927 349.021C740.591 353.558 725.206 362.984 725.206 362.984C713.03 361.828 708.571 353.635 708.571 353.635C708.571 353.635 721.844 325.305 728.285 331.53Z" fill="#D69962"/>
<path fill-rule="evenodd" clip-rule="evenodd" d="M836.115 358.48L825.587 357.438C816.024 356.041 810.782 351.861 810.782 351.861C807.996 343.875 802.658 324.491 810.772 319.839C812.561 318.813 814.234 318.735 815.775 319.323C816.692 317.485 817.776 315.974 819.058 314.956C828.297 307.617 836.294 311.633 842.822 319.094C845.226 315.52 848.085 313.174 851.103 314.351C857.153 316.711 859.486 337.329 859.428 349.479C859.709 350.429 859.781 351.043 859.569 351.185C863.424 350.661 870.298 351.765 866.959 360.37C862.786 371.126 860.258 386.685 859.105 395.396C858.046 403.404 847.746 398.283 844.066 396.453C843.743 396.292 843.471 396.157 843.261 396.058C840.652 394.833 834.708 391.794 837.617 386.68C838.691 384.792 840.859 382.829 843.037 380.857C846.759 377.487 850.51 374.091 848.88 370.997C846.296 366.093 841.032 369.466 839.091 373.835L831.953 371.199C834.682 367.296 837.67 361.264 836.115 358.48ZM878.018 538.819L806.007 525.244V528.587C772.346 529.665 729.797 539.927 728.414 554.219C725.037 562.663 725.591 572.254 731.463 580.223C754.035 596.456 788.278 598.371 812.301 597.338C816.554 597.156 820.13 596.939 822.659 596.766C823.925 596.68 824.933 596.605 825.636 596.55C825.987 596.522 826.263 596.5 826.457 596.484L826.686 596.465L826.784 596.456C826.787 596.456 826.789 596.456 825.144 577.489L826.789 596.456C837.364 595.538 845.192 586.222 844.275 575.648C844.19 574.669 844.033 573.714 843.81 572.787H844.05C848.03 572.787 851.85 572.103 855.399 570.845C852.04 574.646 850.727 580.856 850.727 580.856C850.727 580.856 857.693 584.306 859.829 592.27C865.954 591.85 873.287 591.88 880.25 591.909H880.251C892.703 591.96 903.971 592.006 905.018 589.468C906.582 585.681 870.807 572.598 859.51 569.073C870.498 563.447 878.018 552.011 878.018 538.819ZM763.485 569.572C763.473 569.584 763.467 569.59 763.467 569.59C763.467 569.59 763.468 569.588 763.472 569.585C763.475 569.582 763.479 569.577 763.485 569.572ZM760.26 555.337C760.257 555.338 760.298 555.365 760.391 555.412C760.309 555.36 760.263 555.336 760.26 555.337Z" fill="#22a6b3"/>
<path d="M453.116 469.001L461.73 460.387" stroke="#13DCA0" stroke-width="2.68169" stroke-linecap="round"/>
<path d="M461.73 470.112L470.344 461.498" stroke="#13DCA0" stroke-width="2.68169" stroke-linecap="round"/>
<path d="M396.286 499.138L404.9 490.523" stroke="#13DCA0" stroke-width="2.68169" stroke-linecap="round"/>
<path d="M404.9 500.247L413.514 491.633" stroke="#13DCA0" stroke-width="2.68169" stroke-linecap="round"/>
<path d="M842.962 572.963C804.282 570.505 783.066 569.212 749.82 561.695" stroke="black" stroke-width="0.893897" stroke-linecap="round"/>
</svg>