<svg class="illustration" width="1152" height="700" viewBox="0 0 1152 700" fill="none" xmlns="http://www.w3.org/2000/svg">
<path d="M297.663 296.338C254.683 346.321 228.378 379.473 214.019 431.393C193.111 527.333 294.873 588.895 366.743 548.102C438.612 507.309 386.58 462.399 501.745 434.229C623.982 404.329 632.913 235.563 555.44 196.149C477.967 156.736 338.713 248.599 297.663 296.338Z" fill="#ECE6E6"/>
<path d="M303.456 281.29C295.639 283.509 289.36 297.051 287.198 303.545C285.812 305.683 282.766 308.552 281.678 302.926C280.317 295.893 273.908 287.864 269.284 286.915C268.146 291.947 267.106 302.495 272.049 304.425C278.229 306.839 284.304 317.84 277.371 314.482C270.438 311.124 268.041 301.826 251.996 303.035C253.192 308.043 258.76 319.446 271.461 324.999C287.337 331.941 284.183 341.907 275.742 336.66C267.301 331.412 259.713 322.391 244.565 323.271C245.69 329.847 250.366 343.616 260.065 346.08C272.189 349.161 291.528 356.921 287.984 361.683C284.44 366.445 263.978 349.529 254.163 348.858C246.312 348.321 240.856 348.655 239.11 348.889C240.377 355.481 246.799 369.274 262.349 371.707C281.788 374.748 299.667 380.194 293.856 385.992C288.046 391.79 275.275 375.307 258.996 374.77C245.972 374.341 243.375 376.027 243.704 376.924C245.24 382.4 252.906 393.781 271.289 395.5C294.268 397.648 302.757 402.471 299.165 407.658C295.573 412.845 280.493 393.953 253.823 401.71C256.349 407.296 264.469 418.728 276.737 419.761C292.072 421.052 314.293 426.125 310.462 433.435C306.632 440.746 289.992 424.258 274.323 425.94C261.789 427.285 261.769 427.971 263.326 428.146C263.918 433.086 268.236 443.403 280.767 445.153C296.432 447.341 325.59 451.903 323.22 461.527C320.85 471.151 309.445 457.831 299.162 453.667C290.936 450.336 278.37 451.191 273.115 452.034C275.626 457.763 283.204 469.42 293.434 470.224C306.221 471.229 335.752 480.133 335.085 486.078C334.418 492.023 321.401 485.403 313.995 482.422C306.59 479.441 295.553 474.332 284.885 477.435C285.272 482.925 289.784 494.325 304.731 496.002C323.416 498.099 339.648 499.06 338.79 506.704C337.933 514.348 332 502.072 317.276 503C305.497 503.742 299.782 505.623 298.397 506.471C300.201 510.83 306.405 519.41 316.787 518.855C329.765 518.161 349.112 518.182 347.5 524.881C345.889 531.58 334.527 521.705 327.542 522.642C321.954 523.391 315.271 524.705 312.627 525.268C313.566 529.673 320.768 537.791 342.063 535.021C345.948 534.884 353.369 535.43 351.968 538.713C350.218 542.816 335.455 536.43 330.402 539.303C330.966 541.946 333.839 546.998 340.824 546.062C347.809 545.126 357.257 550.343 361.108 553.068C361.349 551.089 362.431 546.337 364.827 543.166C365.985 539.771 368.406 535.716 372.408 532.836C382.231 525.769 383.66 513.029 380.688 512.696C377.715 512.362 369.534 527.784 366.185 526.978C362.836 526.172 368.555 517.354 374.886 510.754C379.95 505.475 380.505 492.608 380.15 486.835C377.111 489.648 370.597 496.857 368.854 503.198L368.727 503.66C366.614 511.349 365.078 516.939 361.054 515.222C356.951 513.472 364.469 500.126 371.653 489.752C377.4 481.453 376.144 467.609 374.798 461.725C372.546 463.909 367.23 469.389 363.978 473.841C359.914 479.404 357.96 496.815 354.047 493.366C350.134 489.917 361.053 473.082 369.091 458.934C375.521 447.616 371.602 435.28 368.839 430.526C366.037 432.505 360.402 438.265 360.281 445.476C360.13 454.489 352.79 477.745 347.274 473.256C341.758 468.767 357.265 441.697 361.052 430.942C364.082 422.338 360.035 411.908 357.633 407.769C353.854 410.785 350.639 416.444 348.035 424.322C345.431 432.199 340.735 454.892 334.183 448.137C327.631 441.382 344.36 418.749 351.544 408.376C357.292 400.077 354.903 386.106 352.991 380.158C349.78 381.948 339.953 392.885 337.821 400.386C335.689 407.886 328.731 427.745 324.398 420.379C320.064 413.013 337.877 392.222 344.212 381.753C349.28 373.378 347.603 359.2 346.131 353.158C333.803 363.385 329.544 374.517 328.829 380.887C328.114 387.256 320.259 407.445 316.441 403.146C312.624 398.848 323.079 374.651 332.148 366.639C339.403 360.229 340.35 345.916 339.917 339.561C338.123 340.22 322.064 353.038 321.493 358.133C320.921 363.229 317.892 371.059 312.788 378.227C307.684 385.394 305.677 364.959 322.064 353.038C335.175 343.501 336.707 326.014 335.834 318.463C309.81 339.623 323.16 343.271 309.559 353.354C295.957 363.438 304.285 342.873 316.894 333.968C326.982 326.844 329.835 309.333 330.001 301.468C319.29 301.126 310.533 325.514 302.456 332.347C294.379 339.181 294.158 325.826 307.383 315.27C317.962 306.825 319.74 292.004 319.307 285.648C311.377 287.339 306.273 294.506 300.501 307.618C294.73 320.73 290.162 311.618 296.779 302.47C302.072 295.152 303.436 285.301 303.456 281.29Z" fill="#FFEEC7"/>
<path d="M314.488 420.557C349.003 488.5 357.077 527.676 361.108 553.068C361.349 551.089 362.431 546.337 364.827 543.166C365.985 539.771 368.406 535.716 372.408 532.836C382.231 525.769 383.66 513.029 380.688 512.696C377.715 512.362 369.534 527.784 366.185 526.978C362.836 526.172 368.555 517.354 374.886 510.754C379.95 505.475 380.505 492.608 380.15 486.835C377.111 489.648 370.597 496.857 368.854 503.198L368.727 503.66C366.614 511.349 365.078 516.939 361.054 515.222C356.951 513.472 364.469 500.126 371.653 489.752C377.4 481.453 376.144 467.609 374.798 461.725C372.546 463.909 367.23 469.389 363.978 473.841C359.914 479.404 357.96 496.815 354.047 493.366C350.134 489.917 361.053 473.082 369.091 458.934C375.521 447.616 371.602 435.28 368.839 430.526C366.037 432.505 360.402 438.265 360.281 445.476C360.13 454.489 352.79 477.745 347.274 473.256C341.758 468.767 357.265 441.697 361.052 430.942C364.082 422.338 360.035 411.908 357.633 407.769C353.854 410.785 350.639 416.444 348.035 424.322C345.431 432.199 340.735 454.892 334.183 448.137C327.631 441.382 344.36 418.749 351.544 408.376C357.292 400.077 354.903 386.106 352.991 380.158C349.78 381.948 339.953 392.885 337.821 400.386C335.689 407.886 328.731 427.745 324.398 420.379C320.064 413.013 337.877 392.222 344.212 381.753C349.28 373.378 347.603 359.2 346.131 353.158C333.803 363.385 329.544 374.517 328.829 380.887C328.114 387.256 320.259 407.445 316.441 403.146C312.624 398.848 323.079 374.651 332.148 366.639C339.403 360.229 340.35 345.916 339.917 339.561C338.123 340.22 322.064 353.038 321.493 358.133C320.921 363.229 317.892 371.059 312.788 378.227C307.684 385.394 305.677 364.959 322.064 353.038C335.175 343.501 336.707 326.014 335.834 318.463C309.81 339.623 323.16 343.271 309.559 353.354C295.957 363.438 304.285 342.873 316.894 333.968C326.982 326.844 329.835 309.333 330.001 301.468C319.29 301.126 310.533 325.514 302.456 332.347C294.379 339.181 294.158 325.826 307.383 315.27C317.962 306.825 319.74 292.004 319.307 285.648C311.377 287.339 306.273 294.506 300.501 307.618C294.73 320.73 290.162 311.618 296.779 302.47C302.072 295.152 303.436 285.301 303.456 281.29C295.639 283.509 289.36 297.051 287.198 303.545C284.79 319.902 286.875 366.203 314.488 420.557Z" fill="#FFCB56"/>
<path d="M427.787 314.906C412.287 301.99 405.182 280.461 403.568 271.312C432.631 227.717 479.455 248.707 474.611 292.302C472.821 308.409 468.607 317.903 463.027 322.659C463.121 325.995 465.569 333.957 474.611 339.124C485.913 345.583 506.903 345.583 521.435 352.041C535.967 358.5 569.874 498.972 571.488 508.66C573.103 518.347 565.03 531.264 553.727 519.962C542.425 508.66 514.977 406.938 500.445 416.626C485.913 426.314 393.88 397.251 395.495 406.938C397.109 416.626 366.431 469.909 372.89 469.909C379.348 469.909 498.83 481.211 514.977 481.211C531.123 481.211 544.04 508.66 544.04 519.962C544.04 531.264 521.435 515.118 514.977 508.66C508.518 502.201 366.431 510.274 343.827 498.972C321.222 487.669 361.587 385.948 366.431 371.417C371.275 356.885 374.504 352.041 408.411 352.041C435.537 352.041 440.166 332.453 439.089 322.659C435.301 320.659 431.485 317.989 427.787 314.906Z" fill="#8A6564"/>
<path d="M489.545 343.968L513.362 343.968C527.545 343.968 551.737 361.87 554.252 380.732C556.767 399.595 558.444 418.981 558.968 426.317L522.409 430.246C534.95 469.923 558.064 530.872 576.332 537.723C552.499 558.313 452.233 554.031 408.067 548.137C411.666 540.703 403.075 530.797 401.953 522.201C398.09 492.599 401.324 469.042 397.43 449.109C386.405 455.397 361.289 439.154 343.754 430.246C345.326 424.221 350.985 405.882 361.045 380.732C371.105 355.582 380.545 351.501 384.192 348.812C386.545 343.967 416.125 340.739 422.045 343.968C441.52 368.029 435.592 372.873 464.655 372.873C481.16 372.873 489.007 361.729 489.545 343.968Z" fill="#ffffff"/>
<path d="M424.162 274.833C412.864 283.635 402.194 281.12 398.271 278.763C380.697 278.763 374.734 253.092 373.949 240.256C376.303 245.233 383.521 252.987 393.564 244.185C406.117 233.183 437.5 234.755 457.115 240.256C476.729 245.757 475.945 282.693 475.945 278.763C475.945 274.833 467.315 274.833 464.961 268.547C462.607 262.26 438.285 263.831 424.162 274.833Z" fill="#4B5361"/>
<path d="M255 509.116V484H843V509.116H812.91V538H777.806H762.761H742.701H727.657H386.642H374.104H351.537H336.493H300.134V509.116H255Z" fill="#22a6b3"/>
<rect x="457" y="248" width="352" height="214" fill="#DAE4FA" fill-opacity="0.7"/>
<rect x="611" y="462" width="45" height="22" fill="#B7CFFD"/>
<g filter="url(#filter0_f)">
<path d="M775.5 186L760 202L775.5 216" stroke="#EE7E79" stroke-opacity="0.5" stroke-width="7" stroke-linecap="round"/>
<path d="M781.5 368L766 384L781.5 398" stroke="#EE7E79" stroke-opacity="0.5" stroke-width="7" stroke-linecap="round"/>
<path d="M827 186L842.5 202L827 216" stroke="#EE7E79" stroke-opacity="0.5" stroke-width="7" stroke-linecap="round"/>
<path d="M860 370L875.5 386L860 400" stroke="#EE7E79" stroke-opacity="0.5" stroke-width="7" stroke-linecap="round"/>
<path d="M755 154H774" stroke="#EE7E79" stroke-opacity="0.5" stroke-width="7" stroke-linecap="round"/>
<path d="M757 247H774" stroke="#EE7E79" stroke-opacity="0.5" stroke-width="7" stroke-linecap="round"/>
<path d="M757 431H774" stroke="#EE7E79" stroke-opacity="0.5" stroke-width="7" stroke-linecap="round"/>
<path d="M757 338H798" stroke="#EE7E79" stroke-opacity="0.5" stroke-width="7" stroke-linecap="round"/>
<path d="M789 431H835" stroke="#EE7E79" stroke-opacity="0.5" stroke-width="7" stroke-linecap="round"/>
<path d="M808 368L808 401" stroke="#EE7E79" stroke-opacity="0.5" stroke-width="7" stroke-linecap="round"/>
<path d="M783 281L783 304" stroke="#EE7E79" stroke-opacity="0.5" stroke-width="7" stroke-linecap="round"/>
<path d="M822 283L822 303" stroke="#EE7E79" stroke-opacity="0.5" stroke-width="7" stroke-linecap="round"/>
<path d="M841 287L841 298" stroke="#EE7E79" stroke-opacity="0.5" stroke-width="7" stroke-linecap="round"/>
<path d="M903 287L903 298" stroke="#EE7E79" stroke-opacity="0.5" stroke-width="7" stroke-linecap="round"/>
<path d="M762 287L762 298" stroke="#EE7E79" stroke-opacity="0.5" stroke-width="7" stroke-linecap="round"/>
<path d="M882 283L882 303" stroke="#EE7E79" stroke-opacity="0.5" stroke-width="7" stroke-linecap="round"/>
<path d="M803 276L803 309" stroke="#EE7E79" stroke-opacity="0.5" stroke-width="7" stroke-linecap="round"/>
<path d="M812.406 188L793 214.691" stroke="#EE7E79" stroke-opacity="0.5" stroke-width="7" stroke-linecap="round"/>
<path d="M861 276L861 309" stroke="#EE7E79" stroke-opacity="0.5" stroke-width="7" stroke-linecap="round"/>
<path d="M830 368L830 401" stroke="#EE7E79" stroke-opacity="0.5" stroke-width="7" stroke-linecap="round"/>
<path d="M810 338H835" stroke="#EE7E79" stroke-opacity="0.5" stroke-width="7" stroke-linecap="round"/>
<path d="M850 338H878" stroke="#EE7E79" stroke-opacity="0.5" stroke-width="7" stroke-linecap="round"/>
<path d="M793 247H830" stroke="#EE7E79" stroke-opacity="0.5" stroke-width="7" stroke-linecap="round"/>
<path d="M846 247H886" stroke="#EE7E79" stroke-opacity="0.5" stroke-width="7" stroke-linecap="round"/>
<path d="M789 154H820" stroke="#EE7E79" stroke-opacity="0.5" stroke-width="7" stroke-linecap="round"/>
</g>
<path d="M766.5 176L751 192L766.5 206" stroke="#EE7E79" stroke-width="7" stroke-linecap="round"/>
<path d="M772.5 358L757 374L772.5 388" stroke="#EE7E79" stroke-width="7" stroke-linecap="round"/>
<path d="M818 176L833.5 192L818 206" stroke="#EE7E79" stroke-width="7" stroke-linecap="round"/>
<path d="M851 360L866.5 376L851 390" stroke="#EE7E79" stroke-width="7" stroke-linecap="round"/>
<path d="M746 144H765" stroke="#EE7E79" stroke-width="7" stroke-linecap="round"/>
<path d="M748 237H765" stroke="#EE7E79" stroke-width="7" stroke-linecap="round"/>
<path d="M748 421H765" stroke="#EE7E79" stroke-width="7" stroke-linecap="round"/>
<path d="M748 328H789" stroke="#EE7E79" stroke-width="7" stroke-linecap="round"/>
<path d="M780 421H826" stroke="#EE7E79" stroke-width="7" stroke-linecap="round"/>
<path d="M799 358L799 391" stroke="#EE7E79" stroke-width="7" stroke-linecap="round"/>
<path d="M774 271L774 294" stroke="#EE7E79" stroke-width="7" stroke-linecap="round"/>
<path d="M813 273L813 293" stroke="#EE7E79" stroke-width="7" stroke-linecap="round"/>
<path d="M832 277L832 288" stroke="#EE7E79" stroke-width="7" stroke-linecap="round"/>
<path d="M894 277L894 288" stroke="#EE7E79" stroke-width="7" stroke-linecap="round"/>
<path d="M753 277L753 288" stroke="#EE7E79" stroke-width="7" stroke-linecap="round"/>
<path d="M873 273L873 293" stroke="#EE7E79" stroke-width="7" stroke-linecap="round"/>
<path d="M794 266L794 299" stroke="#EE7E79" stroke-width="7" stroke-linecap="round"/>
<path d="M803.406 178L784 204.691" stroke="#EE7E79" stroke-width="7" stroke-linecap="round"/>
<path d="M852 266L852 299" stroke="#EE7E79" stroke-width="7" stroke-linecap="round"/>
<path d="M821 358L821 391" stroke="#EE7E79" stroke-width="7" stroke-linecap="round"/>
<path d="M801 328H826" stroke="#EE7E79" stroke-width="7" stroke-linecap="round"/>
<path d="M841 328H869" stroke="#EE7E79" stroke-width="7" stroke-linecap="round"/>
<path d="M784 237H821" stroke="#EE7E79" stroke-width="7" stroke-linecap="round"/>
<path d="M837 237H877" stroke="#EE7E79" stroke-width="7" stroke-linecap="round"/>
<path d="M780 144H811" stroke="#EE7E79" stroke-width="7" stroke-linecap="round"/>
<g opacity="0.5" filter="url(#filter1_f)">
<path d="M711.984 290.116C713.57 289.608 714.391 288.315 714.445 286.237V283.659C714.445 281.854 715.152 280.624 716.566 279.968C715.152 279.327 714.445 278.097 714.445 276.276V273.897C714.445 271.694 713.629 270.331 711.996 269.808L712.441 268.46C713.824 268.851 714.863 269.487 715.559 270.37C716.254 271.245 716.605 272.405 716.613 273.851V276.312C716.613 278.179 717.441 279.112 719.098 279.112V280.812C717.441 280.812 716.613 281.761 716.613 283.659V286.026C716.613 287.495 716.258 288.671 715.547 289.554C714.844 290.437 713.809 291.073 712.441 291.464L711.984 290.116Z" fill="#EE7E79"/>
<path d="M613.681 291.464C612.298 291.073 611.255 290.429 610.552 289.53C609.856 288.64 609.509 287.46 609.509 285.991V283.659C609.509 281.761 608.681 280.812 607.024 280.812V279.112C608.681 279.112 609.509 278.167 609.509 276.276V273.839C609.524 272.409 609.872 271.257 610.552 270.382C611.239 269.499 612.282 268.858 613.681 268.46L614.126 269.808C612.493 270.331 611.677 271.694 611.677 273.897V276.265C611.677 278.038 611.024 279.272 609.72 279.968C611.024 280.671 611.677 281.917 611.677 283.706V286.12C611.7 288.269 612.517 289.601 614.126 290.116L613.681 291.464Z" fill="#EE7E79"/>
<path d="M614.975 280.399H709.587" stroke="#6B81AC" stroke-width="4" stroke-miterlimit="16" stroke-dasharray="3 3"/>
<path d="M711.984 395.604C713.57 395.096 714.391 393.803 714.445 391.725V389.146C714.445 387.342 715.152 386.111 716.566 385.455C715.152 384.814 714.445 383.584 714.445 381.764V379.385C714.445 377.182 713.629 375.818 711.996 375.295L712.441 373.947C713.824 374.338 714.863 374.975 715.559 375.857C716.254 376.732 716.605 377.893 716.613 379.338V381.799C716.613 383.666 717.441 384.6 719.098 384.6V386.299C717.441 386.299 716.613 387.248 716.613 389.146V391.514C716.613 392.982 716.258 394.158 715.547 395.041C714.844 395.924 713.809 396.561 712.441 396.951L711.984 395.604Z" fill="#EE7E79"/>
<path d="M613.681 396.951C612.298 396.561 611.255 395.916 610.552 395.018C609.856 394.127 609.509 392.947 609.509 391.479V389.146C609.509 387.248 608.681 386.299 607.024 386.299V384.6C608.681 384.6 609.509 383.654 609.509 381.764V379.326C609.524 377.896 609.872 376.744 610.552 375.869C611.239 374.986 612.282 374.346 613.681 373.947L614.126 375.295C612.493 375.818 611.677 377.182 611.677 379.385V381.752C611.677 383.525 611.024 384.76 609.72 385.455C611.024 386.158 611.677 387.404 611.677 389.193V391.607C611.7 393.756 612.517 395.088 614.126 395.604L613.681 396.951Z" fill="#EE7E79"/>
<path d="M614.975 385.888H709.587" stroke="#6B81AC" stroke-width="4" stroke-miterlimit="16" stroke-dasharray="3 3"/>
<path d="M711.984 431.491C713.57 430.983 714.391 429.69 714.445 427.612V425.034C714.445 423.229 715.152 421.999 716.566 421.343C715.152 420.702 714.445 419.472 714.445 417.651V415.272C714.445 413.069 713.629 411.706 711.996 411.183L712.441 409.835C713.824 410.226 714.863 410.862 715.559 411.745C716.254 412.62 716.605 413.78 716.613 415.226V417.687C716.613 419.554 717.441 420.487 719.098 420.487V422.187C717.441 422.187 716.613 423.136 716.613 425.034V427.401C716.613 428.87 716.258 430.046 715.547 430.929C714.844 431.812 713.809 432.448 712.441 432.839L711.984 431.491Z" fill="#EE7E79"/>
<path d="M613.681 432.839C612.298 432.448 611.255 431.804 610.552 430.905C609.856 430.015 609.509 428.835 609.509 427.366V425.034C609.509 423.136 608.681 422.187 607.024 422.187V420.487C608.681 420.487 609.509 419.542 609.509 417.651V415.214C609.524 413.784 609.872 412.632 610.552 411.757C611.239 410.874 612.282 410.233 613.681 409.835L614.126 411.183C612.493 411.706 611.677 413.069 611.677 415.272V417.64C611.677 419.413 611.024 420.647 609.72 421.343C611.024 422.046 611.677 423.292 611.677 425.081V427.495C611.7 429.644 612.517 430.976 614.126 431.491L613.681 432.839Z" fill="#EE7E79"/>
<path d="M614.975 421.774H709.587" stroke="#6B81AC" stroke-width="4" stroke-miterlimit="16" stroke-dasharray="3 3"/>
<line x1="614.3" y1="306.087" x2="711.35" y2="306.087" stroke="#EDC7C5" stroke-width="3" stroke-linecap="round"/>
<line x1="502.287" y1="325.662" x2="565.625" y2="325.662" stroke="#6B81AC" stroke-width="3" stroke-linecap="round"/>
<line x1="502.287" y1="336.537" x2="565.625" y2="336.537" stroke="#6B81AC" stroke-width="3" stroke-linecap="round"/>
<line x1="614.3" y1="331.1" x2="696.125" y2="331.1" stroke="#EDC7C5" stroke-width="3" stroke-linecap="round"/>
<line x1="614.3" y1="357.2" x2="713.525" y2="357.2" stroke="#EDC7C5" stroke-width="3" stroke-linecap="round"/>
<line x1="614.3" y1="348.5" x2="642.837" y2="348.5" stroke="#EE7E79" stroke-width="3" stroke-linecap="round"/>
<line x1="614.3" y1="339.8" x2="642.837" y2="339.8" stroke="#EE7E79" stroke-width="3" stroke-linecap="round"/>
<line x1="614.3" y1="314.787" x2="642.837" y2="314.787" stroke="#EE7E79" stroke-width="3" stroke-linecap="round"/>
<line x1="614.3" y1="322.399" x2="642.837" y2="322.399" stroke="#EE7E79" stroke-width="3" stroke-linecap="round"/>
<rect x="500.787" y="273.875" width="88.0875" height="15.225" fill="#EDC7C5"/>
<rect x="500.787" y="301.062" width="88.0875" height="15.225" fill="#EDC7C5"/>
</g>
<path d="M702.197 287.941C703.783 287.434 704.604 286.141 704.658 284.062V281.484C704.658 279.68 705.365 278.449 706.779 277.793C705.365 277.152 704.658 275.922 704.658 274.102V271.723C704.658 269.52 703.842 268.156 702.209 267.633L702.654 266.285C704.037 266.676 705.076 267.312 705.771 268.195C706.467 269.07 706.818 270.23 706.826 271.676V274.137C706.826 276.004 707.654 276.938 709.311 276.938V278.637C707.654 278.637 706.826 279.586 706.826 281.484V283.852C706.826 285.32 706.471 286.496 705.76 287.379C705.057 288.262 704.021 288.898 702.654 289.289L702.197 287.941Z" fill="#EE7E79"/>
<path d="M603.894 289.289C602.511 288.898 601.468 288.254 600.765 287.355C600.069 286.465 599.722 285.285 599.722 283.816V281.484C599.722 279.586 598.894 278.637 597.237 278.637V276.938C598.894 276.938 599.722 275.992 599.722 274.102V271.664C599.737 270.234 600.085 269.082 600.765 268.207C601.452 267.324 602.495 266.684 603.894 266.285L604.339 267.633C602.706 268.156 601.89 269.52 601.89 271.723V274.09C601.89 275.863 601.237 277.098 599.933 277.793C601.237 278.496 601.89 279.742 601.89 281.531V283.945C601.913 286.094 602.729 287.426 604.339 287.941L603.894 289.289Z" fill="#EE7E79"/>
<path d="M605.188 278.225H699.8" stroke="#6B81AC" stroke-width="4" stroke-miterlimit="16" stroke-dasharray="3 3"/>
<path d="M702.197 393.429C703.783 392.921 704.604 391.628 704.658 389.55V386.972C704.658 385.167 705.365 383.937 706.779 383.28C705.365 382.64 704.658 381.409 704.658 379.589V377.21C704.658 375.007 703.842 373.644 702.209 373.12L702.654 371.772C704.037 372.163 705.076 372.8 705.771 373.683C706.467 374.558 706.818 375.718 706.826 377.163V379.624C706.826 381.491 707.654 382.425 709.311 382.425V384.124C707.654 384.124 706.826 385.073 706.826 386.972V389.339C706.826 390.808 706.471 391.983 705.76 392.866C705.057 393.749 704.021 394.386 702.654 394.776L702.197 393.429Z" fill="#EE7E79"/>
<path d="M603.894 394.776C602.511 394.386 601.468 393.741 600.765 392.843C600.069 391.952 599.722 390.772 599.722 389.304V386.972C599.722 385.073 598.894 384.124 597.237 384.124V382.425C598.894 382.425 599.722 381.479 599.722 379.589V377.151C599.737 375.722 600.085 374.569 600.765 373.694C601.452 372.812 602.495 372.171 603.894 371.772L604.339 373.12C602.706 373.644 601.89 375.007 601.89 377.21V379.577C601.89 381.351 601.237 382.585 599.933 383.28C601.237 383.983 601.89 385.229 601.89 387.019V389.433C601.913 391.581 602.729 392.913 604.339 393.429L603.894 394.776Z" fill="#EE7E79"/>
<path d="M605.188 383.713H699.8" stroke="#6B81AC" stroke-width="4" stroke-miterlimit="16" stroke-dasharray="3 3"/>
<path d="M702.197 429.316C703.783 428.809 704.604 427.516 704.658 425.438V422.859C704.658 421.055 705.365 419.824 706.779 419.168C705.365 418.527 704.658 417.297 704.658 415.477V413.098C704.658 410.895 703.842 409.531 702.209 409.008L702.654 407.66C704.037 408.051 705.076 408.688 705.771 409.57C706.467 410.445 706.818 411.605 706.826 413.051V415.512C706.826 417.379 707.654 418.312 709.311 418.312V420.012C707.654 420.012 706.826 420.961 706.826 422.859V425.227C706.826 426.695 706.471 427.871 705.76 428.754C705.057 429.637 704.021 430.273 702.654 430.664L702.197 429.316Z" fill="#EE7E79"/>
<path d="M603.894 430.664C602.511 430.273 601.468 429.629 600.765 428.73C600.069 427.84 599.722 426.66 599.722 425.191V422.859C599.722 420.961 598.894 420.012 597.237 420.012V418.312C598.894 418.312 599.722 417.367 599.722 415.477V413.039C599.737 411.609 600.085 410.457 600.765 409.582C601.452 408.699 602.495 408.059 603.894 407.66L604.339 409.008C602.706 409.531 601.89 410.895 601.89 413.098V415.465C601.89 417.238 601.237 418.473 599.933 419.168C601.237 419.871 601.89 421.117 601.89 422.906V425.32C601.913 427.469 602.729 428.801 604.339 429.316L603.894 430.664Z" fill="#EE7E79"/>
<path d="M605.188 419.6H699.8" stroke="#6B81AC" stroke-width="4" stroke-miterlimit="16" stroke-dasharray="3 3"/>
<line x1="604.513" y1="303.912" x2="701.563" y2="303.912" stroke="#EDC7C5" stroke-width="3" stroke-linecap="round"/>
<line x1="492.5" y1="323.487" x2="555.838" y2="323.487" stroke="#6B81AC" stroke-width="3" stroke-linecap="round"/>
<line x1="492.5" y1="334.362" x2="555.838" y2="334.362" stroke="#6B81AC" stroke-width="3" stroke-linecap="round"/>
<line x1="604.513" y1="328.925" x2="686.338" y2="328.925" stroke="#EDC7C5" stroke-width="3" stroke-linecap="round"/>
<line x1="604.513" y1="355.025" x2="703.738" y2="355.025" stroke="#EDC7C5" stroke-width="3" stroke-linecap="round"/>
<line x1="604.513" y1="346.325" x2="633.05" y2="346.325" stroke="#EE7E79" stroke-width="3" stroke-linecap="round"/>
<line x1="604.513" y1="337.625" x2="633.05" y2="337.625" stroke="#EE7E79" stroke-width="3" stroke-linecap="round"/>
<line x1="604.513" y1="312.612" x2="633.05" y2="312.612" stroke="#EE7E79" stroke-width="3" stroke-linecap="round"/>
<line x1="604.513" y1="320.225" x2="633.05" y2="320.225" stroke="#EE7E79" stroke-width="3" stroke-linecap="round"/>
<rect x="491" y="271.7" width="88.0875" height="15.225" fill="#EDC7C5"/>
<rect x="491" y="298.888" width="88.0875" height="15.225" fill="#EDC7C5"/>
<defs>
<filter id="filter0_f" x="747.5" y="146.5" width="163" height="292" filterUnits="userSpaceOnUse" color-interpolation-filters="sRGB">
<feFlood flood-opacity="0" result="BackgroundImageFix"/>
<feBlend mode="normal" in="SourceGraphic" in2="BackgroundImageFix" result="shape"/>
<feGaussianBlur stdDeviation="2" result="effect1_foregroundBlur"/>
</filter>
<filter id="filter1_f" x="495.787" y="263.46" width="228.311" height="174.379" filterUnits="userSpaceOnUse" color-interpolation-filters="sRGB">
<feFlood flood-opacity="0" result="BackgroundImageFix"/>
<feBlend mode="normal" in="SourceGraphic" in2="BackgroundImageFix" result="shape"/>
<feGaussianBlur stdDeviation="2.5" result="effect1_foregroundBlur"/>
</filter>
</defs>
</svg>